/* XPM */
static char *MDAxXzA_[] = {
/* columns rows colors chars-per-pixel */
"64 64 12 1 ",
"  c black",
". c #681018",
"X c #406030",
"o c gray25",
"O c #B83018",
"+ c #60A810",
"@ c #409850",
"# c #68D078",
"$ c #88E020",
"% c #B3D6A1",
"& c #C8C8C8",
"* c #E8E8F8",
/* pixels */
"%%%%%%%%%%%%%%%%%%%%%%%%%%%%%%%%%%%%%%%%%%%%%%%%%%%%%%%%%%%%%%%%",
"%%%%%%%%%%%%%%%%%%%%%%%%%%%%%%%%%%%%%%%%%%%%%%%%%%%%%%%%%%%%%%%%",
"%%%%%%%%%%%%%%%%%%%%%%%%%%%%%%%%%%%%%%%%%%%%%%%%%%%%%%%%%%%%%%%%",
"%%%%%%%%%%%%%%%%%%%%%%%%%%%%%%%%%%%%%%%%%%%%%%%%%%%%%%%%%%%%%%%%",
"%%%%%%%%%%%%%%%%%%%%%%%%%%%%%%%%%%%%%%%%%%%%%%%%%%%%%%%%%%%%%%%%",
"%%%%%%%%%%%%%%%%%%%%%%%%%%%%%%%%%%%%%%%%%%%%%%%%%%%%%%%%%%%%%%%%",
"%%%%%%%%%%%%%%%%%%%%%%%%%%%%%%%%%%%%%%%%%%%%%%%%%%%%%%%%%%%%%%%%",
"%%%%%%%%%%%%%%%%%%%%%%%%%%%%%%%%%%%%%%%%%%%%%%%%%%%%%%%%%%%%%%%%",
"%%%%%%%%%%%%%%%%%%%%%%%%%%%%%%%%%%%%%%%%%%%%%%%%%%%%%%%%%%%%%%%%",
"%%%%%%%%%%%%%%%%%%%%%%%%%%%%%%%%%%%%%%%%%%%%%%%%%%%%%%%%%%%%%%%%",
"%%%%%%%%%%%%%%%%%%%%%%%%%%%%%%%%%%%%%%%%%%%%%%%%%%%%%%%%%%%%%%%%",
"%%%%%%%%%%%%%%%%%%%%%%%%%%%%%%%%%%%%%%%%%%%%%%%%%%%%%%%%%%%%%%%%",
"%%%%%%%%%%%%%%%%%%%%%%%%%%%%%%%%%%%%%%%%%%%%%%%%%%%%%%%%%%%%%%%%",
"%%%%%%%%%%%%%%%%%%%%%%%%%%%%%%%%%%%%%%%%%%%%%%%%%%%%%%%%%%%%%%%%",
"%%%%%%%%%%%%%%%%%%%%%%%%%%%%%%%%%%%%%%%%%%%%%%%%%%%%%%%%%%%%%%%%",
"%%%%%%%%%%%%%%%%%%%%%%%%%%%%%%%%%%%%%%%%%%%%%%%%%%%%%%%%%%%%%%%%",
"%%%%%%%%%%%%%%%%%%%%%%%%%%%%XXXXXX%%%%%%%%%%%%%%%%%%%%%%%%%%%%%%",
"%%%%%%%%%%%%%%%%%%%%%%%%%%%%XXXXXX%%%%%%%%%%%%%%%%%%%%%%%%%%%%%%",
"%%%%%%%%%%%%%%%%%%%%%%%%%%XX++XX++XX%%%%%%%%%%%%%%%%%%%%%%%%%%%%",
"%%%%%%%%%%%%%%%%%%%%%%%%%%XX++XX++XX%%%%%%%%%%%%%%%%%%%%%%%%%%%%",
"%%%%%%%%%%%%%%%%%%%%%%    ++$$++++++    %%%%%%%%%%%%%%%%%%%%%%%%",
"%%%%%%%%%%%%%%%%%%%%%%    ++$$++++++    %%%%%%%%%%%%%%%%%%%%%%%%",
"%%%%%%%%%%%%%%%%%%%%  ++$$$$$$$$++++$$++  %%%%%%%%%%%%%%%%%%%%%%",
"%%%%%%%%%%%%%%%%%%%%  ++$$$$$$$$++++$$++  %%%%%%%%%%%%%%%%%%%%%%",
"%%%%%%%%%%%%%%%%%%  ++++++$$$$$$++$$$$++++  %%%%%%%%%%%%%%%%%%%%",
"%%%%%%%%%%%%%%%%%%  ++++++$$$$$$++$$$$++++  %%%%%%%%%%%%%%%%%%%%",
"%%%%%%%%%%%%%%%%%%  ++ooXX++++++++++XXoo++  %%%%%%%%%%%%%%%%%%%%",
"%%%%%%%%%%%%%%%%%%  ++ooXX++++++++++XXoo++  %%%%%%%%%%%%%%%%%%%%",
"%%%%%%%%%%%%%%%%%%oo  ##@@oooooooooo@@##  @@oo%%%%%%%%%%%%%%%%%%",
"%%%%%%%%%%%%%%%%%%oo  ##@@oooooooooo@@##  @@oo%%%%%%%%%%%%%%%%%%",
"%%%%%%%%%%%%%%%%oo@@  ##########@@######  @@oo%%%%%%%%%%%%%%%%%%",
"%%%%%%%%%%%%%%%%oo@@  ##########@@######  @@oo%%%%%%%%%%%%%%%%%%",
"%%%%%%%%%%%%%%%%oo@@oo######@@@@########ooXX%%%%%%%%%%%%%%%%%%%%",
"%%%%%%%%%%%%%%%%oo@@oo######@@@@########ooXX%%%%%%%%%%%%%%%%%%%%",
"%%%%%%%%%%%%%%%%oo  @@######@@@@########@@  %%%%%%%%%%%%%%%%%%%%",
"%%%%%%%%%%%%%%%%oo  @@######@@@@########@@  %%%%%%%%%%%%%%%%%%%%",
"%%%%%%%%%%%%%%%%%%  @@**..@@######@@..**@@  %%%%%%%%%%%%%%%%%%%%",
"%%%%%%%%%%%%%%%%%%  @@**..@@######@@..**@@  %%%%%%%%%%%%%%%%%%%%",
"%%%%%%%%%%%%%%%%%%  @@&&OO##########OO&&@@  %%%%%%%%%%%%%%%%%%%%",
"%%%%%%%%%%%%%%%%%%  @@&&OO##########OO&&@@  %%%%%%%%%%%%%%%%%%%%",
"%%%%%%%%%%%%%%%%%%oo  @@@@##########@@@@  XX%%%%%%%%%%%%%%%%%%%%",
"%%%%%%%%%%%%%%%%%%oo  @@@@##########@@@@  XX%%%%%%%%%%%%%%%%%%%%",
"%%%%%%%%%%%%%%%%%%  @@    @@@@##@@@@    @@XX%%%%%%%%%%%%%%%%%%%%",
"%%%%%%%%%%%%%%%%%%  @@    @@@@##@@@@    @@XX%%%%%%%%%%%%%%%%%%%%",
"%%%%%%%%%%%%%%%%%%%%    XX          XX@@@@  %%%%%%%%%%%%%%%%%%%%",
"%%%%%%%%%%%%%%%%%%%%    XX          XX@@@@  %%%%%%%%%%%%%%%%%%%%",
"%%%%%%%%%%%%%%%%%%%%%%%%%%%%%%%%%%%%%%    %%%%%%%%%%%%%%%%%%%%%%",
"%%%%%%%%%%%%%%%%%%%%%%%%%%%%%%%%%%%%%%    %%%%%%%%%%%%%%%%%%%%%%",
"%%%%%%%%%%%%%%%%%%%%%%%%%%%%%%%%%%%%%%%%%%%%%%%%%%%%%%%%%%%%%%%%",
"%%%%%%%%%%%%%%%%%%%%%%%%%%%%%%%%%%%%%%%%%%%%%%%%%%%%%%%%%%%%%%%%",
"%%%%%%%%%%%%%%%%%%%%%%%%%%%%%%%%%%%%%%%%%%%%%%%%%%%%%%%%%%%%%%%%",
"%%%%%%%%%%%%%%%%%%%%%%%%%%%%%%%%%%%%%%%%%%%%%%%%%%%%%%%%%%%%%%%%",
"%%%%%%%%%%%%%%%%%%%%%%%%%%%%%%%%%%%%%%%%%%%%%%%%%%%%%%%%%%%%%%%%",
"%%%%%%%%%%%%%%%%%%%%%%%%%%%%%%%%%%%%%%%%%%%%%%%%%%%%%%%%%%%%%%%%",
"%%%%%%%%%%%%%%%%%%%%%%%%%%%%%%%%%%%%%%%%%%%%%%%%%%%%%%%%%%%%%%%%",
"%%%%%%%%%%%%%%%%%%%%%%%%%%%%%%%%%%%%%%%%%%%%%%%%%%%%%%%%%%%%%%%%",
"%%%%%%%%%%%%%%%%%%%%%%%%%%%%%%%%%%%%%%%%%%%%%%%%%%%%%%%%%%%%%%%%",
"%%%%%%%%%%%%%%%%%%%%%%%%%%%%%%%%%%%%%%%%%%%%%%%%%%%%%%%%%%%%%%%%",
"%%%%%%%%%%%%%%%%%%%%%%%%%%%%%%%%%%%%%%%%%%%%%%%%%%%%%%%%%%%%%%%%",
"%%%%%%%%%%%%%%%%%%%%%%%%%%%%%%%%%%%%%%%%%%%%%%%%%%%%%%%%%%%%%%%%",
"%%%%%%%%%%%%%%%%%%%%%%%%%%%%%%%%%%%%%%%%%%%%%%%%%%%%%%%%%%%%%%%%",
"%%%%%%%%%%%%%%%%%%%%%%%%%%%%%%%%%%%%%%%%%%%%%%%%%%%%%%%%%%%%%%%%",
"%%%%%%%%%%%%%%%%%%%%%%%%%%%%%%%%%%%%%%%%%%%%%%%%%%%%%%%%%%%%%%%%",
"%%%%%%%%%%%%%%%%%%%%%%%%%%%%%%%%%%%%%%%%%%%%%%%%%%%%%%%%%%%%%%%%"
};