/* XPM */
static char *MDAxXzI_[] = {
/* columns rows colors chars-per-pixel */
"64 64 12 1 ",
"  c black",
". c #681018",
"X c #406030",
"o c gray25",
"O c #B83018",
"+ c #60A810",
"@ c #409850",
"# c #68D078",
"$ c #88E020",
"% c #B3D6A1",
"& c #C8C8C8",
"* c #E8E8F8",
/* pixels */
"%%%%%%%%%%%%%%%%%%%%%%%%%%%%%%%%%%%%%%%%%%%%%%%%%%%%%%%%%%%%%%%%",
"%%%%%%%%%%%%%%%%%%%%%%%%%%%%%%%%%%%%%%%%%%%%%%%%%%%%%%%%%%%%%%%%",
"%%%%%%%%%%%%%%%%%%%%%%%%%%%%%%%%%%%%%%%%%%%%%%%%%%%%%%%%%%%%%%%%",
"%%%%%%%%%%%%%%%%%%%%%%%%%%%%%%%%%%%%%%%%%%%%%%%%%%%%%%%%%%%%%%%%",
"%%%%%%%%%%%%%%%%%%%%%%%%%%%%%%%%%%%%%%%%%%%%%%%%%%%%%%%%%%%%%%%%",
"%%%%%%%%%%%%%%%%%%%%%%%%%%%%%%%%%%%%%%%%%%%%%%%%%%%%%%%%%%%%%%%%",
"%%%%%%%%%%%%%%%%%%%%%%%%%%%%%%%%%%%%%%%%%%%%%%%%%%%%%%%%%%%%%%%%",
"%%%%%%%%%%%%%%%%%%%%%%%%%%%%%%%%%%%%%%%%%%%%%%%%%%%%%%%%%%%%%%%%",
"%%%%%%%%%%%%%%%%%%%%%%%%%%%%%%%%%%%%%%%%%%%%%%%%%%%%%%%%%%%%%%%%",
"%%%%%%%%%%%%%%%%%%%%%%%%%%%%%%%%%%%%%%%%%%%%%%%%%%%%%%%%%%%%%%%%",
"%%%%%%%%%%%%%%%%%%%%%%%%%%%%%%%%%%%%%%%%%%%%%%%%%%%%%%%%%%%%%%%%",
"%%%%%%%%%%%%%%%%%%%%%%%%%%%%%%%%%%%%%%%%%%%%%%%%%%%%%%%%%%%%%%%%",
"%%%%%%%%%%%%%%%%%%%%%%%%%%%%%%%%%%%%%%%%%%%%%%%%%%%%%%%%%%%%%%%%",
"%%%%%%%%%%%%%%%%%%%%%%%%%%%%%%%%%%%%%%%%%%%%%%%%%%%%%%%%%%%%%%%%",
"%%%%%%%%%%%%%%%%%%%%%%%%%%%%%%%%%%%%%%%%%%%%%%%%%%%%%%%%%%%%%%%%",
"%%%%%%%%%%%%%%%%%%%%%%%%%%%%%%%%%%%%%%%%%%%%%%%%%%%%%%%%%%%%%%%%",
"%%%%%%%%%%%%%%%%%%%%%%%%%%%%%%%%XXXXXXXX%%%%%%%%%%%%%%%%%%%%%%%%",
"%%%%%%%%%%%%%%%%%%%%%%%%%%%%%%%%XXXXXXXX%%%%%%%%%%%%%%%%%%%%%%%%",
"%%%%%%%%%%%%%%%%%%%%%%XXXXXX%%XX++$$$$$$XX    %%%%%%%%%%%%%%%%%%",
"%%%%%%%%%%%%%%%%%%%%%%XXXXXX%%XX++$$$$$$XX    %%%%%%%%%%%%%%%%%%",
"%%%%%%%%%%%%%%%%%%XXXX##@@    ++++++$$$$$$++++  %%%%%%%%%%%%%%%%",
"%%%%%%%%%%%%%%%%%%XXXX##@@    ++++++$$$$$$++++  %%%%%%%%%%%%%%%%",
"%%%%%%%%%%%%%%%%XX@@@@######@@  oo++++++++++++  %%%%%%%%%%%%%%%%",
"%%%%%%%%%%%%%%%%XX@@@@######@@  oo++++++++++++  %%%%%%%%%%%%%%%%",
"%%%%%%%%%%%%%%XX##@@@@############oo++++$$$$++XX%%%%%%%%%%%%%%%%",
"%%%%%%%%%%%%%%XX##@@@@############oo++++$$$$++XX%%%%%%%%%%%%%%%%",
"%%%%%%%%%%%%%%XX################@@oo++++$$$$++++XX%%%%%%%%%%%%%%",
"%%%%%%%%%%%%%%XX################@@oo++++$$$$++++XX%%%%%%%%%%%%%%",
"%%%%%%%%%%%%XX##@@############@@@@oo++++++++++++XX%%%%%%%%%%%%%%",
"%%%%%%%%%%%%XX##@@############@@@@oo++++++++++++XX%%%%%%%%%%%%%%",
"%%%%%%%%%%%%XX##################@@  ++++++++++++XX%%%%%%%%%%%%%%",
"%%%%%%%%%%%%XX##################@@  ++++++++++++XX%%%%%%%%%%%%%%",
"%%%%%%%%%%%%XX######..**######@@####  ++++++++XX%%%%%%%%%%%%%%%%",
"%%%%%%%%%%%%XX######..**######@@####  ++++++++XX%%%%%%%%%%%%%%%%",
"%%%%%%%%%%%%XX@@##@@OO&&######XX######        %%%%%%%%%%%%%%%%%%",
"%%%%%%%%%%%%XX@@##@@OO&&######XX######        %%%%%%%%%%%%%%%%%%",
"%%%%%%%%%%%%%%  XX##########XX##########@@  %%%%%%%%%%%%%%%%%%%%",
"%%%%%%%%%%%%%%  XX##########XX##########@@  %%%%%%%%%%%%%%%%%%%%",
"%%%%%%%%%%%%%%%%%%      XXXX@@@@####@@@@@@XX  %%%%%%%%%%%%%%%%%%",
"%%%%%%%%%%%%%%%%%%      XXXX@@@@####@@@@@@XX  %%%%%%%%%%%%%%%%%%",
"%%%%%%%%%%%%%%%%%%%%%%XX@@  @@@@@@XX@@@@  XX  %%%%%%%%%%%%%%%%%%",
"%%%%%%%%%%%%%%%%%%%%%%XX@@  @@@@@@XX@@@@  XX  %%%%%%%%%%%%%%%%%%",
"%%%%%%%%%%%%%%%%%%%%%%%%XX  @@@@    @@@@    %%%%%%%%%%%%%%%%%%%%",
"%%%%%%%%%%%%%%%%%%%%%%%%XX  @@@@    @@@@    %%%%%%%%%%%%%%%%%%%%",
"%%%%%%%%%%%%%%%%%%%%%%%%%%%%    %%%%    %%%%%%%%%%%%%%%%%%%%%%%%",
"%%%%%%%%%%%%%%%%%%%%%%%%%%%%    %%%%    %%%%%%%%%%%%%%%%%%%%%%%%",
"%%%%%%%%%%%%%%%%%%%%%%%%%%%%%%%%%%%%%%%%%%%%%%%%%%%%%%%%%%%%%%%%",
"%%%%%%%%%%%%%%%%%%%%%%%%%%%%%%%%%%%%%%%%%%%%%%%%%%%%%%%%%%%%%%%%",
"%%%%%%%%%%%%%%%%%%%%%%%%%%%%%%%%%%%%%%%%%%%%%%%%%%%%%%%%%%%%%%%%",
"%%%%%%%%%%%%%%%%%%%%%%%%%%%%%%%%%%%%%%%%%%%%%%%%%%%%%%%%%%%%%%%%",
"%%%%%%%%%%%%%%%%%%%%%%%%%%%%%%%%%%%%%%%%%%%%%%%%%%%%%%%%%%%%%%%%",
"%%%%%%%%%%%%%%%%%%%%%%%%%%%%%%%%%%%%%%%%%%%%%%%%%%%%%%%%%%%%%%%%",
"%%%%%%%%%%%%%%%%%%%%%%%%%%%%%%%%%%%%%%%%%%%%%%%%%%%%%%%%%%%%%%%%",
"%%%%%%%%%%%%%%%%%%%%%%%%%%%%%%%%%%%%%%%%%%%%%%%%%%%%%%%%%%%%%%%%",
"%%%%%%%%%%%%%%%%%%%%%%%%%%%%%%%%%%%%%%%%%%%%%%%%%%%%%%%%%%%%%%%%",
"%%%%%%%%%%%%%%%%%%%%%%%%%%%%%%%%%%%%%%%%%%%%%%%%%%%%%%%%%%%%%%%%",
"%%%%%%%%%%%%%%%%%%%%%%%%%%%%%%%%%%%%%%%%%%%%%%%%%%%%%%%%%%%%%%%%",
"%%%%%%%%%%%%%%%%%%%%%%%%%%%%%%%%%%%%%%%%%%%%%%%%%%%%%%%%%%%%%%%%",
"%%%%%%%%%%%%%%%%%%%%%%%%%%%%%%%%%%%%%%%%%%%%%%%%%%%%%%%%%%%%%%%%",
"%%%%%%%%%%%%%%%%%%%%%%%%%%%%%%%%%%%%%%%%%%%%%%%%%%%%%%%%%%%%%%%%",
"%%%%%%%%%%%%%%%%%%%%%%%%%%%%%%%%%%%%%%%%%%%%%%%%%%%%%%%%%%%%%%%%",
"%%%%%%%%%%%%%%%%%%%%%%%%%%%%%%%%%%%%%%%%%%%%%%%%%%%%%%%%%%%%%%%%",
"%%%%%%%%%%%%%%%%%%%%%%%%%%%%%%%%%%%%%%%%%%%%%%%%%%%%%%%%%%%%%%%%",
"%%%%%%%%%%%%%%%%%%%%%%%%%%%%%%%%%%%%%%%%%%%%%%%%%%%%%%%%%%%%%%%%"
};
