/* XPM */
static char *MDAxXzM_[] = {
/* columns rows colors chars-per-pixel */
"64 64 8 1 ",
"  c black",
". c #406030",
"X c gray25",
"o c #60A810",
"O c #409850",
"+ c #68D078",
"@ c #88E020",
"# c #B3D6A1",
/* pixels */
"################################################################",
"################################################################",
"################################################################",
"################################################################",
"################################################################",
"################################################################",
"################################################################",
"################################################################",
"################################################################",
"################################################################",
"################################################################",
"################################################################",
"################################################################",
"################################################################",
"################################################################",
"################################################################",
"################################################################",
"################################################################",
"######################XXXX##########XXXX########################",
"######################XXXX##########XXXX########################",
"####################XX++++XXXXXXXXXX++++XX######################",
"####################XX++++XXXXXXXXXX++++XX######################",
"####################XX++OOOO......OOOO++XX######################",
"####################XX++OOOO......OOOO++XX######################",
"####################XXOOOO..oo..oo..OOOOXX######################",
"####################XXOOOO..oo..oo..OOOOXX######################",
"####################..    oo@@oooooo    ..######################",
"####################..    oo@@oooooo    ..######################",
"####################  oo@@@@@@@@oooo@@oo  ######################",
"####################  oo@@@@@@@@oooo@@oo  ######################",
"##################  oooooo@@@@@@oo@@@@oooo  ####################",
"##################  oooooo@@@@@@oo@@@@oooo  ####################",
"##################  oooooooooooooooooooooo  ####################",
"##################  oooooooooooooooooooooo  ####################",
"##################XXooooooooooooooooooooooXX####################",
"##################XXooooooooooooooooooooooXX####################",
"####################..oooooooooooooooooo..######################",
"####################..oooooooooooooooooo..######################",
"##################....XXooooooooooooooXX..######################",
"##################....XXooooooooooooooXX..######################",
"##################  OOOOXXXXXXXXXXXXXXOOOO..####################",
"##################  OOOOXXXXXXXXXXXXXXOOOO..####################",
"##################  OOOOOOOOOOOOOOOOOOOOOO  ####################",
"##################  OOOOOOOOOOOOOOOOOOOOOO  ####################",
"####################                OOOOOO  ####################",
"####################                OOOOOO  ####################",
"####################################      ######################",
"####################################      ######################",
"################################################################",
"################################################################",
"################################################################",
"################################################################",
"################################################################",
"################################################################",
"################################################################",
"################################################################",
"################################################################",
"################################################################",
"################################################################",
"################################################################",
"################################################################",
"################################################################",
"################################################################",
"################################################################"
};
