/* XPM */
static char *MDAyXzA_[] = {
/* columns rows colors chars-per-pixel */
"64 64 16 1 ",
"  c black",
". c #682028",
"X c #305818",
"o c #284040",
"O c gray25",
"+ c #904020",
"@ c #C85878",
"# c #60A810",
"$ c #408078",
"% c #88E020",
"& c #48A898",
"* c #68D0C0",
"= c #F080A0",
"- c #B3D6A1",
"; c #C8C8D8",
": c #E8E8F8",
/* pixels */
"----------------------------------------------------------------",
"----------------------------------------------------------------",
"----------------------------------------------------------------",
"----------------------------------------------------------------",
"----------------------------------------------------------------",
"----------------------------------------------------------------",
"----------------------------------------------------------------",
"----------------------------------------------------------------",
"----------------------------------------------------------------",
"----------------------------------------------------------------",
"----------------------------------------------------------------",
"----------------------------------------------------------------",
"----------------------------......------------------------------",
"----------------------------......------------------------------",
"--------------------------..==++@@..----------------------------",
"--------------------------..==++@@..----------------------------",
"------------------------..====@@@@==..--------------------------",
"------------------------..====@@@@==..--------------------------",
"----------------------..@@========@@@@..------------------------",
"----------------------..@@========@@@@..------------------------",
"------------------XXXX..@@@@======@@@@..XXXX--------------------",
"------------------XXXX..@@@@======@@@@..XXXX--------------------",
"--------------XXXX####  ++@@@@@@@@@@++  ####XXXX----------------",
"--------------XXXX####  ++@@@@@@@@@@++  ####XXXX----------------",
"------------XX%%%%######  ++@@@@@@++  ######%%%%XX--------------",
"------------XX%%%%######  ++@@@@@@++  ######%%%%XX--------------",
"------------XXXX%%%%##  ####++++++####  ##%%%%XXXX--------------",
"------------XXXX%%%%##  ####++++++####  ##%%%%XXXX--------------",
"----------------XXXX      %%######%%      XXoo------------------",
"----------------XXXX      %%######%%      XXoo------------------",
"----------------oo  **&&    %%##%%    &&**  &&oo----------------",
"----------------oo  **&&    %%##%%    &&**  &&oo----------------",
"--------------oo&&  OO******      ******OO  &&oo----------------",
"--------------oo&&  OO******      ******OO  &&oo----------------",
"--------------oo&&  OO******$$$$********OO  &&oo----------------",
"--------------oo&&  OO******$$$$********OO  &&oo----------------",
"--------------oo&&  &&$$****$$$$******$$&&  oo------------------",
"--------------oo&&  &&$$****$$$$******$$&&  oo------------------",
"----------------oo  &&::  &&******&&  ::&&  --------------------",
"----------------oo  &&::  &&******&&  ::&&  --------------------",
"------------------  &&;;++**********++;;&&  --------------------",
"------------------  &&;;++**********++;;&&  --------------------",
"------------------oo  &&&&&&******&&&&&&  oo--------------------",
"------------------oo  &&&&&&******&&&&&&  oo--------------------",
"------------------  &&    &&&&**&&&&    &&oo--------------------",
"------------------  &&    &&&&**&&&&    &&oo--------------------",
"--------------------    oo          oo&&&&  --------------------",
"--------------------    oo          oo&&&&  --------------------",
"--------------------------------------    ----------------------",
"--------------------------------------    ----------------------",
"----------------------------------------------------------------",
"----------------------------------------------------------------",
"----------------------------------------------------------------",
"----------------------------------------------------------------",
"----------------------------------------------------------------",
"----------------------------------------------------------------",
"----------------------------------------------------------------",
"----------------------------------------------------------------",
"----------------------------------------------------------------",
"----------------------------------------------------------------",
"----------------------------------------------------------------",
"----------------------------------------------------------------",
"----------------------------------------------------------------",
"----------------------------------------------------------------"
};
