/* XPM */
static char *MDAyXzE_[] = {
/* columns rows colors chars-per-pixel */
"64 64 15 1 ",
"  c black",
". c #682028",
"X c #305818",
"o c #284040",
"O c gray25",
"+ c #904020",
"@ c #C85878",
"# c #60A810",
"$ c #408078",
"% c #88E020",
"& c #48A898",
"* c #68D0C0",
"= c #F080A0",
"- c #B3D6A1",
"; c #E8E8F8",
/* pixels */
"----------------------------------------------------------------",
"----------------------------------------------------------------",
"----------------------------------------------------------------",
"----------------------------------------------------------------",
"----------------------------------------------------------------",
"----------------------------------------------------------------",
"----------------------------------------------------------------",
"----------------------------------------------------------------",
"----------------------------------------------------------------",
"----------------------------------------------------------------",
"----------------------------------------------------------------",
"----------------------------------------------------------------",
"----------------------------------------------------------------",
"----------------------------------------------------------------",
"----------------------------------------------------------------",
"----------------------------------------------------------------",
"----------------..........--------------------------------------",
"----------------..........--------------------------------------",
"--------------..++@@====@@..----XXXX----------------------------",
"--------------..++@@====@@..----XXXX----------------------------",
"--------------..++++====@@@@..XX####XXXXoo----------------------",
"--------------..++++====@@@@..XX####XXXXoo----------------------",
"--------------..@@@@@@@@==@@..######%%XX&&oooo------------------",
"--------------..@@@@@@@@==@@..######%%XX&&oooo------------------",
"--------------..@@@@@@@@@@@@..##%%%%XX****$$$$oo----------------",
"--------------..@@@@@@@@@@@@..##%%%%XX****$$$$oo----------------",
"--------------..@@@@@@@@@@++##    XX$$****$$$$**oo--------------",
"--------------..@@@@@@@@@@++##    XX$$****$$$$**oo--------------",
"----------------..@@@@@@++++OO******************oo--------------",
"----------------..@@@@@@++++OO******************oo--------------",
"----------------XXXX..++++##OO&&OO************$$**oo------------",
"----------------XXXX..++++##OO&&OO************$$**oo------------",
"--------------XX####XX####%%XX$$OOOO****;;++******oo------------",
"--------------XX####XX####%%XX$$OOOO****;;++******oo------------",
"------------XX####XX%%####XX**$$&&&&&&**;;  $$****oo------------",
"------------XX####XX%%####XX**$$&&&&&&**;;  $$****oo------------",
"------------XX##    XX%%%%XX****&&&&&&&&&&&&&&&&  --------------",
"------------XX##    XX%%%%XX****&&&&&&&&&&&&&&&&  --------------",
"--------------  ----  XXXX******&&&&$$&&&&&&oooo----------------",
"--------------  ----  XXXX******&&&&$$&&&&&&oooo----------------",
"--------------------  &&&&****&&&&&&&&oooo  --------------------",
"--------------------  &&&&****&&&&&&&&oooo  --------------------",
"------------------  &&&&&&&&&&$$$$&&&&$$  ----------------------",
"------------------  &&&&&&&&&&$$$$&&&&$$  ----------------------",
"------------------  &&&&oo    oooooo&&&&  ----------------------",
"------------------  &&&&oo    oooooo&&&&  ----------------------",
"--------------------    oo--------oo    ------------------------",
"--------------------    oo--------oo    ------------------------",
"----------------------------------------------------------------",
"----------------------------------------------------------------",
"----------------------------------------------------------------",
"----------------------------------------------------------------",
"----------------------------------------------------------------",
"----------------------------------------------------------------",
"----------------------------------------------------------------",
"----------------------------------------------------------------",
"----------------------------------------------------------------",
"----------------------------------------------------------------",
"----------------------------------------------------------------",
"----------------------------------------------------------------",
"----------------------------------------------------------------",
"----------------------------------------------------------------",
"----------------------------------------------------------------",
"----------------------------------------------------------------"
};
