/* XPM */
static char *MDAyXzI_[] = {
/* columns rows colors chars-per-pixel */
"64 64 15 1 ",
"  c black",
". c #682028",
"X c #305818",
"o c #284040",
"O c gray25",
"+ c #904020",
"@ c #C85878",
"# c #60A810",
"$ c #408078",
"% c #88E020",
"& c #48A898",
"* c #68D0C0",
"= c #F080A0",
"- c #B3D6A1",
"; c #E8E8F8",
/* pixels */
"----------------------------------------------------------------",
"----------------------------------------------------------------",
"----------------------------------------------------------------",
"----------------------------------------------------------------",
"----------------------------------------------------------------",
"----------------------------------------------------------------",
"----------------------------------------------------------------",
"----------------------------------------------------------------",
"----------------------------------------------------------------",
"----------------------------------------------------------------",
"----------------------------------------------------------------",
"----------------------------------------------------------------",
"----------------------------------------------------------------",
"----------------------------------------------------------------",
"----------------------------------------------------------------",
"----------------------------------------------------------------",
"----------------------------------------..........--------------",
"----------------------------------------..........--------------",
"------------------------------XXXX----..@@====@@++..------------",
"------------------------------XXXX----..@@====@@++..------------",
"------------------------ooXXXX####XX..@@@@====++++..------------",
"------------------------ooXXXX####XX..@@@@====++++..------------",
"--------------------oooo&&XX%%######..@@==@@@@@@@@..------------",
"--------------------oooo&&XX%%######..@@==@@@@@@@@..------------",
"------------------oo$$$$****XX%%%%##..@@@@@@@@@@@@..------------",
"------------------oo$$$$****XX%%%%##..@@@@@@@@@@@@..------------",
"----------------oo**$$$$****$$XX    ##++@@@@@@@@@@..------------",
"----------------oo**$$$$****$$XX    ##++@@@@@@@@@@..------------",
"----------------oo******************OO++++@@@@@@..--------------",
"----------------oo******************OO++++@@@@@@..--------------",
"--------------oo**$$************OO&&OO##++++..XXXX--------------",
"--------------oo**$$************OO&&OO##++++..XXXX--------------",
"--------------oo******++;;****OOOO$$XX%%####XX####XX------------",
"--------------oo******++;;****OOOO$$XX%%####XX####XX------------",
"--------------oo****$$  ;;**&&&&&&$$**XX####%%XX####XX----------",
"--------------oo****$$  ;;**&&&&&&$$**XX####%%XX####XX----------",
"----------------  &&&&&&&&&&&&&&&&****XX%%%%XX    ##XX----------",
"----------------  &&&&&&&&&&&&&&&&****XX%%%%XX    ##XX----------",
"------------------oooo&&&&&&$$&&&&******XXXX  ----  ------------",
"------------------oooo&&&&&&$$&&&&******XXXX  ----  ------------",
"----------------------      &&&&&&&&****&&&&  ------------------",
"----------------------      &&&&&&&&****&&&&  ------------------",
"------------------------oo  $$&&&&&&oo&&&&oooo------------------",
"------------------------oo  $$&&&&&&oo&&&&oooo------------------",
"----------------------------  &&&&    &&&&  --------------------",
"----------------------------  &&&&    &&&&  --------------------",
"------------------------------    ----    ----------------------",
"------------------------------    ----    ----------------------",
"----------------------------------------------------------------",
"----------------------------------------------------------------",
"----------------------------------------------------------------",
"----------------------------------------------------------------",
"----------------------------------------------------------------",
"----------------------------------------------------------------",
"----------------------------------------------------------------",
"----------------------------------------------------------------",
"----------------------------------------------------------------",
"----------------------------------------------------------------",
"----------------------------------------------------------------",
"----------------------------------------------------------------",
"----------------------------------------------------------------",
"----------------------------------------------------------------",
"----------------------------------------------------------------",
"----------------------------------------------------------------"
};
