/* XPM */
static char *MDAyXzM_[] = {
/* columns rows colors chars-per-pixel */
"64 64 13 1 ",
"  c black",
". c #682028",
"X c #305818",
"o c #284040",
"O c #904020",
"+ c #C85878",
"@ c #60A810",
"# c #408078",
"$ c #88E020",
"% c #48A898",
"& c #68D0C0",
"* c #F080A0",
"= c #B3D6A1",
/* pixels */
"================================================================",
"================================================================",
"================================================================",
"================================================================",
"================================================================",
"================================================================",
"================================================================",
"================================================================",
"================================================================",
"================================================================",
"================================================================",
"================================================================",
"================================================================",
"================================================================",
"========================oooo==========oooo======================",
"========================oooo==========oooo======================",
"======================oo&&%%oo......oo%%&&oo====================",
"======================oo&&%%oo......oo%%&&oo====================",
"======================oo&&&&..**OO++..&&&&oo====================",
"======================oo&&&&..**OO++..&&&&oo====================",
"====================oo%%&&..****++++**..&&%%oo==================",
"====================oo%%&&..****++++**..&&%%oo==================",
"====================oo%%..++********++++..%%oo==================",
"====================oo%%..++********++++..%%oo==================",
"====================XXXX..++++******++++..XXXX==================",
"====================XXXX..++++******++++..XXXX==================",
"================XXXX@@@@  OO++++++++++OO  @@@@XXXX==============",
"================XXXX@@@@  OO++++++++++OO  @@@@XXXX==============",
"==============XX$$$$@@@@@@  OO++++++OO  @@@@@@$$$$XX============",
"==============XX$$$$@@@@@@  OO++++++OO  @@@@@@$$$$XX============",
"==============XXXX$$$$@@  @@XXOOOOOOXX@@  @@$$$$XXXX============",
"==============XXXX$$$$@@  @@XXOOOOOOXX@@  @@$$$$XXXX============",
"==================  @@    @@@@@@XX@@@@@@    @@  ================",
"==================  @@    @@@@@@XX@@@@@@    @@  ================",
"====================  ####  $$@@@@@@$$  ####  ==================",
"====================  ####  $$@@@@@@$$  ####  ==================",
"====================  %%%%%%  $$@@$$  %%%%%%  ==================",
"====================  %%%%%%  $$@@$$  %%%%%%  ==================",
"====================  %%%%%%%%      %%%%%%%%  ==================",
"====================  %%%%%%%%      %%%%%%%%  ==================",
"====================  ##%%  ##%%%%%%##  %%##  ==================",
"====================  ##%%  ##%%%%%%##  %%##  ==================",
"======================                oo####  ==================",
"======================                oo####  ==================",
"========================================    ====================",
"========================================    ====================",
"================================================================",
"================================================================",
"================================================================",
"================================================================",
"================================================================",
"================================================================",
"================================================================",
"================================================================",
"================================================================",
"================================================================",
"================================================================",
"================================================================",
"================================================================",
"================================================================",
"================================================================",
"================================================================",
"================================================================",
"================================================================"
};
