/* XPM */
static char *MDAzXzA_[] = {
/* columns rows colors chars-per-pixel */
"64 64 16 1 ",
"  c black",
". c #682028",
"X c #406030",
"o c #904020",
"O c #60A810",
"+ c #409860",
"@ c #C08028",
"# c #88E020",
"$ c #F8E008",
"% c #E8C070",
"& c #C84880",
"* c #F078A0",
"= c #68D8C0",
"- c #A0A0A0",
"; c #B3D6A1",
": c #E8E8F8",
/* pixels */
";;;;;;;;;;;;;;;;;;;;;;;;;;;;;;;;;;;;;;;;;;;;;;;;;;;;;;;;;;;;;;;;",
";;;;;;;;;;;;;;;;;;;;;;;;;;;;;;;;;;;;;;;;;;;;;;;;;;;;;;;;;;;;;;;;",
";;;;;;;;;;;;;;;;;;;;;;;;;;;;;;;;;;;;;;;;;;;;;;;;;;;;;;;;;;;;;;;;",
";;;;;;;;;;;;;;;;;;;;;;;;;;;;;;;;;;;;;;;;;;;;;;;;;;;;;;;;;;;;;;;;",
";;;;;;;;;;;;;;;;;;;;;;;;;;;;;;;;;;;;;;;;;;;;;;;;;;;;;;;;;;;;;;;;",
";;;;;;;;;;;;;;;;;;;;;;;;;;;;;;;;;;;;;;;;;;;;;;;;;;;;;;;;;;;;;;;;",
";;;;;;;;;;;;;;;;;;;;;;..........;;..........;;;;;;;;;;;;;;;;;;;;",
";;;;;;;;;;;;;;;;;;;;;;..........;;..........;;;;;;;;;;;;;;;;;;;;",
";;;;;;;;;;;;;;;;;;;;..&&&&%%**&&..&&**%%&&&&..;;;;;;;;;;;;;;;;;;",
";;;;;;;;;;;;;;;;;;;;..&&&&%%**&&..&&**%%&&&&..;;;;;;;;;;;;;;;;;;",
";;;;;;;;;;;;;;;;........**&&&&&&..&&&&&&**........;;;;;;;;;;;;;;",
";;;;;;;;;;;;;;;;........**&&&&&&..&&&&&&**........;;;;;;;;;;;;;;",
";;;;;;;;;;;;;;..&&******......$$@@$$......**%%%%&&..;;;;;;;;;;;;",
";;;;;;;;;;;;;;..&&******......$$@@$$......**%%%%&&..;;;;;;;;;;;;",
";;;;;;;;;;;;;;..&&**%%%%**&&$$@@@@@@$$&&********&&..;;;;;;;;;;;;",
";;;;;;;;;;;;;;..&&**%%%%**&&$$@@@@@@$$&&********&&..;;;;;;;;;;;;",
";;;;;;;;;;;;;;  &&&&&&......**$$@@$$**......&&&&&&  ;;;;;;;;;;;;",
";;;;;;;;;;;;;;  &&&&&&......**$$@@$$**......&&&&&&  ;;;;;;;;;;;;",
";;;;;;;;;;;;;;;;  ....&&******&&&&&&**%%**&&....  ;;;;;;;;;;;;;;",
";;;;;;;;;;;;;;;;  ....&&******&&&&&&**%%**&&....  ;;;;;;;;;;;;;;",
";;;;;;;;;;;;;;;;  &&&&**%%%%**&&  &&%%%%****&&&&  ;;;;;;;;;;;;;;",
";;;;;;;;;;;;;;;;  &&&&**%%%%**&&  &&%%%%****&&&&  ;;;;;;;;;;;;;;",
";;;;;;;;;;;;XXXX  &&%%&&**%%&&  oo  &&****&&%%&&  XXXX;;;;;;;;;;",
";;;;;;;;;;;;XXXX  &&%%&&**%%&&  oo  &&****&&%%&&  XXXX;;;;;;;;;;",
";;;;;;;;;;XXOOOOOO  &&&&&&&&  oo@@oo  &&&&&&&&  OOOOOOXX;;;;;;;;",
";;;;;;;;;;XXOOOOOO  &&&&&&&&  oo@@oo  &&&&&&&&  OOOOOOXX;;;;;;;;",
";;;;;;;;XXOOOOOOXXXX  &&&&  XX@@@@@@XX  &&&&  XXXXOOOOOOXX;;;;;;",
";;;;;;;;XXOOOOOOXXXX  &&&&  XX@@@@@@XX  &&&&  XXXXOOOOOOXX;;;;;;",
";;;;;;;;  ##OOOOOOOOOO    OOOOXXXXXXOOOO    OOOOOOOOOO##  ;;;;;;",
";;;;;;;;  ##OOOOOOOOOO    OOOOXXXXXXOOOO    OOOOOOOOOO##  ;;;;;;",
";;;;;;;;;;  ####OOXX  ####OOOOOOXXOOOOOO####  XXOO####  ;;;;;;;;",
";;;;;;;;;;  ####OOXX  ####OOOOOOXXOOOOOO####  XXOO####  ;;;;;;;;",
";;;;;;;;;;XX      ====  OOOOOOOOXXOOOOOOOO  ====      XX;;;;;;;;",
";;;;;;;;;;XX      ====  OOOOOOOOXXOOOOOOOO  ====      XX;;;;;;;;",
";;;;;;;;;;XX--XX  oo==  ##OOOOOOOOXXOOOO##  ==oo  ++++XX;;;;;;;;",
";;;;;;;;;;XX--XX  oo==  ##OOOOOOOOXXOOOO##  ==oo  ++++XX;;;;;;;;",
";;;;;;;;;;;;XXXX  oo====  XX##OOOOOO##XX  ====oo  XX--XX;;;;;;;;",
";;;;;;;;;;;;XXXX  oo====  XX##OOOOOO##XX  ====oo  XX--XX;;;;;;;;",
";;;;;;;;;;;;;;  ++++++====XXXXXXOOXXXXXX====++++++  XX;;;;;;;;;;",
";;;;;;;;;;;;;;  ++++++====XXXXXXOOXXXXXX====++++++  XX;;;;;;;;;;",
";;;;;;;;;;;;;;  ++++==========XXXXXX==========++++  ;;;;;;;;;;;;",
";;;;;;;;;;;;;;  ++++==========XXXXXX==========++++  ;;;;;;;;;;;;",
";;;;;;;;;;;;;;XX++==::==++==============++==::==++XX  ;;;;;;;;;;",
";;;;;;;;;;;;;;XX++==::==++==============++==::==++XX  ;;;;;;;;;;",
";;;;;;;;;;;;  XX  ++::..==================..::++  ++  ;;;;;;;;;;",
";;;;;;;;;;;;  XX  ++::..==================..::++  ++  ;;;;;;;;;;",
";;;;;;;;;;;;  ++XX  ++++==================++++  XX++  ;;;;;;;;;;",
";;;;;;;;;;;;  ++XX  ++++==================++++  XX++  ;;;;;;;;;;",
";;;;;;;;;;;;  ++++    --++====++==++====++--  --++--  ;;;;;;;;;;",
";;;;;;;;;;;;  ++++    --++====++==++====++--  --++--  ;;;;;;;;;;",
";;;;;;;;;;;;  --++--        ++++++++++              ;;;;;;;;;;;;",
";;;;;;;;;;;;  --++--        ++++++++++              ;;;;;;;;;;;;",
";;;;;;;;;;;;;;      ;;;;;;;;          ;;;;;;;;;;;;;;;;;;;;;;;;;;",
";;;;;;;;;;;;;;      ;;;;;;;;          ;;;;;;;;;;;;;;;;;;;;;;;;;;",
";;;;;;;;;;;;;;;;;;;;;;;;;;;;;;;;;;;;;;;;;;;;;;;;;;;;;;;;;;;;;;;;",
";;;;;;;;;;;;;;;;;;;;;;;;;;;;;;;;;;;;;;;;;;;;;;;;;;;;;;;;;;;;;;;;",
";;;;;;;;;;;;;;;;;;;;;;;;;;;;;;;;;;;;;;;;;;;;;;;;;;;;;;;;;;;;;;;;",
";;;;;;;;;;;;;;;;;;;;;;;;;;;;;;;;;;;;;;;;;;;;;;;;;;;;;;;;;;;;;;;;",
";;;;;;;;;;;;;;;;;;;;;;;;;;;;;;;;;;;;;;;;;;;;;;;;;;;;;;;;;;;;;;;;",
";;;;;;;;;;;;;;;;;;;;;;;;;;;;;;;;;;;;;;;;;;;;;;;;;;;;;;;;;;;;;;;;",
";;;;;;;;;;;;;;;;;;;;;;;;;;;;;;;;;;;;;;;;;;;;;;;;;;;;;;;;;;;;;;;;",
";;;;;;;;;;;;;;;;;;;;;;;;;;;;;;;;;;;;;;;;;;;;;;;;;;;;;;;;;;;;;;;;",
";;;;;;;;;;;;;;;;;;;;;;;;;;;;;;;;;;;;;;;;;;;;;;;;;;;;;;;;;;;;;;;;",
";;;;;;;;;;;;;;;;;;;;;;;;;;;;;;;;;;;;;;;;;;;;;;;;;;;;;;;;;;;;;;;;"
};
