/* XPM */
static char *MDAzXzE_[] = {
/* columns rows colors chars-per-pixel */
"64 64 16 1 ",
"  c black",
". c #682028",
"X c #406030",
"o c #904020",
"O c #60A810",
"+ c #409860",
"@ c #C08028",
"# c #88E020",
"$ c #F8E008",
"% c #E8C070",
"& c #C84880",
"* c #F078A0",
"= c #68D8C0",
"- c #A0A0A0",
"; c #B3D6A1",
": c #E8E8F8",
/* pixels */
";;;;;;;;;;;;;;;;;;;;;;;;;;;;;;;;;;;;;;;;;;;;;;;;;;;;;;;;;;;;;;;;",
";;;;;;;;;;;;;;;;;;;;;;;;;;;;;;;;;;;;;;;;;;;;;;;;;;;;;;;;;;;;;;;;",
";;;;;;;;;;;;;;;;;;;;;;;;;;;;;;;;;;;;;;;;;;;;;;;;;;;;;;;;;;;;;;;;",
";;;;;;;;;;;;;;;;;;;;;;;;;;;;;;;;;;;;;;;;;;;;;;;;;;;;;;;;;;;;;;;;",
";;;;;;;;;;;;;;;;;;;;;;;;;;;;;;;;;;;;;;;;;;;;;;;;;;;;;;;;;;;;;;;;",
";;;;;;;;;;;;;;;;;;;;;;;;;;;;;;;;;;;;;;;;;;;;;;;;;;;;;;;;;;;;;;;;",
";;;;;;;;;;;;;;;;..........;;..........;;;;;;;;;;;;;;;;;;;;;;;;;;",
";;;;;;;;;;;;;;;;..........;;..........;;;;;;;;;;;;;;;;;;;;;;;;;;",
";;;;;;;;;;;;;;..&&&&%%**&&..&&**%%&&&&..;;;;;;;;;;;;;;;;;;;;;;;;",
";;;;;;;;;;;;;;..&&&&%%**&&..&&**%%&&&&..;;;;;;;;;;;;;;;;;;;;;;;;",
";;;;;;;;;;........**&&&&&&..&&&&&&**........;;;;;;;;;;;;;;;;;;;;",
";;;;;;;;;;........**&&&&&&..&&&&&&**........;;;;;;;;;;;;;;;;;;;;",
";;;;;;;;..&&%%%%**......$$@@$$......******&&..;;;;;;;;;;;;;;;;;;",
";;;;;;;;..&&%%%%**......$$@@$$......******&&..;;;;;;;;;;;;;;;;;;",
";;;;;;;;..&&********&&$$@@@@@@$$&&**%%%%**&&..;;;;;;;;;;;;;;;;;;",
";;;;;;;;..&&********&&$$@@@@@@$$&&**%%%%**&&..;;;;;;;;;;;;;;;;;;",
";;;;;;;;  &&&&&&......**$$@@$$**......&&&&&&  ;;;;;;;;;;;;;;;;;;",
";;;;;;;;  &&&&&&......**$$@@$$**......&&&&&&  ;;;;;;;;;;;;;;;;;;",
";;;;;;;;;;  ....&&**%%**&&&&&&******&&....  ;;;;;;;;;;;;;;;;;;;;",
";;;;;;;;;;  ....&&**%%**&&&&&&******&&....  ;;;;;;;;;;;;;;;;;;;;",
";;;;;;;;;;  &&&&****%%%%&&  &&**%%%%**&&&&  ;;;;;;;;;;;;;;;;;;;;",
";;;;;;;;;;  &&&&****%%%%&&  &&**%%%%**&&&&  ;;;;;;;;;;;;;;;;;;;;",
";;;;;;;;;;  &&%%&&****&&  oo  &&%%**&&%%&&  XX;;;;;;;;;;;;;;;;;;",
";;;;;;;;;;  &&%%&&****&&  oo  &&%%**&&%%&&  XX;;;;;;;;;;;;;;;;;;",
";;;;;;;;;;;;  &&&&&&&&  oo@@oo  &&&&&&&&  OOOOXX;;;;;;;;;;;;;;;;",
";;;;;;;;;;;;  &&&&&&&&  oo@@oo  &&&&&&&&  OOOOXX;;;;;;;;;;;;;;;;",
";;;;;;;;;;XXXX  &&&&  XX@@@@@@XX......  XXOOOOOOXXXX;;;;;;;;;;;;",
";;;;;;;;;;XXXX  &&&&  XX@@@@@@XX......  XXOOOOOOXXXX;;;;;;;;;;;;",
";;;;;;;;XXOOOOXX    OOOOXXXXXXOOXXOOOOOOOOOOOO##  ++XX;;;;;;;;;;",
";;;;;;;;XXOOOOXX    OOOOXXXXXXOOXXOOOOOOOOOOOO##  ++XX;;;;;;;;;;",
";;;;;;XXOOOOXXOOXX##OOOOOOXXOOOO##    OO####OO  ====++XX;;;;;;;;",
";;;;;;XXOOOOXXOOXX##OOOOOOXXOOOO##    OO####OO  ====++XX;;;;;;;;",
";;;;;;  ##OOOOOO  OOOOOOOOXXOOOO  ====        ========XX;;;;;;;;",
";;;;;;  ##OOOOOO  OOOOOOOOXXOOOO  ====        ========XX;;;;;;;;",
";;;;;;  ####OOXX  ##OOOOXXOOOOOO  oooo==================XX;;;;;;",
";;;;;;  ####OOXX  ##OOOOXXOOOOOO  oooo==================XX;;;;;;",
";;;;;;;;      ++XX  XX##OOOOOO##XXoo==========++========XX;;;;;;",
";;;;;;;;      ++XX  XX##OOOOOO##XXoo==========++========XX;;;;;;",
";;;;;;;;;;;;XX++====XXXXXXOOXXXX++========::==++========XX;;;;;;",
";;;;;;;;;;;;XX++====XXXXXXOOXXXX++========::==++========XX;;;;;;",
";;;;;;;;;;;;  ==========XXXXXX============::..========XX;;;;;;;;",
";;;;;;;;;;;;  ==========XXXXXX============::..========XX;;;;;;;;",
";;;;;;;;;;;;  ======================================++  ;;;;;;;;",
";;;;;;;;;;;;  ======================================++  ;;;;;;;;",
";;;;;;;;;;  ++======================++======++--++    ;;;;;;;;;;",
";;;;;;;;;;  ++======================++======++--++    ;;;;;;;;;;",
";;;;;;;;;;  ++++======++XXXX++======++XXXX        ;;;;;;;;;;;;;;",
";;;;;;;;;;  ++++======++XXXX++======++XXXX        ;;;;;;;;;;;;;;",
";;;;;;;;;;XX++--++--    ;;;;  ++--==--  ;;;;;;;;;;;;;;;;;;;;;;;;",
";;;;;;;;;;XX++--++--    ;;;;  ++--==--  ;;;;;;;;;;;;;;;;;;;;;;;;",
";;;;;;;;;;;;        ;;;;;;;;;;        ;;;;;;;;;;;;;;;;;;;;;;;;;;",
";;;;;;;;;;;;        ;;;;;;;;;;        ;;;;;;;;;;;;;;;;;;;;;;;;;;",
";;;;;;;;;;;;;;;;;;;;;;;;;;;;;;;;;;;;;;;;;;;;;;;;;;;;;;;;;;;;;;;;",
";;;;;;;;;;;;;;;;;;;;;;;;;;;;;;;;;;;;;;;;;;;;;;;;;;;;;;;;;;;;;;;;",
";;;;;;;;;;;;;;;;;;;;;;;;;;;;;;;;;;;;;;;;;;;;;;;;;;;;;;;;;;;;;;;;",
";;;;;;;;;;;;;;;;;;;;;;;;;;;;;;;;;;;;;;;;;;;;;;;;;;;;;;;;;;;;;;;;",
";;;;;;;;;;;;;;;;;;;;;;;;;;;;;;;;;;;;;;;;;;;;;;;;;;;;;;;;;;;;;;;;",
";;;;;;;;;;;;;;;;;;;;;;;;;;;;;;;;;;;;;;;;;;;;;;;;;;;;;;;;;;;;;;;;",
";;;;;;;;;;;;;;;;;;;;;;;;;;;;;;;;;;;;;;;;;;;;;;;;;;;;;;;;;;;;;;;;",
";;;;;;;;;;;;;;;;;;;;;;;;;;;;;;;;;;;;;;;;;;;;;;;;;;;;;;;;;;;;;;;;",
";;;;;;;;;;;;;;;;;;;;;;;;;;;;;;;;;;;;;;;;;;;;;;;;;;;;;;;;;;;;;;;;",
";;;;;;;;;;;;;;;;;;;;;;;;;;;;;;;;;;;;;;;;;;;;;;;;;;;;;;;;;;;;;;;;",
";;;;;;;;;;;;;;;;;;;;;;;;;;;;;;;;;;;;;;;;;;;;;;;;;;;;;;;;;;;;;;;;",
";;;;;;;;;;;;;;;;;;;;;;;;;;;;;;;;;;;;;;;;;;;;;;;;;;;;;;;;;;;;;;;;"
};
