/* XPM */
static char *MDAzXzI_[] = {
/* columns rows colors chars-per-pixel */
"64 64 16 1 ",
"  c black",
". c #682028",
"X c #406030",
"o c #904020",
"O c #60A810",
"+ c #409860",
"@ c #C08028",
"# c #88E020",
"$ c #F8E008",
"% c #E8C070",
"& c #C84880",
"* c #F078A0",
"= c #68D8C0",
"- c #A0A0A0",
"; c #B3D6A1",
": c #E8E8F8",
/* pixels */
";;;;;;;;;;;;;;;;;;;;;;;;;;;;;;;;;;;;;;;;;;;;;;;;;;;;;;;;;;;;;;;;",
";;;;;;;;;;;;;;;;;;;;;;;;;;;;;;;;;;;;;;;;;;;;;;;;;;;;;;;;;;;;;;;;",
";;;;;;;;;;;;;;;;;;;;;;;;;;;;;;;;;;;;;;;;;;;;;;;;;;;;;;;;;;;;;;;;",
";;;;;;;;;;;;;;;;;;;;;;;;;;;;;;;;;;;;;;;;;;;;;;;;;;;;;;;;;;;;;;;;",
";;;;;;;;;;;;;;;;;;;;;;;;;;;;;;;;;;;;;;;;;;;;;;;;;;;;;;;;;;;;;;;;",
";;;;;;;;;;;;;;;;;;;;;;;;;;;;;;;;;;;;;;;;;;;;;;;;;;;;;;;;;;;;;;;;",
";;;;;;;;;;;;;;;;;;;;;;;;;;;;;;;;;;;;;;;;;;;;;;;;;;;;;;;;;;;;;;;;",
";;;;;;;;;;;;;;;;;;;;;;;;;;;;;;;;;;;;;;;;;;;;;;;;;;;;;;;;;;;;;;;;",
";;;;;;;;;;;;;;;;;;;;;;;;;;..........;;..........;;;;;;;;;;;;;;;;",
";;;;;;;;;;;;;;;;;;;;;;;;;;..........;;..........;;;;;;;;;;;;;;;;",
";;;;;;;;;;;;;;;;;;;;;;;;..&&&&%%**&&..&&**%%&&&&..;;;;;;;;;;;;;;",
";;;;;;;;;;;;;;;;;;;;;;;;..&&&&%%**&&..&&**%%&&&&..;;;;;;;;;;;;;;",
";;;;;;;;;;;;;;;;;;;;........**&&&&&&..&&&&&&**........;;;;;;;;;;",
";;;;;;;;;;;;;;;;;;;;........**&&&&&&..&&&&&&**........;;;;;;;;;;",
";;;;;;;;;;;;;;;;;;..&&******......$$@@$$......**%%%%&&..;;;;;;;;",
";;;;;;;;;;;;;;;;;;..&&******......$$@@$$......**%%%%&&..;;;;;;;;",
";;;;;;;;;;;;;;;;;;..&&**%%%%**&&$$@@@@@@$$&&********&&..;;;;;;;;",
";;;;;;;;;;;;;;;;;;..&&**%%%%**&&$$@@@@@@$$&&********&&..;;;;;;;;",
";;;;;;;;;;;;;;;;;;  &&&&&&......**$$@@$$**......&&&&&&  ;;;;;;;;",
";;;;;;;;;;;;;;;;;;  &&&&&&......**$$@@$$**......&&&&&&  ;;;;;;;;",
";;;;;;;;;;;;;;;;;;;;  ....&&******&&&&&&**%%**&&....  ;;;;;;;;;;",
";;;;;;;;;;;;;;;;;;;;  ....&&******&&&&&&**%%**&&....  ;;;;;;;;;;",
";;;;;;;;;;;;;;;;;;;;  &&&&**%%%%**&&  &&%%%%****&&&&  ;;;;;;;;;;",
";;;;;;;;;;;;;;;;;;;;  &&&&**%%%%**&&  &&%%%%****&&&&  ;;;;;;;;;;",
";;;;;;;;;;;;;;;;;;XX  &&%%&&**%%&&  oo  &&****&&%%&&  ;;;;;;;;;;",
";;;;;;;;;;;;;;;;;;XX  &&%%&&**%%&&  oo  &&****&&%%&&  ;;;;;;;;;;",
";;;;;;;;;;;;;;;;XXOOOO  &&&&&&&&  oo@@oo  &&&&&&&&  ;;;;;;;;;;;;",
";;;;;;;;;;;;;;;;XXOOOO  &&&&&&&&  oo@@oo  &&&&&&&&  ;;;;;;;;;;;;",
";;;;;;;;;;;;XXXXOOOOOOXX  ......XX@@@@@@XX  &&&&  XXXX;;;;;;;;;;",
";;;;;;;;;;;;XXXXOOOOOOXX  ......XX@@@@@@XX  &&&&  XXXX;;;;;;;;;;",
";;;;;;;;;;XX++  ##OOOOOOOOOOOOXXOOXXXXXXOOOO    XXOOOOXX;;;;;;;;",
";;;;;;;;;;XX++  ##OOOOOOOOOOOOXXOOXXXXXXOOOO    XXOOOOXX;;;;;;;;",
";;;;;;;;XX++====  OO####OO    ##OOOOXXOOOOOO##XXOOXXOOOOXX;;;;;;",
";;;;;;;;XX++====  OO####OO    ##OOOOXXOOOOOO##XXOOXXOOOOXX;;;;;;",
";;;;;;;;XX========        ====  OOOOXXOOOOOOOO  OOOOOO##  ;;;;;;",
";;;;;;;;XX========        ====  OOOOXXOOOOOOOO  OOOOOO##  ;;;;;;",
";;;;;;XX==================oooo  OOOOOOXXOOOO##  XXOO####  ;;;;;;",
";;;;;;XX==================oooo  OOOOOOXXOOOO##  XXOO####  ;;;;;;",
";;;;;;XX========++==========ooXX##OOOOOO##XX  XX++      ;;;;;;;;",
";;;;;;XX========++==========ooXX##OOOOOO##XX  XX++      ;;;;;;;;",
";;;;;;XX========++==::========++XXXXOOXXXXXX====++XX;;;;;;;;;;;;",
";;;;;;XX========++==::========++XXXXOOXXXXXX====++XX;;;;;;;;;;;;",
";;;;;;;;XX========..::============XXXXXX==========  ;;;;;;;;;;;;",
";;;;;;;;XX========..::============XXXXXX==========  ;;;;;;;;;;;;",
";;;;;;;;  ++======================================  ;;;;;;;;;;;;",
";;;;;;;;  ++======================================  ;;;;;;;;;;;;",
";;;;;;;;;;    ++--++======++======================++  ;;;;;;;;;;",
";;;;;;;;;;    ++--++======++======================++  ;;;;;;;;;;",
";;;;;;;;;;;;;;        XXXX++======++XXXX++======++++  ;;;;;;;;;;",
";;;;;;;;;;;;;;        XXXX++======++XXXX++======++++  ;;;;;;;;;;",
";;;;;;;;;;;;;;;;;;;;;;;;  --==--++  ;;;;    --++--++XX;;;;;;;;;;",
";;;;;;;;;;;;;;;;;;;;;;;;  --==--++  ;;;;    --++--++XX;;;;;;;;;;",
";;;;;;;;;;;;;;;;;;;;;;;;;;        ;;;;;;;;;;        ;;;;;;;;;;;;",
";;;;;;;;;;;;;;;;;;;;;;;;;;        ;;;;;;;;;;        ;;;;;;;;;;;;",
";;;;;;;;;;;;;;;;;;;;;;;;;;;;;;;;;;;;;;;;;;;;;;;;;;;;;;;;;;;;;;;;",
";;;;;;;;;;;;;;;;;;;;;;;;;;;;;;;;;;;;;;;;;;;;;;;;;;;;;;;;;;;;;;;;",
";;;;;;;;;;;;;;;;;;;;;;;;;;;;;;;;;;;;;;;;;;;;;;;;;;;;;;;;;;;;;;;;",
";;;;;;;;;;;;;;;;;;;;;;;;;;;;;;;;;;;;;;;;;;;;;;;;;;;;;;;;;;;;;;;;",
";;;;;;;;;;;;;;;;;;;;;;;;;;;;;;;;;;;;;;;;;;;;;;;;;;;;;;;;;;;;;;;;",
";;;;;;;;;;;;;;;;;;;;;;;;;;;;;;;;;;;;;;;;;;;;;;;;;;;;;;;;;;;;;;;;",
";;;;;;;;;;;;;;;;;;;;;;;;;;;;;;;;;;;;;;;;;;;;;;;;;;;;;;;;;;;;;;;;",
";;;;;;;;;;;;;;;;;;;;;;;;;;;;;;;;;;;;;;;;;;;;;;;;;;;;;;;;;;;;;;;;",
";;;;;;;;;;;;;;;;;;;;;;;;;;;;;;;;;;;;;;;;;;;;;;;;;;;;;;;;;;;;;;;;",
";;;;;;;;;;;;;;;;;;;;;;;;;;;;;;;;;;;;;;;;;;;;;;;;;;;;;;;;;;;;;;;;"
};
