/* XPM */
static char *MDAzXzM_[] = {
/* columns rows colors chars-per-pixel */
"64 64 14 1 ",
"  c black",
". c #682028",
"X c #406030",
"o c #904020",
"O c #60A810",
"+ c #409860",
"@ c #C08028",
"# c #88E020",
"$ c #F8E008",
"% c #E8C070",
"& c #C84880",
"* c #F078A0",
"= c #68D8C0",
"- c #B3D6A1",
/* pixels */
"----------------------------------------------------------------",
"----------------------------------------------------------------",
"----------------------------------------------------------------",
"----------------------------------------------------------------",
"----------------------------------------------------------------",
"----------------------------------------------------------------",
"----------------------------------------------------------------",
"----------------------------------------------------------------",
"----------------------------------------------------------------",
"----------------------------------------------------------------",
"----------------------..........--..........--------------------",
"----------------------..........--..........--------------------",
"--------------------..&&&&%%**&&..&&**%%&&&&..------------------",
"--------------------..&&&&%%**&&..&&**%%&&&&..------------------",
"----------------........****&&&&&&&&&&****........--------------",
"----------------........****&&&&&&&&&&****........--------------",
"--------------..&&******....&&$$@@$$&&....**%%%%&&..------------",
"--------------..&&******....&&$$@@$$&&....**%%%%&&..------------",
"--------------..&&**%%%%**&&$$@@@@@@$$&&********&&..------------",
"--------------..&&**%%%%**&&$$@@@@@@$$&&********&&..------------",
"--------------..&&&&&&......**$$@@$$**......&&&&&&..------------",
"--------------..&&&&&&......**$$@@$$**......&&&&&&..------------",
"--------------    ....&&******&&&&&&**%%**&&....    ------------",
"--------------    ....&&******&&&&&&**%%**&&....    ------------",
"----------XXXXXX  &&&&**%%%%**&&  &&%%%%****&&&&  XXXXXX--------",
"----------XXXXXX  &&&&**%%%%**&&  &&%%%%****&&&&  XXXXXX--------",
"--------XXOOOOOO  &&%%&&**%%&&  oo  &&****&&%%&&  OOOOOOXX------",
"--------XXOOOOOO  &&%%&&**%%&&  oo  &&****&&%%&&  OOOOOOXX------",
"------XXOOOOOOXXXX  &&&&&&&&  oo@@oo  &&&&&&&&  XXXXOOOOOOXX----",
"------XXOOOOOOXXXX  &&&&&&&&  oo@@oo  &&&&&&&&  XXXXOOOOOOXX----",
"------XX##OOOOOOOOOO  &&&&  XX@@@@@@XX  &&&&  OOOOOOOOOO##XX----",
"------XX##OOOOOOOOOO  &&&&  XX@@@@@@XX  &&&&  OOOOOOOOOO##XX----",
"--------XX####OOOO  XX    OOOOXXXXXXOOOO    XX  OOOO####XX------",
"--------XX####OOOO  XX    OOOOXXXXXXOOOO    XX  OOOO####XX------",
"----------XXXXXX  ++XXOOOOOOOOOOXXOOOOOOOOOOXX++  XXXXXX--------",
"----------XXXXXX  ++XXOOOOOOOOOOXXOOOOOOOOOOXX++  XXXXXX--------",
"--------------  ++==XX####OOOOOOXXOOOOOO####XX==++XX------------",
"--------------  ++==XX####OOOOOOXXOOOOOO####XX==++XX------------",
"--------------  ======  OOOOOOOOXXOOOOOOOO  ======  ------------",
"--------------  ======  OOOOOOOOXXOOOOOOOO  ======  ------------",
"--------------  ======  ##OOOOOOOOXXOOOO##  ======++  ----------",
"--------------  ======  ##OOOOOOOOXXOOOO##  ======++  ----------",
"------------  ++========  XX##OOOOOO##XX  ========++  ----------",
"------------  ++========  XX##OOOOOO##XX  ========++  ----------",
"------------  ++========++XXXXXXOOXXXXXX++++====++++  ----------",
"------------  ++========++XXXXXXOOXXXXXX++++====++++  ----------",
"------------  ++++====++++++++XXXXXX++++++++++++++++  ----------",
"------------  ++++====++++++++XXXXXX++++++++++++++++  ----------",
"------------  ++++++++  XX++++++++++++++XX  ++++++  ------------",
"------------  ++++++++  XX++++++++++++++XX  ++++++  ------------",
"--------------  ++++++XX--              --XX      --------------",
"--------------  ++++++XX--              --XX      --------------",
"----------------      ------------------------------------------",
"----------------      ------------------------------------------",
"----------------------------------------------------------------",
"----------------------------------------------------------------",
"----------------------------------------------------------------",
"----------------------------------------------------------------",
"----------------------------------------------------------------",
"----------------------------------------------------------------",
"----------------------------------------------------------------",
"----------------------------------------------------------------",
"----------------------------------------------------------------",
"----------------------------------------------------------------"
};
