/* XPM */
static char *result[] = {
/* columns rows colors chars-per-pixel */
"64 64 9 1 ",
"  c black",
". c #604020",
"X c #284858",
"o c #B85820",
"O c #F88838",
"+ c #D8A830",
"@ c #F0D070",
"# c #B3D6A1",
"$ c #E8E8F8",
/* pixels */
"################################################################",
"################################################################",
"################################################################",
"################################################################",
"################################################################",
"################################################################",
"################################################################",
"################################################################",
"################################################################",
"################################################################",
"################################################################",
"################################################################",
"################################################################",
"################################################################",
"################################################################",
"################################################################",
"############################..........##########################",
"############################..........##########################",
"##########################..OOOOOOOOOO..########################",
"##########################..OOOOOOOOOO..########################",
"########################..ooOOOOOOOOOOoo..######################",
"########################..ooOOOOOOOOOOoo..######################",
"########################..OOOOOOOOOOOOOO..######################",
"########################..OOOOOOOOOOOOOO..######################",
"########################..OOooOOOOOOooOO..######################",
"########################..OOooOOOOOOooOO..######################",
"######################..oo$$OOOOOOOOOO$$oo..####################",
"######################..oo$$OOOOOOOOOO$$oo..####################",
"######################..ooXXOOOOOOOOOOXXoo..####################",
"######################..ooXXOOOOOOOOOOXXoo..####################",
"######################  ooXXOOOOOOOOOOXXoo  ####################",
"######################  ooXXOOOOOOOOOOXXoo  ####################",
"########################  ooooOOOOOOoooo  ######################",
"########################  ooooOOOOOOoooo  ######################",
"########################..  oooooooooo  ..######################",
"########################..  oooooooooo  ..######################",
"########################  oo          oo  ######################",
"########################  oo          oo  ######################",
"########################  oo..++@@++..oo  ######################",
"########################  oo..++@@++..oo  ######################",
"######################..oo    @@@@@@    oo..####################",
"######################..oo    @@@@@@    oo..####################",
"######################..oooo++@@@@@@++oooo..####################",
"######################..oooo++@@@@@@++oooo..####################",
"########################      ......  oooo..####################",
"########################      ......  oooo..####################",
"######################################    ######################",
"######################################    ######################",
"################################################################",
"################################################################",
"################################################################",
"################################################################",
"################################################################",
"################################################################",
"################################################################",
"################################################################",
"################################################################",
"################################################################",
"################################################################",
"################################################################",
"################################################################",
"################################################################",
"################################################################",
"################################################################"
};
