/* XPM */
static char *result[] = {
/* columns rows colors chars-per-pixel */
"64 64 10 1 ",
"  c black",
". c #604020",
"X c #284858",
"o c #E02828",
"O c #B85820",
"+ c #F88838",
"@ c #D8A830",
"# c #F0D070",
"$ c #B3D6A1",
"% c #E8E8F8",
/* pixels */
"$$$$$$$$$$$$$$$$$$$$$$$$$$$$$$$$$$$$$$$$$$$$$$$$$$$$$$$$$$$$$$$$",
"$$$$$$$$$$$$$$$$$$$$$$$$$$$$$$$$$$$$$$$$$$$$$$$$$$$$$$$$$$$$$$$$",
"$$$$$$$$$$$$$$$$$$$$$$$$$$$$$$$$$$$$$$$$$$$$$$$$$$$$$$$$$$$$$$$$",
"$$$$$$$$$$$$$$$$$$$$$$$$$$$$$$$$$$$$$$$$$$$$$$$$$$$$$$$$$$$$$$$$",
"$$$$$$$$$$$$$$$$$$$$$$$$$$$$$$$$$$$$$$$$$$$$$$$$$$$$$$$$$$$$$$$$",
"$$$$$$$$$$$$$$$$$$$$$$$$$$$$$$$$$$$$$$$$$$$$$$$$$$$$$$$$$$$$$$$$",
"$$$$$$$$$$$$$$$$$$$$$$$$$$$$$$$$$$$$$$$$$$$$$$$$$$$$$$$$$$$$$$$$",
"$$$$$$$$$$$$$$$$$$$$$$$$$$$$$$$$$$$$$$$$$$$$$$$$$$$$$$$$$$$$$$$$",
"$$$$$$$$$$$$$$$$$$$$$$$$$$$$$$$$$$$$$$$$$$$$$$$$$$$$$$$$$$$$$$$$",
"$$$$$$$$$$$$$$$$$$$$$$$$$$$$$$$$$$$$$$$$$$$$$$$$$$$$$$$$$$$$$$$$",
"$$$$$$$$$$$$$$$$$$$$$$$$$$$$$$$$$$$$$$$$$$$$$$$$$$$$$$$$$$$$$$$$",
"$$$$$$$$$$$$$$$$$$$$$$$$$$$$$$$$$$$$$$$$$$$$$$$$$$$$$$$$$$$$$$$$",
"$$$$$$$$$$$$$$$$$$$$$$$$$$$$$$$$$$$$$$$$$$$$$$$$$$$$$$$$$$$$$$$$",
"$$$$$$$$$$$$$$$$$$$$$$$$$$$$$$$$$$$$$$$$$$$$$$$$$$$$$$$$$$$$$$$$",
"$$$$$$$$$$$$$$$$$$$$$$$$$$$$$$$$$$$$$$$$$$$$$$$$$$$$$$$$$$$$$$$$",
"$$$$$$$$$$$$$$$$$$$$$$$$$$$$$$$$$$$$$$$$$$$$$$$$$$$$$$$$$$$$$$$$",
"$$$$$$$$$$$$$$$$$$$$$$$$$$$$$$$$$$$$$$$$$$$$$$$$$$$$$$$$$$$$$$$$",
"$$$$$$$$$$$$$$$$$$$$$$$$$$$$$$$$$$$$$$$$$$$$$$$$$$$$$$$$$$$$$$$$",
"$$$$$$$$$$$$$$$$$$$$$$$$$$$$$$$$$$$$........$$$$$$$$$$$$$$$$$$$$",
"$$$$$$$$$$$$$$$$$$$$$$$$$$$$$$$$$$$$........$$$$$$$$$$$$$$$$$$$$",
"$$$$$$$$$$$$$$$$$$$$oo$$$$$$$$$$$$..++++++++..$$$$$$$$$$$$$$$$$$",
"$$$$$$$$$$$$$$$$$$$$oo$$$$$$$$$$$$..++++++++..$$$$$$$$$$$$$$$$$$",
"$$$$$$$$$$$$$$$$$$$$oo$$$$$$$$$$..++++++++++++..$$$$$$$$$$$$$$$$",
"$$$$$$$$$$$$$$$$$$$$oo$$$$$$$$$$..++++++++++++..$$$$$$$$$$$$$$$$",
"$$$$$$$$$$$$$$$$$$oooo$$$$$$$$$$..++++++++++++OO$$$$$$$$$$$$$$$$",
"$$$$$$$$$$$$$$$$$$oooo$$$$$$$$$$..++++++++++++OO$$$$$$$$$$$$$$$$",
"$$$$$$$$$$$$$$$$$$oooooo$$$$$$..++++++++++++OO++..$$$$$$$$$$$$$$",
"$$$$$$$$$$$$$$$$$$oooooo$$$$$$..++++++++++++OO++..$$$$$$$$$$$$$$",
"$$$$$$$$$$$$$$$$oooo##oo$$$$$$..++++++++++%%OO++..$$$$$$$$$$$$$$",
"$$$$$$$$$$$$$$$$oooo##oo$$$$$$..++++++++++%%OO++..$$$$$$$$$$$$$$",
"$$$$$$$$$$$$$$$$oo####oo$$$$$$..++++++++++XX++++++..$$$$$$$$$$$$",
"$$$$$$$$$$$$$$$$oo####oo$$$$$$..++++++++++XX++++++..$$$$$$$$$$$$",
"$$$$$$$$$$$$$$$$..##oo$$$$$$..++++++++++++XX++++++  $$$$$$$$$$$$",
"$$$$$$$$$$$$$$$$..##oo$$$$$$..++++++++++++XX++++++  $$$$$$$$$$$$",
"$$$$$$$$$$$$$$$$  OO..$$$$$$..++++++OO..++++++OO  $$$$$$$$$$$$$$",
"$$$$$$$$$$$$$$$$  OO..$$$$$$..++++++OO..++++++OO  $$$$$$$$$$$$$$",
"$$$$$$$$$$$$$$$$  OOOO......++++++OO++OO..    ..$$$$$$$$$$$$$$$$",
"$$$$$$$$$$$$$$$$  OOOO......++++++OO++OO..    ..$$$$$$$$$$$$$$$$",
"$$$$$$$$$$$$$$$$$$  OOOO++++++++++..++++OO..$$$$$$$$$$$$$$$$$$$$",
"$$$$$$$$$$$$$$$$$$  OOOO++++++++++..++++OO..$$$$$$$$$$$$$$$$$$$$",
"$$$$$$$$$$$$$$$$$$  OOOOOOOO++++++++        $$$$$$$$$$$$$$$$$$$$",
"$$$$$$$$$$$$$$$$$$  OOOOOOOO++++++++        $$$$$$$$$$$$$$$$$$$$",
"$$$$$$$$$$$$$$$$$$$$    OOOOOOOO++++OO@@..$$$$$$$$$$$$$$$$$$$$$$",
"$$$$$$$$$$$$$$$$$$$$    OOOOOOOO++++OO@@..$$$$$$$$$$$$$$$$$$$$$$",
"$$$$$$$$$$$$$$$$$$$$$$$$    ....OOOOOOOO..$$$$$$$$$$$$$$$$$$$$$$",
"$$$$$$$$$$$$$$$$$$$$$$$$    ....OOOOOOOO..$$$$$$$$$$$$$$$$$$$$$$",
"$$$$$$$$$$$$$$$$$$$$$$$$$$$$$$..  OOOO..$$$$$$$$$$$$$$$$$$$$$$$$",
"$$$$$$$$$$$$$$$$$$$$$$$$$$$$$$..  OOOO..$$$$$$$$$$$$$$$$$$$$$$$$",
"$$$$$$$$$$$$$$$$$$$$$$$$$$$$$$$$$$      $$$$$$$$$$$$$$$$$$$$$$$$",
"$$$$$$$$$$$$$$$$$$$$$$$$$$$$$$$$$$      $$$$$$$$$$$$$$$$$$$$$$$$",
"$$$$$$$$$$$$$$$$$$$$$$$$$$$$$$$$$$$$$$$$$$$$$$$$$$$$$$$$$$$$$$$$",
"$$$$$$$$$$$$$$$$$$$$$$$$$$$$$$$$$$$$$$$$$$$$$$$$$$$$$$$$$$$$$$$$",
"$$$$$$$$$$$$$$$$$$$$$$$$$$$$$$$$$$$$$$$$$$$$$$$$$$$$$$$$$$$$$$$$",
"$$$$$$$$$$$$$$$$$$$$$$$$$$$$$$$$$$$$$$$$$$$$$$$$$$$$$$$$$$$$$$$$",
"$$$$$$$$$$$$$$$$$$$$$$$$$$$$$$$$$$$$$$$$$$$$$$$$$$$$$$$$$$$$$$$$",
"$$$$$$$$$$$$$$$$$$$$$$$$$$$$$$$$$$$$$$$$$$$$$$$$$$$$$$$$$$$$$$$$",
"$$$$$$$$$$$$$$$$$$$$$$$$$$$$$$$$$$$$$$$$$$$$$$$$$$$$$$$$$$$$$$$$",
"$$$$$$$$$$$$$$$$$$$$$$$$$$$$$$$$$$$$$$$$$$$$$$$$$$$$$$$$$$$$$$$$",
"$$$$$$$$$$$$$$$$$$$$$$$$$$$$$$$$$$$$$$$$$$$$$$$$$$$$$$$$$$$$$$$$",
"$$$$$$$$$$$$$$$$$$$$$$$$$$$$$$$$$$$$$$$$$$$$$$$$$$$$$$$$$$$$$$$$",
"$$$$$$$$$$$$$$$$$$$$$$$$$$$$$$$$$$$$$$$$$$$$$$$$$$$$$$$$$$$$$$$$",
"$$$$$$$$$$$$$$$$$$$$$$$$$$$$$$$$$$$$$$$$$$$$$$$$$$$$$$$$$$$$$$$$",
"$$$$$$$$$$$$$$$$$$$$$$$$$$$$$$$$$$$$$$$$$$$$$$$$$$$$$$$$$$$$$$$$",
"$$$$$$$$$$$$$$$$$$$$$$$$$$$$$$$$$$$$$$$$$$$$$$$$$$$$$$$$$$$$$$$$"
};
