/* XPM */
static char *result[] = {
/* columns rows colors chars-per-pixel */
"64 64 10 1 ",
"  c black",
". c #604020",
"X c #284858",
"o c #E02828",
"O c #B85820",
"+ c #F88838",
"@ c #D8A830",
"# c #F0D070",
"$ c #B3D6A1",
"% c #E8E8F8",
/* pixels */
"$$$$$$$$$$$$$$$$$$$$$$$$$$$$$$$$$$$$$$$$$$$$$$$$$$$$$$$$$$$$$$$$",
"$$$$$$$$$$$$$$$$$$$$$$$$$$$$$$$$$$$$$$$$$$$$$$$$$$$$$$$$$$$$$$$$",
"$$$$$$$$$$$$$$$$$$$$$$$$$$$$$$$$$$$$$$$$$$$$$$$$$$$$$$$$$$$$$$$$",
"$$$$$$$$$$$$$$$$$$$$$$$$$$$$$$$$$$$$$$$$$$$$$$$$$$$$$$$$$$$$$$$$",
"$$$$$$$$$$$$$$$$$$$$$$$$$$$$$$$$$$$$$$$$$$$$$$$$$$$$$$$$$$$$$$$$",
"$$$$$$$$$$$$$$$$$$$$$$$$$$$$$$$$$$$$$$$$$$$$$$$$$$$$$$$$$$$$$$$$",
"$$$$$$$$$$$$$$$$$$$$$$$$$$$$$$$$$$$$$$$$$$$$$$$$$$$$$$$$$$$$$$$$",
"$$$$$$$$$$$$$$$$$$$$$$$$$$$$$$$$$$$$$$$$$$$$$$$$$$$$$$$$$$$$$$$$",
"$$$$$$$$$$$$$$$$$$$$$$$$$$$$$$$$$$$$$$$$$$$$$$$$$$$$$$$$$$$$$$$$",
"$$$$$$$$$$$$$$$$$$$$$$$$$$$$$$$$$$$$$$$$$$$$$$$$$$$$$$$$$$$$$$$$",
"$$$$$$$$$$$$$$$$$$$$$$$$$$$$$$$$$$$$$$$$$$$$$$$$$$$$$$$$$$$$$$$$",
"$$$$$$$$$$$$$$$$$$$$$$$$$$$$$$$$$$$$$$$$$$$$$$$$$$$$$$$$$$$$$$$$",
"$$$$$$$$$$$$$$$$$$$$$$$$$$$$$$$$$$$$$$$$$$$$$$$$$$$$$$$$$$$$$$$$",
"$$$$$$$$$$$$$$$$$$$$$$$$$$$$$$$$$$$$$$$$$$$$$$$$$$$$$$$$$$$$$$$$",
"$$$$$$$$$$$$$$$$$$$$$$$$$$$$$$$$$$$$$$$$$$$$$$$$$$$$$$$$$$$$$$$$",
"$$$$$$$$$$$$$$$$$$$$$$$$$$$$$$$$$$$$$$$$$$$$$$$$$$$$$$$$$$$$$$$$",
"$$$$$$$$$$$$$$$$$$$$$$........$$$$$$$$$$$$$$$$$$$$$$$$$$$$$$$$$$",
"$$$$$$$$$$$$$$$$$$$$$$........$$$$$$$$$$$$$$$$$$$$$$$$$$$$$$$$$$",
"$$$$$$$$$$$$$$$$$$$$..++++++++..$$$$$$$$$$$$$$$$oo$$$$$$$$$$$$$$",
"$$$$$$$$$$$$$$$$$$$$..++++++++..$$$$$$$$$$$$$$$$oo$$$$$$$$$$$$$$",
"$$$$$$$$$$$$$$$$$$..++++++++++++..$$$$$$$$$$$$oooo$$$$$$$$$$$$$$",
"$$$$$$$$$$$$$$$$$$..++++++++++++..$$$$$$$$$$$$oooo$$$$$$$$$$$$$$",
"$$$$$$$$$$$$$$$$$$OO++++++++++++..$$$$$$$$$$$$oo##$$$$$$$$$$$$$$",
"$$$$$$$$$$$$$$$$$$OO++++++++++++..$$$$$$$$$$$$oo##$$$$$$$$$$$$$$",
"$$$$$$$$$$$$$$$$..++OO++++++++++++..$$$$$$$$oooooooo$$$$$$$$$$$$",
"$$$$$$$$$$$$$$$$..++OO++++++++++++..$$$$$$$$oooooooo$$$$$$$$$$$$",
"$$$$$$$$$$$$$$$$..++OO%%++++++++++..$$$$$$$$oo####oo$$$$$$$$$$$$",
"$$$$$$$$$$$$$$$$..++OO%%++++++++++..$$$$$$$$oo####oo$$$$$$$$$$$$",
"$$$$$$$$$$$$$$..++++++XX++++++++++..$$$$$$$$oo##oo$$$$$$$$$$$$$$",
"$$$$$$$$$$$$$$..++++++XX++++++++++..$$$$$$$$oo##oo$$$$$$$$$$$$$$",
"$$$$$$$$$$$$$$  ++++++XX++++++++++++..$$$$$$$$oooo$$$$$$$$$$$$$$",
"$$$$$$$$$$$$$$  ++++++XX++++++++++++..$$$$$$$$oooo$$$$$$$$$$$$$$",
"$$$$$$$$$$$$$$$$  OO++++++..OO++++++..$$$$$$..OO  $$$$$$$$$$$$$$",
"$$$$$$$$$$$$$$$$  OO++++++..OO++++++..$$$$$$..OO  $$$$$$$$$$$$$$",
"$$$$$$$$$$$$$$$$$$..    ..OO++OO++++++......OOOO  $$$$$$$$$$$$$$",
"$$$$$$$$$$$$$$$$$$..    ..OO++OO++++++......OOOO  $$$$$$$$$$$$$$",
"$$$$$$$$$$$$$$$$$$$$$$..OO++++..OO++++++++OOOO  $$$$$$$$$$$$$$$$",
"$$$$$$$$$$$$$$$$$$$$$$..OO++++..OO++++++++OOOO  $$$$$$$$$$$$$$$$",
"$$$$$$$$$$$$$$$$$$$$$$        OO++++++OOOOOOOO  $$$$$$$$$$$$$$$$",
"$$$$$$$$$$$$$$$$$$$$$$        OO++++++OOOOOOOO  $$$$$$$$$$$$$$$$",
"$$$$$$$$$$$$$$$$$$$$$$$$..@@OOOO++++OOOOOO    $$$$$$$$$$$$$$$$$$",
"$$$$$$$$$$$$$$$$$$$$$$$$..@@OOOO++++OOOOOO    $$$$$$$$$$$$$$$$$$",
"$$$$$$$$$$$$$$$$$$$$$$$$$$..OOOOOOOO..    $$$$$$$$$$$$$$$$$$$$$$",
"$$$$$$$$$$$$$$$$$$$$$$$$$$..OOOOOOOO..    $$$$$$$$$$$$$$$$$$$$$$",
"$$$$$$$$$$$$$$$$$$$$$$$$$$$$....OOOO  $$$$$$$$$$$$$$$$$$$$$$$$$$",
"$$$$$$$$$$$$$$$$$$$$$$$$$$$$....OOOO  $$$$$$$$$$$$$$$$$$$$$$$$$$",
"$$$$$$$$$$$$$$$$$$$$$$$$$$$$$$      $$$$$$$$$$$$$$$$$$$$$$$$$$$$",
"$$$$$$$$$$$$$$$$$$$$$$$$$$$$$$      $$$$$$$$$$$$$$$$$$$$$$$$$$$$",
"$$$$$$$$$$$$$$$$$$$$$$$$$$$$$$$$$$$$$$$$$$$$$$$$$$$$$$$$$$$$$$$$",
"$$$$$$$$$$$$$$$$$$$$$$$$$$$$$$$$$$$$$$$$$$$$$$$$$$$$$$$$$$$$$$$$",
"$$$$$$$$$$$$$$$$$$$$$$$$$$$$$$$$$$$$$$$$$$$$$$$$$$$$$$$$$$$$$$$$",
"$$$$$$$$$$$$$$$$$$$$$$$$$$$$$$$$$$$$$$$$$$$$$$$$$$$$$$$$$$$$$$$$",
"$$$$$$$$$$$$$$$$$$$$$$$$$$$$$$$$$$$$$$$$$$$$$$$$$$$$$$$$$$$$$$$$",
"$$$$$$$$$$$$$$$$$$$$$$$$$$$$$$$$$$$$$$$$$$$$$$$$$$$$$$$$$$$$$$$$",
"$$$$$$$$$$$$$$$$$$$$$$$$$$$$$$$$$$$$$$$$$$$$$$$$$$$$$$$$$$$$$$$$",
"$$$$$$$$$$$$$$$$$$$$$$$$$$$$$$$$$$$$$$$$$$$$$$$$$$$$$$$$$$$$$$$$",
"$$$$$$$$$$$$$$$$$$$$$$$$$$$$$$$$$$$$$$$$$$$$$$$$$$$$$$$$$$$$$$$$",
"$$$$$$$$$$$$$$$$$$$$$$$$$$$$$$$$$$$$$$$$$$$$$$$$$$$$$$$$$$$$$$$$",
"$$$$$$$$$$$$$$$$$$$$$$$$$$$$$$$$$$$$$$$$$$$$$$$$$$$$$$$$$$$$$$$$",
"$$$$$$$$$$$$$$$$$$$$$$$$$$$$$$$$$$$$$$$$$$$$$$$$$$$$$$$$$$$$$$$$",
"$$$$$$$$$$$$$$$$$$$$$$$$$$$$$$$$$$$$$$$$$$$$$$$$$$$$$$$$$$$$$$$$",
"$$$$$$$$$$$$$$$$$$$$$$$$$$$$$$$$$$$$$$$$$$$$$$$$$$$$$$$$$$$$$$$$",
"$$$$$$$$$$$$$$$$$$$$$$$$$$$$$$$$$$$$$$$$$$$$$$$$$$$$$$$$$$$$$$$$",
"$$$$$$$$$$$$$$$$$$$$$$$$$$$$$$$$$$$$$$$$$$$$$$$$$$$$$$$$$$$$$$$$"
};
