/* XPM */
static char *result[] = {
/* columns rows colors chars-per-pixel */
"64 64 12 1 ",
"  c black",
". c #601820",
"X c #C81028",
"o c #B84038",
"O c #F86858",
"+ c #D8A830",
"@ c #F0D070",
"# c #286880",
"$ c #909090",
"% c #B3D6A1",
"& c #B0B8F8",
"* c #E8E8F8",
/* pixels */
"%%%%%%%%%%%%%%%%%%%%%%%%%%%%%%%%%%%%%%%%%%%%%%%%%%%%%%%%%%%%%%%%",
"%%%%%%%%%%%%%%%%%%%%%%%%%%%%%%%%%%%%%%%%%%%%%%%%%%%%%%%%%%%%%%%%",
"%%%%%%%%%%%%%%%%%%%%%%%%%%%%%%%%%%%%%%%%%%%%%%%%%%%%%%%%%%%%%%%%",
"%%%%%%%%%%%%%%%%%%%%%%%%%%%%%%%%%%%%%%%%%%%%%%%%%%%%%%%%%%%%%%%%",
"%%%%%%%%%%%%%%%%%%%%%%%%%%%%%%%%%%%%%%%%%%%%%%%%%%%%%%%%%%%%%%%%",
"%%%%%%%%%%%%%%%%%%%%%%%%%%%%%%%%%%%%%%%%%%%%%%%%%%%%%%%%%%%%%%%%",
"%%%%%%%%%%%%%%%%%%%%%%%%%%%%%%%%%%%%%%%%%%%%%%%%%%%%%%%%%%%%%%%%",
"%%%%%%%%%%%%%%%%%%%%%%%%%%%%%%%%%%%%%%%%%%%%%%%%%%%%%%%%%%%%%%%%",
"%%%%%%%%%%%%%%%%%%%%%%%%%%%%%%%%%%%%%%%%%%%%%%%%%%%%%%%%%%%%%%%%",
"%%%%%%%%%%%%%%%%%%%%%%%%%%%%%%%%%%%%%%%%%%%%%%%%%%%%%%%%%%%%%%%%",
"%%%%%%%%%%%%%%%%%%%%%%%%%%%%%%%%%%%%%%%%%%%%%%%%%%%%%%%%%%%%%%%%",
"%%%%%%%%%%%%%%%%%%%%%%%%%%%%%%%%%%%%%%%%%%%%%%%%%%%%%%%%%%%%%%%%",
"%%%%%%%%%%%%%%%%%%%%%%%%%%%%......%%%%%%%%%%%%%%%%%%%%%%%%%%%%%%",
"%%%%%%%%%%%%%%%%%%%%%%%%%%%%......%%%%%%%%%%%%%%%%%%%%%%%%%%%%%%",
"%%%%%%%%%%%%%%%%%%%%%%%%%%%%..OOOO....%%%%%%%%%%%%%%%%%%%%%%%%%%",
"%%%%%%%%%%%%%%%%%%%%%%%%%%%%..OOOO....%%%%%%%%%%%%%%%%%%%%%%%%%%",
"%%%%%%%%%%%%%%%%%%%%%%%%%%%%%%  ooOOOO......%%%%%%%%%%%%%%%%%%%%",
"%%%%%%%%%%%%%%%%%%%%%%%%%%%%%%  ooOOOO......%%%%%%%%%%%%%%%%%%%%",
"%%%%%%%%%%%%XX%%%%%%%%%%%%%%%%%%  ooOOOOOOOO..%%%%%%%%%%%%%%%%%%",
"%%%%%%%%%%%%XX%%%%%%%%%%%%%%%%%%  ooOOOOOOOO..%%%%%%%%%%%%%%%%%%",
"%%%%%%%%%%%%%%XX%%%%%%%%%%%%%%..oo..OOOOOOOOOO..%%%%%%%%%%%%%%%%",
"%%%%%%%%%%%%%%XX%%%%%%%%%%%%%%..oo..OOOOOOOOOO..%%%%%%%%%%%%%%%%",
"%%%%%%%%%%%%%%XXXX%%%%%%%%%%%%..OOOOOOOOOOOOOO..%%%%%%%%%%%%%%%%",
"%%%%%%%%%%%%%%XXXX%%%%%%%%%%%%..OOOOOOOOOOOOOO..%%%%%%%%%%%%%%%%",
"%%%%%%%%%%%%XXXXXX%%%%%%%%%%..ooOOOOOOOOOOOOOOoo..%%%%%%%%%%%%%%",
"%%%%%%%%%%%%XXXXXX%%%%%%%%%%..ooOOOOOOOOOOOOOOoo..%%%%%%%%%%%%%%",
"%%%%%%%%%%%%XXXXOOXX%%%%%%%%  ooOOOOOOOOOOOOooOOoo..%%%%%%%%%%%%",
"%%%%%%%%%%%%XXXXOOXX%%%%%%%%  ooOOOOOOOOOOOOooOOoo..%%%%%%%%%%%%",
"%%%%%%%%%%%%XX@@OOXX%%%%%%%%  ooooOOOOOO&&OOooOOOO..%%%%%%%%%%%%",
"%%%%%%%%%%%%XX@@OOXX%%%%%%%%  ooooOOOOOO&&OOooOOOO..%%%%%%%%%%%%",
"%%%%%%%%%%%%XX@@XX%%%%%%%%%%%%  oooooooo**##OOOOOO  %%%%%%%%%%%%",
"%%%%%%%%%%%%XX@@XX%%%%%%%%%%%%  oooooooo**##OOOOOO  %%%%%%%%%%%%",
"%%%%%%%%%%%%..++XX%%%%%%%%%%%%    oooooooo  ooOOoo  %%%%%%%%%%%%",
"%%%%%%%%%%%%..++XX%%%%%%%%%%%%    oooooooo  ooOOoo  %%%%%%%%%%%%",
"%%%%%%%%%%%%  oo  %%%%%%%%%%  oooooo..oooooooo..  %%%%%%%%%%%%%%",
"%%%%%%%%%%%%  oo  %%%%%%%%%%  oooooo..oooooooo..  %%%%%%%%%%%%%%",
"%%%%%%%%%%%%%%  oo  %%%%%%  oooooooo++..      %%%%%%%%%%%%%%%%%%",
"%%%%%%%%%%%%%%  oo  %%%%%%  oooooooo++..      %%%%%%%%%%%%%%%%%%",
"%%%%%%%%%%%%%%  oooo      oooooooo..++@@..%%%%%%%%%%%%%%%%%%%%%%",
"%%%%%%%%%%%%%%  oooo      oooooooo..++@@..%%%%%%%%%%%%%%%%%%%%%%",
"%%%%%%%%%%%%%%%%  ooooooooooOO..OOOO..@@@@..%%%%%%%%%%%%%%%%%%%%",
"%%%%%%%%%%%%%%%%  ooooooooooOO..OOOO..@@@@..%%%%%%%%%%%%%%%%%%%%",
"%%%%%%%%%%%%%%%%%%  oooo..ooOO  OOOO&&..++..%%%%%%%%%%%%%%%%%%%%",
"%%%%%%%%%%%%%%%%%%  oooo..ooOO  OOOO&&..++..%%%%%%%%%%%%%%%%%%%%",
"%%%%%%%%%%%%%%%%%%%%      ..ooOO  &&  ++  %%%%%%%%%%%%%%%%%%%%%%",
"%%%%%%%%%%%%%%%%%%%%      ..ooOO  &&  ++  %%%%%%%%%%%%%%%%%%%%%%",
"%%%%%%%%%%%%%%%%%%%%%%%%%%%%  oooo......%%%%%%%%%%%%%%%%%%%%%%%%",
"%%%%%%%%%%%%%%%%%%%%%%%%%%%%  oooo......%%%%%%%%%%%%%%%%%%%%%%%%",
"%%%%%%%%%%%%%%%%%%%%%%%%%%%%%%  oooo$$  %%%%%%%%%%%%%%%%%%%%%%%%",
"%%%%%%%%%%%%%%%%%%%%%%%%%%%%%%  oooo$$  %%%%%%%%%%%%%%%%%%%%%%%%",
"%%%%%%%%%%%%%%%%%%%%%%%%%%%%%%%%        %%%%%%%%%%%%%%%%%%%%%%%%",
"%%%%%%%%%%%%%%%%%%%%%%%%%%%%%%%%        %%%%%%%%%%%%%%%%%%%%%%%%",
"%%%%%%%%%%%%%%%%%%%%%%%%%%%%%%%%%%%%%%%%%%%%%%%%%%%%%%%%%%%%%%%%",
"%%%%%%%%%%%%%%%%%%%%%%%%%%%%%%%%%%%%%%%%%%%%%%%%%%%%%%%%%%%%%%%%",
"%%%%%%%%%%%%%%%%%%%%%%%%%%%%%%%%%%%%%%%%%%%%%%%%%%%%%%%%%%%%%%%%",
"%%%%%%%%%%%%%%%%%%%%%%%%%%%%%%%%%%%%%%%%%%%%%%%%%%%%%%%%%%%%%%%%",
"%%%%%%%%%%%%%%%%%%%%%%%%%%%%%%%%%%%%%%%%%%%%%%%%%%%%%%%%%%%%%%%%",
"%%%%%%%%%%%%%%%%%%%%%%%%%%%%%%%%%%%%%%%%%%%%%%%%%%%%%%%%%%%%%%%%",
"%%%%%%%%%%%%%%%%%%%%%%%%%%%%%%%%%%%%%%%%%%%%%%%%%%%%%%%%%%%%%%%%",
"%%%%%%%%%%%%%%%%%%%%%%%%%%%%%%%%%%%%%%%%%%%%%%%%%%%%%%%%%%%%%%%%",
"%%%%%%%%%%%%%%%%%%%%%%%%%%%%%%%%%%%%%%%%%%%%%%%%%%%%%%%%%%%%%%%%",
"%%%%%%%%%%%%%%%%%%%%%%%%%%%%%%%%%%%%%%%%%%%%%%%%%%%%%%%%%%%%%%%%",
"%%%%%%%%%%%%%%%%%%%%%%%%%%%%%%%%%%%%%%%%%%%%%%%%%%%%%%%%%%%%%%%%",
"%%%%%%%%%%%%%%%%%%%%%%%%%%%%%%%%%%%%%%%%%%%%%%%%%%%%%%%%%%%%%%%%"
};
