/* XPM */
static char *result[] = {
/* columns rows colors chars-per-pixel */
"64 64 12 1 ",
"  c black",
". c #601820",
"X c #C81028",
"o c #B84038",
"O c #F86858",
"+ c #D8A830",
"@ c #F0D070",
"# c #286880",
"$ c #909090",
"% c #B3D6A1",
"& c #B0B8F8",
"* c #E8E8F8",
/* pixels */
"%%%%%%%%%%%%%%%%%%%%%%%%%%%%%%%%%%%%%%%%%%%%%%%%%%%%%%%%%%%%%%%%",
"%%%%%%%%%%%%%%%%%%%%%%%%%%%%%%%%%%%%%%%%%%%%%%%%%%%%%%%%%%%%%%%%",
"%%%%%%%%%%%%%%%%%%%%%%%%%%%%%%%%%%%%%%%%%%%%%%%%%%%%%%%%%%%%%%%%",
"%%%%%%%%%%%%%%%%%%%%%%%%%%%%%%%%%%%%%%%%%%%%%%%%%%%%%%%%%%%%%%%%",
"%%%%%%%%%%%%%%%%%%%%%%%%%%%%%%%%%%%%%%%%%%%%%%%%%%%%%%%%%%%%%%%%",
"%%%%%%%%%%%%%%%%%%%%%%%%%%%%%%%%%%%%%%%%%%%%%%%%%%%%%%%%%%%%%%%%",
"%%%%%%%%%%%%%%%%%%%%%%%%%%%%%%%%%%%%%%%%%%%%%%%%%%%%%%%%%%%%%%%%",
"%%%%%%%%%%%%%%%%%%%%%%%%%%%%%%%%%%%%%%%%%%%%%%%%%%%%%%%%%%%%%%%%",
"%%%%%%%%%%%%%%%%%%%%%%%%%%%%%%%%%%%%%%%%%%%%%%%%%%%%%%%%%%%%%%%%",
"%%%%%%%%%%%%%%%%%%%%%%%%%%%%%%%%%%%%%%%%%%%%%%%%%%%%%%%%%%%%%%%%",
"%%%%%%%%%%%%%%%%%%%%%%%%%%%%%%%%%%%%%%%%%%%%%%%%%%%%%%%%%%%%%%%%",
"%%%%%%%%%%%%%%%%%%%%%%%%%%%%%%%%%%%%%%%%%%%%%%%%%%%%%%%%%%%%%%%%",
"%%%%%%%%%%%%%%%%%%%%%%%%%%%%%%%%......%%%%%%%%%%%%%%%%%%%%%%%%%%",
"%%%%%%%%%%%%%%%%%%%%%%%%%%%%%%%%......%%%%%%%%%%%%%%%%%%%%%%%%%%",
"%%%%%%%%%%%%%%%%%%%%%%%%%%%%....OOOO..%%%%%%%%%%%%%%%%%%%%%%%%%%",
"%%%%%%%%%%%%%%%%%%%%%%%%%%%%....OOOO..%%%%%%%%%%%%%%%%%%%%%%%%%%",
"%%%%%%%%%%%%%%%%%%%%%%......OOOOoo  %%%%%%%%%%%%%%%%%%%%%%%%%%%%",
"%%%%%%%%%%%%%%%%%%%%%%......OOOOoo  %%%%%%%%%%%%%%%%%%%%%%%%%%%%",
"%%%%%%%%%%%%%%%%%%%%..OOOOOOOOoo  %%%%%%%%%%%%%%%%%%%%%%%%%%%%%%",
"%%%%%%%%%%%%%%%%%%%%..OOOOOOOOoo  %%%%%%%%%%%%%%%%%%%%%%%%%%%%%%",
"%%%%%%%%%%%%%%%%%%..OOOOOOOOOO..oo..%%%%%%%%%%%%%%%%%%XX%%%%%%%%",
"%%%%%%%%%%%%%%%%%%..OOOOOOOOOO..oo..%%%%%%%%%%%%%%%%%%XX%%%%%%%%",
"%%%%%%%%%%%%%%%%%%..OOOOOOOOOOOOOO..%%%%%%%%%%%%%%XXXXXX%%%%%%%%",
"%%%%%%%%%%%%%%%%%%..OOOOOOOOOOOOOO..%%%%%%%%%%%%%%XXXXXX%%%%%%%%",
"%%%%%%%%%%%%%%%%..ooOOOOOOOOOOOOOOoo..%%%%%%%%%%XX@@XX%%%%%%%%%%",
"%%%%%%%%%%%%%%%%..ooOOOOOOOOOOOOOOoo..%%%%%%%%%%XX@@XX%%%%%%%%%%",
"%%%%%%%%%%%%%%..ooOOooOOOOOOOOOOOOoo  %%%%%%%%XXOO@@++%%%%%%%%%%",
"%%%%%%%%%%%%%%..ooOOooOOOOOOOOOOOOoo  %%%%%%%%XXOO@@++%%%%%%%%%%",
"%%%%%%%%%%%%%%..OOOOooOO&&OOOOOOoooo  %%%%%%%%XXOOXXXXXX%%%%%%%%",
"%%%%%%%%%%%%%%..OOOOooOO&&OOOOOOoooo  %%%%%%%%XXOOXXXXXX%%%%%%%%",
"%%%%%%%%%%%%%%  OOOOOO##**oooooooo  %%%%%%%%%%%%XX++XXXX%%%%%%%%",
"%%%%%%%%%%%%%%  OOOOOO##**oooooooo  %%%%%%%%%%%%XX++XXXX%%%%%%%%",
"%%%%%%%%%%%%%%  ooOOoo  oooooooo    %%%%%%%%%%%%XXXX..%%%%%%%%%%",
"%%%%%%%%%%%%%%  ooOOoo  oooooooo    %%%%%%%%%%%%XXXX..%%%%%%%%%%",
"%%%%%%%%%%%%%%%%  ..oooooooo..oooooo  %%%%%%%%%%  oo  %%%%%%%%%%",
"%%%%%%%%%%%%%%%%  ..oooooooo..oooooo  %%%%%%%%%%  oo  %%%%%%%%%%",
"%%%%%%%%%%%%%%%%%%%%      ..++oooooooo  %%%%%%  oo  %%%%%%%%%%%%",
"%%%%%%%%%%%%%%%%%%%%      ..++oooooooo  %%%%%%  oo  %%%%%%%%%%%%",
"%%%%%%%%%%%%%%%%%%%%%%%%..@@++..oooooooo      oooo  %%%%%%%%%%%%",
"%%%%%%%%%%%%%%%%%%%%%%%%..@@++..oooooooo      oooo  %%%%%%%%%%%%",
"%%%%%%%%%%%%%%%%%%%%%%..@@@@..OOOO..OOoooooooooo  %%%%%%%%%%%%%%",
"%%%%%%%%%%%%%%%%%%%%%%..@@@@..OOOO..OOoooooooooo  %%%%%%%%%%%%%%",
"%%%%%%%%%%%%%%%%%%%%%%..++..&&OOOO  OOOO..oooo  %%%%%%%%%%%%%%%%",
"%%%%%%%%%%%%%%%%%%%%%%..++..&&OOOO  OOOO..oooo  %%%%%%%%%%%%%%%%",
"%%%%%%%%%%%%%%%%%%%%%%%%  ++  &&  OOOOoo..    %%%%%%%%%%%%%%%%%%",
"%%%%%%%%%%%%%%%%%%%%%%%%  ++  &&  OOOOoo..    %%%%%%%%%%%%%%%%%%",
"%%%%%%%%%%%%%%%%%%%%%%%%%%  ....  oooooo  %%%%%%%%%%%%%%%%%%%%%%",
"%%%%%%%%%%%%%%%%%%%%%%%%%%  ....  oooooo  %%%%%%%%%%%%%%%%%%%%%%",
"%%%%%%%%%%%%%%%%%%%%%%%%%%%%..  $$oooo  %%%%%%%%%%%%%%%%%%%%%%%%",
"%%%%%%%%%%%%%%%%%%%%%%%%%%%%..  $$oooo  %%%%%%%%%%%%%%%%%%%%%%%%",
"%%%%%%%%%%%%%%%%%%%%%%%%%%%%%%        %%%%%%%%%%%%%%%%%%%%%%%%%%",
"%%%%%%%%%%%%%%%%%%%%%%%%%%%%%%        %%%%%%%%%%%%%%%%%%%%%%%%%%",
"%%%%%%%%%%%%%%%%%%%%%%%%%%%%%%%%%%%%%%%%%%%%%%%%%%%%%%%%%%%%%%%%",
"%%%%%%%%%%%%%%%%%%%%%%%%%%%%%%%%%%%%%%%%%%%%%%%%%%%%%%%%%%%%%%%%",
"%%%%%%%%%%%%%%%%%%%%%%%%%%%%%%%%%%%%%%%%%%%%%%%%%%%%%%%%%%%%%%%%",
"%%%%%%%%%%%%%%%%%%%%%%%%%%%%%%%%%%%%%%%%%%%%%%%%%%%%%%%%%%%%%%%%",
"%%%%%%%%%%%%%%%%%%%%%%%%%%%%%%%%%%%%%%%%%%%%%%%%%%%%%%%%%%%%%%%%",
"%%%%%%%%%%%%%%%%%%%%%%%%%%%%%%%%%%%%%%%%%%%%%%%%%%%%%%%%%%%%%%%%",
"%%%%%%%%%%%%%%%%%%%%%%%%%%%%%%%%%%%%%%%%%%%%%%%%%%%%%%%%%%%%%%%%",
"%%%%%%%%%%%%%%%%%%%%%%%%%%%%%%%%%%%%%%%%%%%%%%%%%%%%%%%%%%%%%%%%",
"%%%%%%%%%%%%%%%%%%%%%%%%%%%%%%%%%%%%%%%%%%%%%%%%%%%%%%%%%%%%%%%%",
"%%%%%%%%%%%%%%%%%%%%%%%%%%%%%%%%%%%%%%%%%%%%%%%%%%%%%%%%%%%%%%%%",
"%%%%%%%%%%%%%%%%%%%%%%%%%%%%%%%%%%%%%%%%%%%%%%%%%%%%%%%%%%%%%%%%",
"%%%%%%%%%%%%%%%%%%%%%%%%%%%%%%%%%%%%%%%%%%%%%%%%%%%%%%%%%%%%%%%%"
};
