/* XPM */
static char *result[] = {
/* columns rows colors chars-per-pixel */
"64 64 8 1 ",
"  c black",
". c #601820",
"X c #C81028",
"o c #B84038",
"O c #F86858",
"+ c #D8A830",
"@ c #F0D070",
"# c #B3D6A1",
/* pixels */
"################################################################",
"################################################################",
"################################################################",
"################################################################",
"################################################################",
"################################################################",
"################################################################",
"################################################################",
"################################################################",
"################################################################",
"################################################################",
"################################################################",
"################################################################",
"################################################################",
"##############################......############################",
"##############################......############################",
"##########################....ooOOoo....########################",
"##########################....ooOOoo....########################",
"########################..OOooOOOOOOooOO..######################",
"########################..OOooOOOOOOooOO..######################",
"########################..OOooOOOOOOooOO..######################",
"########################..OOooOOOOOOooOO..######################",
"######################..OOOOOO..OO..OOOOOO..####################",
"######################..OOOOOO..OO..OOOOOO..####################",
"######################..OOOOOO..OO..OOOOOO..####################",
"######################..OOOOOO..OO..OOOOOO..####################",
"######################  OOOOOOoo..ooOOOOOO  ####################",
"######################  OOOOOOoo..ooOOOOOO  ####################",
"######################  ooOOOOXXOOOOOOOOoo  ####################",
"######################  ooOOOOXXOOOOOOOOoo  ####################",
"######################  ooOOOOOOXXOOOOOOoo  ####################",
"######################  ooOOOOOOXXOOOOOOoo  ####################",
"########################  ooOOOO@@XXOOoo  ######################",
"########################  ooOOOO@@XXOOoo  ######################",
"##########################  ..XXXXXX..  ########################",
"##########################  ..XXXXXX..  ########################",
"########################  ooOOXX@@XXOOoo  ######################",
"########################  ooOOXX@@XXOOoo  ######################",
"########################  OOXXXX++XXOOOO  ######################",
"########################  OOXXXX++XXOOOO  ######################",
"######################  OOOOXX++XXOOOOOOOO  ####################",
"######################  OOOOXX++XXOOOOOOOO  ####################",
"######################  OOOO..XXoo..OOOOoo  ####################",
"######################  OOOO..XXoo..OOOOoo  ####################",
"######################  ooOO..oooooo  oooo  ####################",
"######################  ooOO..oooooo  oooo  ####################",
"######################  oooo  oooooo      ######################",
"######################  oooo  oooooo      ######################",
"########################    ##      ############################",
"########################    ##      ############################",
"################################################################",
"################################################################",
"################################################################",
"################################################################",
"################################################################",
"################################################################",
"################################################################",
"################################################################",
"################################################################",
"################################################################",
"################################################################",
"################################################################",
"################################################################",
"################################################################"
};
