/* XPM */
static char *Y2hhcml6YXJkX2Rvd25fc2NhbGVkXzJ4X3BuZ2NydXNoZWQ_[] = {
/* columns rows colors chars-per-pixel */
"64 64 12 1 ",
"  c black",
". c #603000",
"X c #284858",
"o c #904020",
"O c #C85828",
"+ c #F87838",
"@ c #D8A830",
"# c #F0D070",
"$ c #408080",
"% c #B3D6A1",
"& c #A0A0A0",
"* c #D8D8F8",
/* pixels */
"%%%%%%%%%%%%%%%%%%%%%%%%%%%%%%%%%%%%%%%%%%%%%%%%%%%%%%%%%%%%%%%%",
"%%%%%%%%%%%%%%%%%%%%%%%%%%%%%%%%%%%%%%%%%%%%%%%%%%%%%%%%%%%%%%%%",
"%%%%%%%%%%%%%%%%%%%%%%%%%%%%%%%%%%%%%%%%%%%%%%%%%%%%%%%%%%%%%%%%",
"%%%%%%%%%%%%%%%%%%%%%%%%%%%%%%%%%%%%%%%%%%%%%%%%%%%%%%%%%%%%%%%%",
"%%%%%%%%%%%%%%%%%%%%%%%%%%%%%%%%%%%%%%%%%%%%%%%%%%%%%%%%%%%%%%%%",
"%%%%%%%%%%%%%%%%%%%%%%%%%%%%%%%%%%%%%%%%%%%%%%%%%%%%%%%%%%%%%%%%",
"%%%%%%%%%%%%%%%%%%%%%%%%%%%%%%%%%%%%%%%%%%%%%%%%%%%%%%%%%%%%%%%%",
"%%%%%%%%%%%%%%%%%%%%%%%%%%%%%%%%%%%%%%%%%%%%%%%%%%%%%%%%%%%%%%%%",
"%%%%%%%%%%%%%%%%%%%%%%%%..%%%%%%%%%%%%..%%%%%%%%%%%%%%%%%%%%%%%%",
"%%%%%%%%%%%%%%%%%%%%%%%%..%%%%%%%%%%%%..%%%%%%%%%%%%%%%%%%%%%%%%",
"%%%%%%%%%%%%%%%%%%%%%%..++..%%%%%%%%..++..%%%%%%%%%%%%%%%%%%%%%%",
"%%%%%%%%%%%%%%%%%%%%%%..++..%%%%%%%%..++..%%%%%%%%%%%%%%%%%%%%%%",
"%%%%%%%%%%%%%%%%%%%%%%  ++..%%%%%%%%..++  %%%%%%%%%%%%%%%%%%%%%%",
"%%%%%%%%%%%%%%%%%%%%%%  ++..%%%%%%%%..++  %%%%%%%%%%%%%%%%%%%%%%",
"%%%%%%%%%%%%%%%%%%%%%%  ++..oooooooo..++  %%%%%%%%%%%%%%%%%%%%%%",
"%%%%%%%%%%%%%%%%%%%%%%  ++..oooooooo..++  %%%%%%%%%%%%%%%%%%%%%%",
"%%%%%%%%%%%%%%%%%%%%%%  ++++..++++..++++  %%%%%%%%%%%%%%%%%%%%%%",
"%%%%%%%%%%%%%%%%%%%%%%  ++++..++++..++++  %%%%%%%%%%%%%%%%%%%%%%",
"%%%%%%%%%%%%%%%%%%%%%%  OO++oo++++oo++OO  %%%%%%%%%%%%%%%%%%%%%%",
"%%%%%%%%%%%%%%%%%%%%%%  OO++oo++++oo++OO  %%%%%%%%%%%%%%%%%%%%%%",
"%%%%%%%%%%%%%%%%....%%..OO++OO++++OO++OO..%%....%%%%%%%%%%%%%%%%",
"%%%%%%%%%%%%%%%%....%%..OO++OO++++OO++OO..%%....%%%%%%%%%%%%%%%%",
"%%%%%%%%%%%%....OO..%%..oo++++++++++++oo..%%..OO....%%%%%%%%%%%%",
"%%%%%%%%%%%%....OO..%%..oo++++++++++++oo..%%..OO....%%%%%%%%%%%%",
"%%%%%%%%%%..OOooOO..  oo++++++++++++++++oo  ..OOooOO..%%%%%%%%%%",
"%%%%%%%%%%..OOooOO..  oo++++++++++++++++oo  ..OOooOO..%%%%%%%%%%",
"%%%%%%%%..OO$$$$oo..  OO**++++++++++++**OO  ..oo$$$$OO..%%%%%%%%",
"%%%%%%%%..OO$$$$oo..  OO**++++++++++++**OO  ..oo$$$$OO..%%%%%%%%",
"%%%%%%..OO$$$$$$XXoo  ++**$$++++++++$$**++  ooXX$$$$$$OO..%%%%%%",
"%%%%%%..OO$$$$$$XXoo  ++**$$++++++++$$**++  ooXX$$$$$$OO..%%%%%%",
"%%%%%%..OO$$$$XXXXoo  ++++XXOO++++OOXX++++  ooXXXX$$$$OO..%%%%%%",
"%%%%%%..OO$$$$XXXXoo  ++++XXOO++++OOXX++++  ooXXXX$$$$OO..%%%%%%",
"%%%%..OOoo$$XXXXXXXXoo..++++++++++++++++..ooXXXXXXXX$$ooOO..%%%%",
"%%%%..OOoo$$XXXXXXXXoo..++++++++++++++++..ooXXXXXXXX$$ooOO..%%%%",
"%%%%..OOXXXXXXXXXXXXXX  OO++++++++++++OO  XXXXXXXXXXXXXXOO..%%%%",
"%%%%..OOXXXXXXXXXXXXXX  OO++++++++++++OO  XXXXXXXXXXXXXXOO..%%%%",
"%%%%....%%%%%%XXXXXX  OO  ++OO++++OO++  OO  XXXXXX%%%%%%....%%%%",
"%%%%....%%%%%%XXXXXX  OO  ++OO++++OO++  OO  XXXXXX%%%%%%....%%%%",
"%%%%%%%%%%%%%%%%%%%%..++OO..&&OOOO&&..OO++..%%%%%%%%%%%%%%%%%%%%",
"%%%%%%%%%%%%%%%%%%%%..++OO..&&OOOO&&..OO++..%%%%%%%%%%%%%%%%%%%%",
"%%%%%%%%%%%%%%%%%%  ++OO..@@..    ..@@..OO++  %%%%%%%%%%%%%%%%%%",
"%%%%%%%%%%%%%%%%%%  ++OO..@@..    ..@@..OO++  %%%%%%%%%%%%%%%%%%",
"%%%%%%%%%%%%%%%%    OO..@@##@@@@@@@@##@@..OO  %%%%%%%%%%%%%%%%%%",
"%%%%%%%%%%%%%%%%    OO..@@##@@@@@@@@##@@..OO  %%%%%%%%%%%%%%%%%%",
"%%%%%%%%%%%%%%%%  OO..oo@@############@@oo..OO  %%%%%%%%%%%%%%%%",
"%%%%%%%%%%%%%%%%  OO..oo@@############@@oo..OO  %%%%%%%%%%%%%%%%",
"%%%%%%%%%%%%%%%%  ooOOOO@@@@########@@@@OOOOOO  %%%%%%%%%%%%%%%%",
"%%%%%%%%%%%%%%%%  ooOOOO@@@@########@@@@OOOOOO  %%%%%%%%%%%%%%%%",
"%%%%%%%%%%%%%%%%%%  OOOO  @@@@@@@@@@@@  OOOOoo  %%%%%%%%%%%%%%%%",
"%%%%%%%%%%%%%%%%%%  OOOO  @@@@@@@@@@@@  OOOOoo  %%%%%%%%%%%%%%%%",
"%%%%%%%%%%%%%%%%%%  oooooo  @@@@@@@@  oooooo  %%%%%%%%%%%%%%%%%%",
"%%%%%%%%%%%%%%%%%%  oooooo  @@@@@@@@  oooooo  %%%%%%%%%%%%%%%%%%",
"%%%%%%%%%%%%%%%%%%%%      ..........  &&oo&&  %%%%%%%%%%%%%%%%%%",
"%%%%%%%%%%%%%%%%%%%%      ..........  &&oo&&  %%%%%%%%%%%%%%%%%%",
"%%%%%%%%%%%%%%%%%%%%%%%%%%%%%%%%%%%%%%      %%%%%%%%%%%%%%%%%%%%",
"%%%%%%%%%%%%%%%%%%%%%%%%%%%%%%%%%%%%%%      %%%%%%%%%%%%%%%%%%%%",
"%%%%%%%%%%%%%%%%%%%%%%%%%%%%%%%%%%%%%%%%%%%%%%%%%%%%%%%%%%%%%%%%",
"%%%%%%%%%%%%%%%%%%%%%%%%%%%%%%%%%%%%%%%%%%%%%%%%%%%%%%%%%%%%%%%%",
"%%%%%%%%%%%%%%%%%%%%%%%%%%%%%%%%%%%%%%%%%%%%%%%%%%%%%%%%%%%%%%%%",
"%%%%%%%%%%%%%%%%%%%%%%%%%%%%%%%%%%%%%%%%%%%%%%%%%%%%%%%%%%%%%%%%",
"%%%%%%%%%%%%%%%%%%%%%%%%%%%%%%%%%%%%%%%%%%%%%%%%%%%%%%%%%%%%%%%%",
"%%%%%%%%%%%%%%%%%%%%%%%%%%%%%%%%%%%%%%%%%%%%%%%%%%%%%%%%%%%%%%%%",
"%%%%%%%%%%%%%%%%%%%%%%%%%%%%%%%%%%%%%%%%%%%%%%%%%%%%%%%%%%%%%%%%",
"%%%%%%%%%%%%%%%%%%%%%%%%%%%%%%%%%%%%%%%%%%%%%%%%%%%%%%%%%%%%%%%%"
};
