/* XPM */
static char *Y2hhcml6YXJkX2xlZnRfc2NhbGVkXzJ4X3BuZ2NydXNoZWQ_[] = {
/* columns rows colors chars-per-pixel */
"64 64 15 1 ",
"  c black",
". c #603000",
"X c #604000",
"o c #284858",
"O c #C01020",
"+ c #904020",
"@ c #C85828",
"# c #F87838",
"$ c #F8B810",
"% c #D8A830",
"& c #F0D070",
"* c #408080",
"= c #B3D6A1",
"- c #A0A0A0",
"; c #D8D8F8",
/* pixels */
"================================================================",
"================================================================",
"================================================================",
"================================================================",
"================================================================",
"================================================================",
"================================================================",
"================================================================",
"================================================================",
"================================================================",
"================================================================",
"================================================================",
"================================......==========================",
"================================......==========================",
"============================....@@@@..==========================",
"============================....@@@@..==========================",
"======================......@@@@....============================",
"======================......@@@@....============================",
"==================....####@@@@......    ..======================",
"==================....####@@@@......    ..======================",
"================..########....@@######  ++....========OO========",
"================..########....@@######  ++....========OO========",
"========........################@@....++++++++..====OO==========",
"========........################@@....++++++++..====OO==========",
"======..######@@##########@@++....==..    ++++++..==OOOO========",
"======..######@@##########@@++....==..    ++++++..==OOOO========",
"======..############@@--@@@@@@++..==  ####      ++..OOOOOO======",
"======..############@@--@@@@@@++..==  ####      ++..OOOOOO======",
"======  ##@@####++oo;;;;@@##@@@@  ==....@@######    OO$$OO======",
"======  ##@@####++oo;;;;@@##@@@@  ==....@@######    OO$$OO======",
"======  @@########**;;@@####@@@@  ..++  @@oo**@@####  $$$$OO====",
"======  @@########**;;@@####@@@@  ..++  @@oo**@@####  $$$$OO====",
"========  --@@############@@@@@@++  ++  @@oo******@@##  $$OO====",
"========  --@@############@@@@@@++  ++  @@oo******@@##  $$OO====",
"==========    ..@@######++@@@@@@....  @@oooooo******##  OOOO====",
"==========    ..@@######++@@@@@@....  @@oooooo******##  OOOO====",
"================    ..++@@@@@@@@@@@@@@oooooooo******@@##  ======",
"================    ..++@@@@@@@@@@@@@@oooooooo******@@##  ======",
"======================XX%%@@@@@@@@oooooooooooo**oooo**##  ======",
"======================XX%%@@@@@@@@oooooooooooo**oooo**##  ======",
"======================XX%%++##++@@@@oo====oooooo====  ##  ======",
"======================XX%%++##++@@@@oo====oooooo====  ##  ======",
"====================XX&&..##@@..##@@@@..====oo======++    ======",
"====================XX&&..##@@..##@@@@..====oo======++    ======",
"====================XX&&..##..######@@++..======....@@..========",
"====================XX&&..##..######@@++..======....@@..========",
"====================XX&&++..########@@@@@@......@@@@@@..========",
"====================XX&&++..########@@@@@@......@@@@@@..========",
"====================XX%%&&@@######@@@@++@@@@@@@@@@@@..==========",
"====================XX%%&&@@######@@@@++@@@@@@@@@@@@..==========",
"======================XX%%++####@@@@..++@@@@@@@@++..============",
"======================XX%%++####@@@@..++@@@@@@@@++..============",
"========================XX..++@@@@++  @@@@++......==============",
"========================XX..++@@@@++  @@@@++......==============",
"==========================  --@@@@  ........====================",
"==========================  --@@@@  ........====================",
"============================      ==============================",
"============================      ==============================",
"================================================================",
"================================================================",
"================================================================",
"================================================================",
"================================================================",
"================================================================"
};
