/* XPM */
static char *Y2hhcml6YXJkX3JpZ2h0X3NjYWxlZF8yeF9wbmdjcnVzaGVk[] = {
/* columns rows colors chars-per-pixel */
"64 64 15 1 ",
"  c black",
". c #603000",
"X c #604000",
"o c #284858",
"O c #C01020",
"+ c #904020",
"@ c #C85828",
"# c #F87838",
"$ c #F8B810",
"% c #D8A830",
"& c #F0D070",
"* c #408080",
"= c #B3D6A1",
"- c #A0A0A0",
"; c #D8D8F8",
/* pixels */
"================================================================",
"================================================================",
"================================================================",
"================================================================",
"================================================================",
"================================================================",
"================================================================",
"================================================================",
"================================================================",
"================================================================",
"============================......==============================",
"============================......==============================",
"============================..@@@@....==========================",
"============================..@@@@....==========================",
"==============================....@@@@......====================",
"==============================....@@@@......====================",
"==========================    ......@@@@####....================",
"==========================    ......@@@@####....================",
"========================..  ######@@....########..==============",
"========================..  ######@@....########..==============",
"======================..++++....@@################........======",
"======================..++++....@@################........======",
"====================..++++    ......++@@##########@@######..====",
"====================..++++    ......++@@##########@@######..====",
"======OO============..    ####  ..++@@@@@@--@@############..====",
"======OO============..    ####  ..++@@@@@@--@@############..====",
"========OOOO========  ####@@....  @@@@##@@;;;;oo++####@@##  ====",
"========OOOO========  ####@@....  @@@@##@@;;;;oo++####@@##  ====",
"==========OOOO====  ##@@oo@@  ..  @@@@####@@;;**########@@  ====",
"==========OOOO====  ##@@oo@@  ..  @@@@####@@;;**########@@  ====",
"========OOOOOO==  ##@@**oo@@    ++@@@@@@############@@--  ======",
"========OOOOOO==  ##@@**oo@@    ++@@@@@@############@@--  ======",
"======OO$$OOOO==  ##****oooo@@....@@@@@@++######@@..    ========",
"======OO$$OOOO==  ##****oooo@@....@@@@@@++######@@..    ========",
"====OO$$OOOOOO  ##@@****oooooo@@@@@@@@@@@@++..    ==============",
"====OO$$OOOOOO  ##@@****oooooo@@@@@@@@@@@@++..    ==============",
"====OO$$OOOOOO  ##**oo**oooooooo@@@@@@@@%%XX====================",
"====OO$$OOOOOO  ##**oo**oooooooo@@@@@@@@%%XX====================",
"====OO$$$$OO==  ##  ==oooo==oo@@@@++##++%%XX====================",
"====OO$$$$OO==  ##  ==oooo==oo@@@@++##++%%XX====================",
"====OOOO$$OO==    ======oo..@@@@@@..@@##..&&XX==================",
"====OOOO$$OO==    ======oo..@@@@@@..@@##..&&XX==================",
"======OOOO....==========..++@@@@####..##..&&XX==================",
"======OOOO....==========..++@@@@####..##..&&XX==================",
"========..@@@@........++@@@@@@########..++&&XX==================",
"========..@@@@........++@@@@@@########..++&&XX==================",
"==========..@@@@@@@@@@@@@@++@@########@@&&%%XX==================",
"==========..@@@@@@@@@@@@@@++@@########@@&&%%XX==================",
"============..++@@@@@@@@@@..@@@@####@@++%%XX====================",
"============..++@@@@@@@@@@..@@@@####@@++%%XX====================",
"==============......++@@@@  ++@@++++....XX======================",
"==============......++@@@@  ++@@++++....XX======================",
"====================......  @@@@--  ..==========================",
"====================......  @@@@--  ..==========================",
"============================      ==============================",
"============================      ==============================",
"================================================================",
"================================================================",
"================================================================",
"================================================================",
"================================================================",
"================================================================",
"================================================================",
"================================================================"
};
