/* XPM */
static char *Y2hhcml6YXJkX3VwX3NjYWxlZF8yeF9wbmdjcnVzaGVk[] = {
/* columns rows colors chars-per-pixel */
"64 64 8 1 ",
"  c black",
". c #603000",
"X c #C01020",
"o c #904020",
"O c #C85828",
"+ c #F87838",
"@ c #F8B810",
"# c #B3D6A1",
/* pixels */
"################################################################",
"################################################################",
"################################################################",
"################################################################",
"################################################################",
"################################################################",
"################################################################",
"################################################################",
"############################........############################",
"############################........############################",
"########################....OOOOOOOO....########################",
"########################....OOOOOOOO....########################",
"######################....OOOO++++OOOO....######################",
"######################....OOOO++++OOOO....######################",
"####################  ++OO..++++++++..OO++  ####################",
"####################  ++OO..++++++++..OO++  ####################",
"##################  ++OO  ++++++++++++  OO++  ##################",
"##################  ++OO  ++++++++++++  OO++  ##################",
"##################    ooOO++++++++++++OOoo    ##################",
"##################    ooOO++++++++++++OOoo    ##################",
"####################..OOOOOO++++++++OOOOOO..####################",
"####################..OOOOOO++++++++OOOOOO..####################",
"####################..OOOOOOOOOOOOOOOOOOOO..####################",
"####################..OOOOOOOOOOOOOOOOOOOO..####################",
"######################..OOOOOOOOOOOOOOOO..######################",
"######################..OOOOOOOOOOOOOOOO..######################",
"######################..OOOOOOXX@@OOOOOO..######################",
"######################..OOOOOOXX@@OOOOOO..######################",
"##################    ##..OOXXXXOOOOOO..##    ##################",
"##################    ##..OOXXXXOOOOOO..##    ##################",
"################  ++  ##..OOXX@@XXOOoo..##  ++  ################",
"################  ++  ##..OOXX@@XXOOoo..##  ++  ################",
"##############..OO++oo  ..XX@@XXXXXXoo..  oo++OO..##############",
"##############..OO++oo  ..XX@@XXXXXXoo..  oo++OO..##############",
"############..++++OO++OO  XX@@@@XXXXoo  OO++OO++++..############",
"############..++++OO++OO  XX@@@@XXXXoo  OO++OO++++..############",
"############..++++OOOOOOOO..XX@@@@XX..OOOOOOOO++++..############",
"############..++++OOOOOOOO..XX@@@@XX..OOOOOOOO++++..############",
"##########..++++++OOOOOOOOOO  @@XXooOOOOOOOOOO++++++..##########",
"##########..++++++OOOOOOOOOO  @@XXooOOOOOOOOOO++++++..##########",
"##########..++++OOOOOOOOOOOO  XX..OOOOOOOOOOOOOO++++..##########",
"##########..++++OOOOOOOOOOOO  XX..OOOOOOOOOOOOOO++++..##########",
"########  ++++++OOOOOOoo..  ++++  OOOO..ooOOOOOO++++++  ########",
"########  ++++++OOOOOOoo..  ++++  OOOO..ooOOOOOO++++++  ########",
"########  ++OO++OOOO..ooOO  ++++..OOOOOOoo..OOOO++OO++  ########",
"########  ++OO++OOOO..ooOO  ++++..OOOOOOoo..OOOO++OO++  ########",
"########  ++oo        OO  ++++++OO..ooOOOO        oo++  ########",
"########  ++oo        OO  ++++++OO..ooOOOO        oo++  ########",
"########    ######..oooo  OO++++OOOO..OOOOoo..######    ########",
"########    ######..oooo  OO++++OOOO..OOOOoo..######    ########",
"####################  oo  OOOOOOOOOOoooooooo..##################",
"####################  oo  OOOOOOOOOOoooooooo..##################",
"######################  ..  OOOOOOoo......  ####################",
"######################  ..  OOOOOOoo......  ####################",
"############################        ##    ######################",
"############################        ##    ######################",
"################################################################",
"################################################################",
"################################################################",
"################################################################",
"################################################################",
"################################################################",
"################################################################",
"################################################################"
};
