/* XPM */
static char *result[] = {
/* columns rows colors chars-per-pixel */
"64 64 9 1 ",
"  c black",
". c #204860",
"X c #A00803",
"o c #D8A830",
"O c #F0D070",
"+ c #3888B8",
"@ c #58B8F0",
"# c #B3D6A1",
"$ c #E8E8F8",
/* pixels */
"################################################################",
"################################################################",
"################################################################",
"################################################################",
"################################################################",
"################################################################",
"################################################################",
"################################################################",
"################################################################",
"################################################################",
"################################################################",
"################################################################",
"################################################################",
"################################################################",
"################################################################",
"################################################################",
"##############################......############################",
"##############################......############################",
"##########################....@@@@@@....########################",
"##########################....@@@@@@....########################",
"########################..@@@@@@@@@@@@@@..######################",
"########################..@@@@@@@@@@@@@@..######################",
"########################..@@@@@@@@@@@@@@..######################",
"########################..@@@@@@@@@@@@@@..######################",
"######################..@@@@@@@@@@@@@@@@@@..####################",
"######################..@@@@@@@@@@@@@@@@@@..####################",
"######################..@@@@++@@@@@@++@@@@..####################",
"######################..@@@@++@@@@@@++@@@@..####################",
"######################..++$$@@@@@@@@@@$$++..####################",
"######################..++$$@@@@@@@@@@$$++..####################",
"######################  ++XX@@@@@@@@@@XX++  ####################",
"######################  ++XX@@@@@@@@@@XX++  ####################",
"########################  ++@@@@@@@@@@++  ######################",
"########################  ++@@@@@@@@@@++  ######################",
"######################..++  ++++++++++  ++..####################",
"######################..++  ++++++++++  ++..####################",
"######################..@@@@..      ..@@@@..####################",
"######################..@@@@..      ..@@@@..####################",
"########################....ooOOOOOOoo....######################",
"########################....ooOOOOOOoo....######################",
"########################  ++++oooooo++++..######################",
"########################  ++++oooooo++++..######################",
"##########################    ..    ++++  ######################",
"##########################    ..    ++++  ######################",
"####################################    ########################",
"####################################    ########################",
"################################################################",
"################################################################",
"################################################################",
"################################################################",
"################################################################",
"################################################################",
"################################################################",
"################################################################",
"################################################################",
"################################################################",
"################################################################",
"################################################################",
"################################################################",
"################################################################",
"################################################################",
"################################################################",
"################################################################",
"################################################################"
};
