/* XPM */
static char *result[] = {
/* columns rows colors chars-per-pixel */
"64 64 9 1 ",
"  c black",
". c #204860",
"X c #C87818",
"o c #D8A830",
"O c #3888B8",
"+ c #58B8F0",
"@ c gray72",
"# c #B3D6A1",
"$ c #E8E8F8",
/* pixels */
"################################################################",
"################################################################",
"################################################################",
"################################################################",
"################################################################",
"################################################################",
"################################################################",
"################################################################",
"################################################################",
"################################################################",
"################################################################",
"################################################################",
"################################################################",
"################################################################",
"################################################################",
"################################################################",
"##############################......############################",
"##############################......############################",
"##########################....++++++....########################",
"##########################....++++++....########################",
"########################..++++++++++++++..######################",
"########################..++++++++++++++..######################",
"########################..++++++++++++++..######################",
"########################..++++++++++++++..######################",
"######################..OO++++++++++++++OO..####################",
"######################..OO++++++++++++++OO..####################",
"######################..OO++++++++++++++OO..####################",
"######################..OO++++++++++++++OO..####################",
"######################..OOOO++++++++++OOOO..####################",
"######################..OOOO++++++++++OOOO..####################",
"######################  OOOOOO$$$$$$OOOOOO  ####################",
"######################  OOOOOO$$$$$$OOOOOO  ####################",
"########################  OO@@oooooo@@OO  ######################",
"########################  OO@@oooooo@@OO  ######################",
"######################..OO@@ooooOOOOoo@@OO..####################",
"######################..OO@@ooooOOOOoo@@OO..####################",
"######################..OO@@XXOO++++..@@OO..####################",
"######################..OO@@XXOO++++..@@OO..####################",
"########################..@@XX..++OO..@@..######################",
"########################..@@XX..++OO..@@..######################",
"########################..OO@@..OO..@@OO  ######################",
"########################..OO@@..OO..@@OO  ######################",
"########################  OOOO    ..    ########################",
"########################  OOOO    ..    ########################",
"##########################    ##################################",
"##########################    ##################################",
"################################################################",
"################################################################",
"################################################################",
"################################################################",
"################################################################",
"################################################################",
"################################################################",
"################################################################",
"################################################################",
"################################################################",
"################################################################",
"################################################################",
"################################################################",
"################################################################",
"################################################################",
"################################################################",
"################################################################",
"################################################################"
};
