/* XPM */
static char *result[] = {
/* columns rows colors chars-per-pixel */
"64 64 12 1 ",
"  c black",
". c #383848",
"X c gray25",
"o c #A00803",
"O c #B88818",
"+ c #F0D070",
"@ c #405098",
"# c #4078D8",
"$ c #7098E0",
"% c #A0A0A0",
"& c #B3D6A1",
"* c #E8E8F8",
/* pixels */
"&&&&&&&&&&&&&&&&&&&&&&&&&&&&&&&&&&&&&&&&&&&&&&&&&&&&&&&&&&&&&&&&",
"&&&&&&&&&&&&&&&&&&&&&&&&&&&&&&&&&&&&&&&&&&&&&&&&&&&&&&&&&&&&&&&&",
"&&&&&&&&&&&&&&&&&&&&&&&&&&&&&&&&&&&&&&&&&&&&&&&&&&&&&&&&&&&&&&&&",
"&&&&&&&&&&&&&&&&&&&&&&&&&&&&&&&&&&&&&&&&&&&&&&&&&&&&&&&&&&&&&&&&",
"&&&&&&&&&&&&&&&&&&&&&&&&&&&&&&&&&&&&&&&&&&&&&&&&&&&&&&&&&&&&&&&&",
"&&&&&&&&&&&&&&&&&&&&&&&&&&&&&&&&&&&&&&&&&&&&&&&&&&&&&&&&&&&&&&&&",
"&&&&&&&&&&&&&&&&&&&&&&&&&&&&&&&&&&&&&&&&&&&&&&&&&&&&&&&&&&&&&&&&",
"&&&&&&&&&&&&&&&&&&&&&&&&&&&&&&&&&&&&&&&&&&&&&&&&&&&&&&&&&&&&&&&&",
"&&&&&&&&&&&&&&&&&&&&&&&&&&&&&&&&&&&&&&&&&&&&&&&&&&&&&&&&&&&&&&&&",
"&&&&&&&&&&&&&&&&&&&&&&&&&&&&&&&&&&&&&&&&&&&&&&&&&&&&&&&&&&&&&&&&",
"&&&&&&&&&&&&&&&&&&&&&&&&&&&&&&&&&&&&&&&&&&&&&&&&&&&&&&&&&&&&&&&&",
"&&&&&&&&&&&&&&&&&&&&&&&&&&&&&&&&&&&&&&&&&&&&&&&&&&&&&&&&&&&&&&&&",
"&&&&&&&&&&&&&&&&&&&&&&&&&&&&&&&&&&&&&&&&&&&&&&&&&&&&&&&&&&&&&&&&",
"&&&&&&&&&&&&&&&&&&&&&&&&&&&&&&&&&&&&&&&&&&&&&&&&&&&&&&&&&&&&&&&&",
"&&&&&&&&&&&&&&&&&&XXXX&&&&&&&&&&&&&&&&&&&&&&XXXX&&&&&&&&&&&&&&&&",
"&&&&&&&&&&&&&&&&&&XXXX&&&&&&&&&&&&&&&&&&&&&&XXXX&&&&&&&&&&&&&&&&",
"&&&&&&&&&&&&&&&&XX%%**XXXX&&&&@@@@@@&&&&XXXX**%%XX&&&&&&&&&&&&&&",
"&&&&&&&&&&&&&&&&XX%%**XXXX&&&&@@@@@@&&&&XXXX**%%XX&&&&&&&&&&&&&&",
"&&&&&&&&&&&&&&&&XX%%%%**%%@@@@$$$$$$@@@@%%**%%%%XX&&&&&&&&&&&&&&",
"&&&&&&&&&&&&&&&&XX%%%%**%%@@@@$$$$$$@@@@%%**%%%%XX&&&&&&&&&&&&&&",
"&&&&&&&&&&&&&&&&&&XX%%%%**##$$$$$$$$$$##**%%%%XX&&&&&&&&&&&&&&&&",
"&&&&&&&&&&&&&&&&&&XX%%%%**##$$$$$$$$$$##**%%%%XX&&&&&&&&&&&&&&&&",
"&&&&&&&&&&&&&&&&&&XX%%%%**$$$$$$$$$$$$$$**%%%%XX&&&&&&&&&&&&&&&&",
"&&&&&&&&&&&&&&&&&&XX%%%%**$$$$$$$$$$$$$$**%%%%XX&&&&&&&&&&&&&&&&",
"&&&&&&&&&&&&&&&&&&&&XX%%##$$$$$$$$$$$$$$##%%XX**XX&&&&&&&&&&&&&&",
"&&&&&&&&&&&&&&&&&&&&XX%%##$$$$$$$$$$$$$$##%%XX**XX&&&&&&&&&&&&&&",
"&&&&&&&&&&&&&&&&&&&&&&..$$$$##$$$$$$##$$$$..******XX&&&&&&&&&&&&",
"&&&&&&&&&&&&&&&&&&&&&&..$$$$##$$$$$$##$$$$..******XX&&&&&&&&&&&&",
"&&&&&&&&&&&&&&&&&&&&&&..**  $$$$$$$$$$  **..%%%%**XX&&&&&&&&&&&&",
"&&&&&&&&&&&&&&&&&&&&&&..**  $$$$$$$$$$  **..%%%%**XX&&&&&&&&&&&&",
"&&&&&&&&&&&&&&&&&&&&&&  %%oo$$$$$$$$$$oo%%  **%%**XX&&&&&&&&&&&&",
"&&&&&&&&&&&&&&&&&&&&&&  %%oo$$$$$$$$$$oo%%  **%%**XX&&&&&&&&&&&&",
"&&&&&&&&&&&&&&&&&&&&&&..  ##$$##$$##$$##  %%%%**XX&&&&&&&&&&&&&&",
"&&&&&&&&&&&&&&&&&&&&&&..  ##$$##$$##$$##  %%%%**XX&&&&&&&&&&&&&&",
"&&&&&&&&&&&&&&&&&&&&..$$$$  @@######@@  ##....%%  &&&&&&&&&&&&&&",
"&&&&&&&&&&&&&&&&&&&&..$$$$  @@######@@  ##....%%  &&&&&&&&&&&&&&",
"&&&&&&&&&&&&&&&&&&&&..**$$####      ####$$$$..  &&&&&&&&&&&&&&&&",
"&&&&&&&&&&&&&&&&&&&&..**$$####      ####$$$$..  &&&&&&&&&&&&&&&&",
"&&&&&&&&&&&&&&&&&&&&&&....@@..++++++..##$$**  &&&&&&&&&&&&&&&&&&",
"&&&&&&&&&&&&&&&&&&&&&&....@@..++++++..##$$**  &&&&&&&&&&&&&&&&&&",
"&&&&&&&&&&&&&&&&&&&&&&..$$##OOOOOOOOOO@@....&&&&&&&&&&&&&&&&&&&&",
"&&&&&&&&&&&&&&&&&&&&&&..$$##OOOOOOOOOO@@....&&&&&&&&&&&&&&&&&&&&",
"&&&&&&&&&&&&&&&&&&&&&&..$$$$@@OOOOOO@@####  &&&&&&&&&&&&&&&&&&&&",
"&&&&&&&&&&&&&&&&&&&&&&..$$$$@@OOOOOO@@####  &&&&&&&&&&&&&&&&&&&&",
"&&&&&&&&&&&&&&&&&&&&&&  ####..........    &&&&&&&&&&&&&&&&&&&&&&",
"&&&&&&&&&&&&&&&&&&&&&&  ####..........    &&&&&&&&&&&&&&&&&&&&&&",
"&&&&&&&&&&&&&&&&&&&&&&&&    &&&&&&&&&&&&&&&&&&&&&&&&&&&&&&&&&&&&",
"&&&&&&&&&&&&&&&&&&&&&&&&    &&&&&&&&&&&&&&&&&&&&&&&&&&&&&&&&&&&&",
"&&&&&&&&&&&&&&&&&&&&&&&&&&&&&&&&&&&&&&&&&&&&&&&&&&&&&&&&&&&&&&&&",
"&&&&&&&&&&&&&&&&&&&&&&&&&&&&&&&&&&&&&&&&&&&&&&&&&&&&&&&&&&&&&&&&",
"&&&&&&&&&&&&&&&&&&&&&&&&&&&&&&&&&&&&&&&&&&&&&&&&&&&&&&&&&&&&&&&&",
"&&&&&&&&&&&&&&&&&&&&&&&&&&&&&&&&&&&&&&&&&&&&&&&&&&&&&&&&&&&&&&&&",
"&&&&&&&&&&&&&&&&&&&&&&&&&&&&&&&&&&&&&&&&&&&&&&&&&&&&&&&&&&&&&&&&",
"&&&&&&&&&&&&&&&&&&&&&&&&&&&&&&&&&&&&&&&&&&&&&&&&&&&&&&&&&&&&&&&&",
"&&&&&&&&&&&&&&&&&&&&&&&&&&&&&&&&&&&&&&&&&&&&&&&&&&&&&&&&&&&&&&&&",
"&&&&&&&&&&&&&&&&&&&&&&&&&&&&&&&&&&&&&&&&&&&&&&&&&&&&&&&&&&&&&&&&",
"&&&&&&&&&&&&&&&&&&&&&&&&&&&&&&&&&&&&&&&&&&&&&&&&&&&&&&&&&&&&&&&&",
"&&&&&&&&&&&&&&&&&&&&&&&&&&&&&&&&&&&&&&&&&&&&&&&&&&&&&&&&&&&&&&&&",
"&&&&&&&&&&&&&&&&&&&&&&&&&&&&&&&&&&&&&&&&&&&&&&&&&&&&&&&&&&&&&&&&",
"&&&&&&&&&&&&&&&&&&&&&&&&&&&&&&&&&&&&&&&&&&&&&&&&&&&&&&&&&&&&&&&&",
"&&&&&&&&&&&&&&&&&&&&&&&&&&&&&&&&&&&&&&&&&&&&&&&&&&&&&&&&&&&&&&&&",
"&&&&&&&&&&&&&&&&&&&&&&&&&&&&&&&&&&&&&&&&&&&&&&&&&&&&&&&&&&&&&&&&",
"&&&&&&&&&&&&&&&&&&&&&&&&&&&&&&&&&&&&&&&&&&&&&&&&&&&&&&&&&&&&&&&&",
"&&&&&&&&&&&&&&&&&&&&&&&&&&&&&&&&&&&&&&&&&&&&&&&&&&&&&&&&&&&&&&&&"
};
