/* XPM */
static char *result[] = {
/* columns rows colors chars-per-pixel */
"64 64 11 1 ",
"  c black",
". c #383848",
"X c gray25",
"o c #A05818",
"O c #B88818",
"+ c #405098",
"@ c #4078D8",
"# c #7098E0",
"$ c #A0A0A0",
"% c #B3D6A1",
"& c #E8E8F8",
/* pixels */
"%%%%%%%%%%%%%%%%%%%%%%%%%%%%%%%%%%%%%%%%%%%%%%%%%%%%%%%%%%%%%%%%",
"%%%%%%%%%%%%%%%%%%%%%%%%%%%%%%%%%%%%%%%%%%%%%%%%%%%%%%%%%%%%%%%%",
"%%%%%%%%%%%%%%%%%%%%%%%%%%%%%%%%%%%%%%%%%%%%%%%%%%%%%%%%%%%%%%%%",
"%%%%%%%%%%%%%%%%%%%%%%%%%%%%%%%%%%%%%%%%%%%%%%%%%%%%%%%%%%%%%%%%",
"%%%%%%%%%%%%%%%%%%%%%%%%%%%%%%%%%%%%%%%%%%%%%%%%%%%%%%%%%%%%%%%%",
"%%%%%%%%%%%%%%%%%%%%%%%%%%%%%%%%%%%%%%%%%%%%%%%%%%%%%%%%%%%%%%%%",
"%%%%%%%%%%%%%%%%%%%%%%%%%%%%%%%%%%%%%%%%%%%%%%%%%%%%%%%%%%%%%%%%",
"%%%%%%%%%%%%%%%%%%%%%%%%%%%%%%%%%%%%%%%%%%%%%%%%%%%%%%%%%%%%%%%%",
"%%%%%%%%%%%%%%%%%%%%%%%%%%%%%%%%%%%%%%%%%%%%%%%%%%%%%%%%%%%%%%%%",
"%%%%%%%%%%%%%%%%%%%%%%%%%%%%%%%%%%%%%%%%%%%%%%%%%%%%%%%%%%%%%%%%",
"%%%%%%%%%%%%%%%%%%%%%%%%%%%%%%%%%%%%%%%%%%%%%%%%%%%%%%%%%%%%%%%%",
"%%%%%%%%%%%%%%%%%%%%%%%%%%%%%%%%%%%%%%%%%%%%%%%%%%%%%%%%%%%%%%%%",
"%%%%%%%%%%%%%%%%%%%%%%%%%%%%%%%%%%%%%%%%%%%%%%%%%%%%%%%%%%%%%%%%",
"%%%%%%%%%%%%%%%%%%%%%%%%%%%%%%%%%%%%%%%%%%%%%%%%%%%%%%%%%%%%%%%%",
"%%%%%%%%%%%%%%%%%%%%%%%%%%%%%%%%%%%%%%%%%%%%%%%%%%%%%%%%%%%%%%%%",
"%%%%%%%%%%%%%%%%%%%%%%%%%%%%%%%%%%%%%%%%%%%%%%%%%%%%%%%%%%%%%%%%",
"%%%%%%%%%%%%%%%%%%XXXXXX%%%%%%++++++%%%%%%XXXXXX%%%%%%%%%%%%%%%%",
"%%%%%%%%%%%%%%%%%%XXXXXX%%%%%%++++++%%%%%%XXXXXX%%%%%%%%%%%%%%%%",
"%%%%%%%%%%%%%%%%XX&&&&$$XX++++######++++XX$$&&&&XX%%%%%%%%%%%%%%",
"%%%%%%%%%%%%%%%%XX&&&&$$XX++++######++++XX$$&&&&XX%%%%%%%%%%%%%%",
"%%%%%%%%%%%%%%%%XX$$&&&&$$++##########++$$&&&&$$XX%%%%%%%%%%%%%%",
"%%%%%%%%%%%%%%%%XX$$&&&&$$++##########++$$&&&&$$XX%%%%%%%%%%%%%%",
"%%%%%%%%%%%%%%%%%%XX$$$$$$@@##########@@$$$$$$XX%%%%%%%%%%%%%%%%",
"%%%%%%%%%%%%%%%%%%XX$$$$$$@@##########@@$$$$$$XX%%%%%%%%%%%%%%%%",
"%%%%%%%%%%%%%%%%%%%%XX$$@@......######@@@@$$XX%%%%%%%%%%%%%%%%%%",
"%%%%%%%%%%%%%%%%%%%%XX$$@@......######@@@@$$XX%%%%%%%%%%%%%%%%%%",
"%%%%%%%%%%%%%%%%%%%%%%....&&&&&&..##@@@@@@..%%%%%%%%%%%%%%%%%%%%",
"%%%%%%%%%%%%%%%%%%%%%%....&&&&&&..##@@@@@@..%%%%%%%%%%%%%%%%%%%%",
"%%%%%%%%%%%%%%%%%%%%%%..$$&&&&&&&&..@@@@@@  %%%%%%%%%%%%%%%%%%%%",
"%%%%%%%%%%%%%%%%%%%%%%..$$&&&&&&&&..@@@@@@  %%%%%%%%%%%%%%%%%%%%",
"%%%%%%%%%%%%%%%%%%%%..$$$$&&$$&&&&..@@@@@@  %%%%%%%%%%%%%%%%%%%%",
"%%%%%%%%%%%%%%%%%%%%..$$$$&&$$&&&&..@@@@@@  %%%%%%%%%%%%%%%%%%%%",
"%%%%%%%%%%%%%%%%%%%%..&&$$&&$$$$..$$@@++  ..%%%%%%%%%%%%%%%%%%%%",
"%%%%%%%%%%%%%%%%%%%%..&&$$&&$$$$..$$@@++  ..%%%%%%%%%%%%%%%%%%%%",
"%%%%%%%%%%%%%%%%%%%%..&&&&&&&&..OOOO&&@@##..%%%%%%%%%%%%%%%%%%%%",
"%%%%%%%%%%%%%%%%%%%%..&&&&&&&&..OOOO&&@@##..%%%%%%%%%%%%%%%%%%%%",
"%%%%%%%%%%%%%%%%%%%%..&&&&&&&&..OOOOOO&&####..%%%%%%%%%%%%%%%%%%",
"%%%%%%%%%%%%%%%%%%%%..&&&&&&&&..OOOOOO&&####..%%%%%%%%%%%%%%%%%%",
"%%%%%%%%%%%%%%%%%%%%....&&&&&&&&..oooo$$++##..%%%%%%%%%%%%%%%%%%",
"%%%%%%%%%%%%%%%%%%%%....&&&&&&&&..oooo$$++##..%%%%%%%%%%%%%%%%%%",
"%%%%%%%%%%%%%%%%%%%%%%..++$$&&&&&&..oo$$....%%%%%%%%%%%%%%%%%%%%",
"%%%%%%%%%%%%%%%%%%%%%%..++$$&&&&&&..oo$$....%%%%%%%%%%%%%%%%%%%%",
"%%%%%%%%%%%%%%%%%%%%%%..@@    $$&&..$$@@@@  %%%%%%%%%%%%%%%%%%%%",
"%%%%%%%%%%%%%%%%%%%%%%..@@    $$&&..$$@@@@  %%%%%%%%%%%%%%%%%%%%",
"%%%%%%%%%%%%%%%%%%%%%%  @@@@..    ....    %%%%%%%%%%%%%%%%%%%%%%",
"%%%%%%%%%%%%%%%%%%%%%%  @@@@..    ....    %%%%%%%%%%%%%%%%%%%%%%",
"%%%%%%%%%%%%%%%%%%%%%%%%    %%%%%%%%%%%%%%%%%%%%%%%%%%%%%%%%%%%%",
"%%%%%%%%%%%%%%%%%%%%%%%%    %%%%%%%%%%%%%%%%%%%%%%%%%%%%%%%%%%%%",
"%%%%%%%%%%%%%%%%%%%%%%%%%%%%%%%%%%%%%%%%%%%%%%%%%%%%%%%%%%%%%%%%",
"%%%%%%%%%%%%%%%%%%%%%%%%%%%%%%%%%%%%%%%%%%%%%%%%%%%%%%%%%%%%%%%%",
"%%%%%%%%%%%%%%%%%%%%%%%%%%%%%%%%%%%%%%%%%%%%%%%%%%%%%%%%%%%%%%%%",
"%%%%%%%%%%%%%%%%%%%%%%%%%%%%%%%%%%%%%%%%%%%%%%%%%%%%%%%%%%%%%%%%",
"%%%%%%%%%%%%%%%%%%%%%%%%%%%%%%%%%%%%%%%%%%%%%%%%%%%%%%%%%%%%%%%%",
"%%%%%%%%%%%%%%%%%%%%%%%%%%%%%%%%%%%%%%%%%%%%%%%%%%%%%%%%%%%%%%%%",
"%%%%%%%%%%%%%%%%%%%%%%%%%%%%%%%%%%%%%%%%%%%%%%%%%%%%%%%%%%%%%%%%",
"%%%%%%%%%%%%%%%%%%%%%%%%%%%%%%%%%%%%%%%%%%%%%%%%%%%%%%%%%%%%%%%%",
"%%%%%%%%%%%%%%%%%%%%%%%%%%%%%%%%%%%%%%%%%%%%%%%%%%%%%%%%%%%%%%%%",
"%%%%%%%%%%%%%%%%%%%%%%%%%%%%%%%%%%%%%%%%%%%%%%%%%%%%%%%%%%%%%%%%",
"%%%%%%%%%%%%%%%%%%%%%%%%%%%%%%%%%%%%%%%%%%%%%%%%%%%%%%%%%%%%%%%%",
"%%%%%%%%%%%%%%%%%%%%%%%%%%%%%%%%%%%%%%%%%%%%%%%%%%%%%%%%%%%%%%%%",
"%%%%%%%%%%%%%%%%%%%%%%%%%%%%%%%%%%%%%%%%%%%%%%%%%%%%%%%%%%%%%%%%",
"%%%%%%%%%%%%%%%%%%%%%%%%%%%%%%%%%%%%%%%%%%%%%%%%%%%%%%%%%%%%%%%%",
"%%%%%%%%%%%%%%%%%%%%%%%%%%%%%%%%%%%%%%%%%%%%%%%%%%%%%%%%%%%%%%%%",
"%%%%%%%%%%%%%%%%%%%%%%%%%%%%%%%%%%%%%%%%%%%%%%%%%%%%%%%%%%%%%%%%"
};
