/* XPM */
static char *dG9ydGFua19kb3du[] = {
/* columns rows colors chars-per-pixel */
"64 64 13 1 ",
"  c black",
". c #303858",
"X c #505050",
"o c #805008",
"O c #988850",
"+ c #C8A850",
"@ c #F0C850",
"# c #6060A8",
"$ c #888888",
"% c #B3D6A1",
"& c gray72",
"* c #9088E8",
"= c #E8E8F8",
/* pixels */
"%%%%%%%%%%%%%%%%%%%%%%%%%%%%%%%%%%%%%%%%%%%%%%%%%%%%%%%%%%%%%%%%",
"%%%%%%%%%%%%%%%%%%%%%%%%%%%%%%%%%%%%%%%%%%%%%%%%%%%%%%%%%%%%%%%%",
"%%%%%%%%%%%%%%%%%%%%%%%%%%%%%%%%%%%%%%%%%%%%%%%%%%%%%%%%%%%%%%%%",
"%%%%%%%%%%%%%%%%%%%%%%%%%%%%%%%%%%%%%%%%%%%%%%%%%%%%%%%%%%%%%%%%",
"%%%%%%%%%%%%%%%%%%%%%%%%%%%%%%%%%%%%%%%%%%%%%%%%%%%%%%%%%%%%%%%%",
"%%%%%%%%%%%%%%%%%%%%%%%%%%%%%%%%%%%%%%%%%%%%%%%%%%%%%%%%%%%%%%%%",
"%%%%%%%%%%%%%%%%%%%%%%%%%%%%%%%%%%%%%%%%%%%%%%%%%%%%%%%%%%%%%%%%",
"%%%%%%%%%%%%%%%%%%%%%%%%%%%%%%%%%%%%%%%%%%%%%%%%%%%%%%%%%%%%%%%%",
"%%%%%%%%%%%%%%%%%%%%%%%%%%%%%%%%%%%%%%%%%%%%%%%%%%%%%%%%%%%%%%%%",
"%%%%%%%%%%%%%%%%%%%%%%%%%%%%%%%%%%%%%%%%%%%%%%%%%%%%%%%%%%%%%%%%",
"%%%%%%%%%%%%%%%%%%%%%%%%%%............%%%%%%%%%%%%%%%%%%%%%%%%%%",
"%%%%%%%%%%%%%%%%%%%%%%%%%%............%%%%%%%%%%%%%%%%%%%%%%%%%%",
"%%%%%%%%%%%%%%%%%%%%......************......%%%%%%%%%%%%%%%%%%%%",
"%%%%%%%%%%%%%%%%%%%%......************......%%%%%%%%%%%%%%%%%%%%",
"%%%%%%%%%%%%%%%%%%..******##********##******..%%%%%%%%%%%%%%%%%%",
"%%%%%%%%%%%%%%%%%%..******##********##******..%%%%%%%%%%%%%%%%%%",
"%%%%%%%%%%XX  %%%%....********************....%%%%  XX%%%%%%%%%%",
"%%%%%%%%%%XX  %%%%....********************....%%%%  XX%%%%%%%%%%",
"%%%%%%%%XX==&&  %%..  ********************  ..%%  &&==XX%%%%%%%%",
"%%%%%%%%XX==&&  %%..  ********************  ..%%  &&==XX%%%%%%%%",
"%%%%%%  $$==&&&&XX  ##********************##  XX&&&&==$$  %%%%%%",
"%%%%%%  $$==&&&&XX  ##********************##  XX&&&&==$$  %%%%%%",
"%%%%%%  ==&&&&&&XX  ####****************####  XX&&&&&&==  %%%%%%",
"%%%%%%  ==&&&&&&XX  ####****************####  XX&&&&&&==  %%%%%%",
"%%%%%%%%  &&&&XX$$  ##==oo**##****##**oo==##  $$XX&&&&  %%%%%%%%",
"%%%%%%%%  &&&&XX$$  ##==oo**##****##**oo==##  $$XX&&&&  %%%%%%%%",
"%%%%%%%%%%    XX$$  ##==oo  ##****##  oo==##..$$XX    %%%%%%%%%%",
"%%%%%%%%%%    XX$$  ##==oo  ##****##  oo==##..$$XX    %%%%%%%%%%",
"%%%%%%%%%%%%%%XX  ##  ######********######  ##  XX%%%%%%%%%%%%%%",
"%%%%%%%%%%%%%%XX  ##  ######********######  ##  XX%%%%%%%%%%%%%%",
"%%%%%%%%%%%%%%..****  ++####********####++  ****..%%%%%%%%%%%%%%",
"%%%%%%%%%%%%%%..****  ++####********####++  ****..%%%%%%%%%%%%%%",
"%%%%%%%%%%%%..******==  ++++  ####  ++++  ==******..%%%%%%%%%%%%",
"%%%%%%%%%%%%..******==  ++++  ####  ++++  ==******..%%%%%%%%%%%%",
"%%%%%%%%%%%%..******==OO    @@@@@@@@    OO==##****##..%%%%%%%%%%",
"%%%%%%%%%%%%..******==OO    @@@@@@@@    OO==##****##..%%%%%%%%%%",
"%%%%%%%%%%..##****##&&++@@++        ++@@++&&  ####==..%%%%%%%%%%",
"%%%%%%%%%%..##****##&&++@@++        ++@@++&&  ####==..%%%%%%%%%%",
"%%%%%%%%%%..==####  OO@@@@@@@@@@@@@@@@@@@@OO..&&  ..%%%%%%%%%%%%",
"%%%%%%%%%%..==####  OO@@@@@@@@@@@@@@@@@@@@OO..&&  ..%%%%%%%%%%%%",
"%%%%%%%%%%%%..  &&....@@@@@@@@@@@@@@@@@@@@..##    %%%%%%%%%%%%%%",
"%%%%%%%%%%%%..  &&....@@@@@@@@@@@@@@@@@@@@..##    %%%%%%%%%%%%%%",
"%%%%%%%%%%%%%%    ****++++@@@@@@@@@@@@++++OO**..%%%%%%%%%%%%%%%%",
"%%%%%%%%%%%%%%    ****++++@@@@@@@@@@@@++++OO**..%%%%%%%%%%%%%%%%",
"%%%%%%%%%%%%%%..******OOOOOOOOOOOOOOOOOOOO******..%%%%%%%%%%%%%%",
"%%%%%%%%%%%%%%..******OOOOOOOOOOOOOOOOOOOO******..%%%%%%%%%%%%%%",
"%%%%%%%%%%%%%%..##****##  ++++++++++++OO##******..%%%%%%%%%%%%%%",
"%%%%%%%%%%%%%%..##****##  ++++++++++++OO##******..%%%%%%%%%%%%%%",
"%%%%%%%%%%%%%%%%..######    OOOOOOOO  ####****##..%%%%%%%%%%%%%%",
"%%%%%%%%%%%%%%%%..######    OOOOOOOO  ####****##..%%%%%%%%%%%%%%",
"%%%%%%%%%%%%%%%%  &&==##  %%        ..########..%%%%%%%%%%%%%%%%",
"%%%%%%%%%%%%%%%%  &&==##  %%        ..########..%%%%%%%%%%%%%%%%",
"%%%%%%%%%%%%%%%%%%      %%%%%%%%%%%%%%  ##==&&  %%%%%%%%%%%%%%%%",
"%%%%%%%%%%%%%%%%%%      %%%%%%%%%%%%%%  ##==&&  %%%%%%%%%%%%%%%%",
"%%%%%%%%%%%%%%%%%%%%%%%%%%%%%%%%%%%%%%%%      %%%%%%%%%%%%%%%%%%",
"%%%%%%%%%%%%%%%%%%%%%%%%%%%%%%%%%%%%%%%%      %%%%%%%%%%%%%%%%%%",
"%%%%%%%%%%%%%%%%%%%%%%%%%%%%%%%%%%%%%%%%%%%%%%%%%%%%%%%%%%%%%%%%",
"%%%%%%%%%%%%%%%%%%%%%%%%%%%%%%%%%%%%%%%%%%%%%%%%%%%%%%%%%%%%%%%%",
"%%%%%%%%%%%%%%%%%%%%%%%%%%%%%%%%%%%%%%%%%%%%%%%%%%%%%%%%%%%%%%%%",
"%%%%%%%%%%%%%%%%%%%%%%%%%%%%%%%%%%%%%%%%%%%%%%%%%%%%%%%%%%%%%%%%",
"%%%%%%%%%%%%%%%%%%%%%%%%%%%%%%%%%%%%%%%%%%%%%%%%%%%%%%%%%%%%%%%%",
"%%%%%%%%%%%%%%%%%%%%%%%%%%%%%%%%%%%%%%%%%%%%%%%%%%%%%%%%%%%%%%%%",
"%%%%%%%%%%%%%%%%%%%%%%%%%%%%%%%%%%%%%%%%%%%%%%%%%%%%%%%%%%%%%%%%",
"%%%%%%%%%%%%%%%%%%%%%%%%%%%%%%%%%%%%%%%%%%%%%%%%%%%%%%%%%%%%%%%%"
};
