/* XPM */
static char *dG9ydGFua19sZWZ0[] = {
/* columns rows colors chars-per-pixel */
"64 64 14 1 ",
"  c black",
". c #482808",
"X c #303858",
"o c #505050",
"O c #805008",
"+ c #B07018",
"@ c #988850",
"# c #F0C850",
"$ c #6060A8",
"% c #888888",
"& c #B3D6A1",
"* c gray72",
"= c #9088E8",
"- c #E8E8F8",
/* pixels */
"&&&&&&&&&&&&&&&&&&&&&&&&&&&&&&&&&&&&&&&&&&&&&&&&&&&&&&&&&&&&&&&&",
"&&&&&&&&&&&&&&&&&&&&&&&&&&&&&&&&&&&&&&&&&&&&&&&&&&&&&&&&&&&&&&&&",
"&&&&&&&&&&&&&&&&&&&&&&&&&&&&&&&&&&&&&&&&&&&&&&&&&&&&&&&&&&&&&&&&",
"&&&&&&&&&&&&&&&&&&&&&&&&&&&&&&&&&&&&&&&&&&&&&&&&&&&&&&&&&&&&&&&&",
"&&&&&&&&&&&&&&&&&&&&&&&&&&&&&&&&&&&&&&&&&&&&&&&&&&&&&&&&&&&&&&&&",
"&&&&&&&&&&&&&&&&&&&&&&&&&&&&&&&&&&&&&&&&&&&&&&&&&&&&&&&&&&&&&&&&",
"&&&&&&&&&&&&&&&&&&&&&&&&&&&&&&&&&&&&&&&&&&&&&&&&&&&&&&&&&&&&&&&&",
"&&&&&&&&&&&&&&&&&&&&&&&&&&&&&&&&&&&&&&&&&&&&&&&&&&&&&&&&&&&&&&&&",
"&&&&&&&&&&&&&&&&&&&&&&&&&&&&&&&&&&&&&&&&&&&&&&&&&&&&&&&&&&&&&&&&",
"&&&&&&&&&&&&&&&&&&&&&&&&&&&&&&&&&&&&&&&&&&&&&&&&&&&&&&&&&&&&&&&&",
"&&&&&&&&&&&&&&&&&&&&XXXXXX&&&&&&&&&&&&&&&&&&&&&&&&&&&&&&&&&&&&&&",
"&&&&&&&&&&&&&&&&&&&&XXXXXX&&&&&&&&&&&&&&&&&&&&&&&&&&&&&&&&&&&&&&",
"&&&&&&&&&&&&&&&&XXXX==$$$$XXXX  &&&&&&&&&&&&&&&&&&&&&&&&&&&&&&&&",
"&&&&&&&&&&&&&&&&XXXX==$$$$XXXX  &&&&&&&&&&&&&&&&&&&&&&&&&&&&&&&&",
"&&&&&&&&&&&&XXXX========XX$$====  &&&&oooo&&&&&&&&&&&&&&&&&&&&&&",
"&&&&&&&&&&&&XXXX========XX$$====  &&&&oooo&&&&&&&&&&&&&&&&&&&&&&",
"&&&&&&&&&&XX$$==============$$XX  &&oo**%%oo&&&&&&&&&&&&&&&&&&&&",
"&&&&&&&&&&XX$$==============$$XX  &&oo**%%oo&&&&&&&&&&&&&&&&&&&&",
"&&&&&&&&&&XX==============$$$$XX  &&      oo&&&&&&&&&&&&&&&&&&&&",
"&&&&&&&&&&XX==============$$$$XX  &&      oo&&&&&&&&&&&&&&&&&&&&",
"&&&&&&&&&&XX$$====$$====$$$$$$$$$$  ++OOOO  &&&&&&&&&&&&&&&&&&&&",
"&&&&&&&&&&XX$$====$$====$$$$$$$$$$  ++OOOO  &&&&&&&&&&&&&&&&&&&&",
"&&&&&&&&&&XX$$==XX======$$$$##@@oo++oo----oo  &&&&&&&&&&&&&&&&&&",
"&&&&&&&&&&XX$$==XX======$$$$##@@oo++oo----oo  &&&&&&&&&&&&&&&&&&",
"&&&&&&&&XX======XX$$==**$$######oo++**  oo--  &&&&&&&&&&&&&&&&&&",
"&&&&&&&&XX======XX$$==**$$######oo++**  oo--  &&&&&&&&&&&&&&&&&&",
"&&&&&&&&XX====$$==  OO--$$####oo$$OO%%    %%OO..&&&&&&&&&&&&&&&&",
"&&&&&&&&XX====$$==  OO--$$####oo$$OO%%    %%OO..&&&&&&&&&&&&&&&&",
"&&&&&&&&XX$$$$$$$$$$$$$$$$##@@  $$OO  %%%%  ++OO..&&&&&&&&&&&&&&",
"&&&&&&&&XX$$$$$$$$$$$$$$$$##@@  $$OO  %%%%  ++OO..&&&&&&&&&&&&&&",
"&&&&&&&&XX$$XX$$$$$$######@@  $$==--oo    oo++OO..&&&&&&&&&&&&&&",
"&&&&&&&&XX$$XX$$$$$$######@@  $$==--oo    oo++OO..&&&&&&&&&&&&&&",
"&&&&&&&&&&XXXXoo########      ======**oooo++OOOO..&&&&&&&&&&&&&&",
"&&&&&&&&&&XXXXoo########      ======**oooo++OOOO..&&&&&&&&&&&&&&",
"&&&&&&&&&&&&&&oooo      @@  $$======$$**OOOOOO..OO  &&&&&&&&&&&&",
"&&&&&&&&&&&&&&oooo      @@  $$======$$**OOOOOO..OO  &&&&&&&&&&&&",
"&&&&&&&&&&&&&&&&&&oo@@@@##  ========$$**OOOO..OOOO  &&&&&&&&&&&&",
"&&&&&&&&&&&&&&&&&&oo@@@@##  ========$$**OOOO..OOOO  &&&&&&&&&&&&",
"&&&&&&&&&&&&&&&&&&oo####oo--====$$$$$$XX**....OOOO  &&&&&&&&&&&&",
"&&&&&&&&&&&&&&&&&&oo####oo--====$$$$$$XX**....OOOO  &&&&&&&&&&&&",
"&&&&&&&&&&&&&&&&&&oo####oooo$$$$$$  XX$$$$**..OO        &&&&&&&&",
"&&&&&&&&&&&&&&&&&&oo####oooo$$$$$$  XX$$$$**..OO        &&&&&&&&",
"&&&&&&&&&&&&&&&&&&&&  @@@@  **    $$====$$**....  $$====  &&&&&&",
"&&&&&&&&&&&&&&&&&&&&  @@@@  **    $$====$$**....  $$====  &&&&&&",
"&&&&&&&&&&&&&&&&&&&&  ####@@    $$======$$**..  $$====  &&&&&&&&",
"&&&&&&&&&&&&&&&&&&&&  ####@@    $$======$$**..  $$====  &&&&&&&&",
"&&&&&&&&&&&&&&&&&&&&&&  ####@@@@  $$====$$$$  XX$$    &&&&&&&&&&",
"&&&&&&&&&&&&&&&&&&&&&&  ####@@@@  $$====$$$$  XX$$    &&&&&&&&&&",
"&&&&&&&&&&&&&&&&&&&&&&&&    @@@@@@  $$$$$$$$oo    &&&&&&&&&&&&&&",
"&&&&&&&&&&&&&&&&&&&&&&&&    @@@@@@  $$$$$$$$oo    &&&&&&&&&&&&&&",
"&&&&&&&&&&&&&&&&&&&&&&&&&&&&      $$--**$$**$$  &&&&&&&&&&&&&&&&",
"&&&&&&&&&&&&&&&&&&&&&&&&&&&&      $$--**$$**$$  &&&&&&&&&&&&&&&&",
"&&&&&&&&&&&&&&&&&&&&&&&&&&&&&&&&&&            &&&&&&&&&&&&&&&&&&",
"&&&&&&&&&&&&&&&&&&&&&&&&&&&&&&&&&&            &&&&&&&&&&&&&&&&&&",
"&&&&&&&&&&&&&&&&&&&&&&&&&&&&&&&&&&&&&&&&&&&&&&&&&&&&&&&&&&&&&&&&",
"&&&&&&&&&&&&&&&&&&&&&&&&&&&&&&&&&&&&&&&&&&&&&&&&&&&&&&&&&&&&&&&&",
"&&&&&&&&&&&&&&&&&&&&&&&&&&&&&&&&&&&&&&&&&&&&&&&&&&&&&&&&&&&&&&&&",
"&&&&&&&&&&&&&&&&&&&&&&&&&&&&&&&&&&&&&&&&&&&&&&&&&&&&&&&&&&&&&&&&",
"&&&&&&&&&&&&&&&&&&&&&&&&&&&&&&&&&&&&&&&&&&&&&&&&&&&&&&&&&&&&&&&&",
"&&&&&&&&&&&&&&&&&&&&&&&&&&&&&&&&&&&&&&&&&&&&&&&&&&&&&&&&&&&&&&&&",
"&&&&&&&&&&&&&&&&&&&&&&&&&&&&&&&&&&&&&&&&&&&&&&&&&&&&&&&&&&&&&&&&",
"&&&&&&&&&&&&&&&&&&&&&&&&&&&&&&&&&&&&&&&&&&&&&&&&&&&&&&&&&&&&&&&&",
"&&&&&&&&&&&&&&&&&&&&&&&&&&&&&&&&&&&&&&&&&&&&&&&&&&&&&&&&&&&&&&&&",
"&&&&&&&&&&&&&&&&&&&&&&&&&&&&&&&&&&&&&&&&&&&&&&&&&&&&&&&&&&&&&&&&"
};
