/* XPM */
static char *dG9ydGFua19yaWdodA__[] = {
/* columns rows colors chars-per-pixel */
"64 64 14 1 ",
"  c black",
". c #482808",
"X c #303858",
"o c #505050",
"O c #805008",
"+ c #B07018",
"@ c #988850",
"# c #F0C850",
"$ c #6060A8",
"% c #888888",
"& c #B3D6A1",
"* c gray72",
"= c #9088E8",
"- c #E8E8F8",
/* pixels */
"&&&&&&&&&&&&&&&&&&&&&&&&&&&&&&&&&&&&&&&&&&&&&&&&&&&&&&&&&&&&&&&&",
"&&&&&&&&&&&&&&&&&&&&&&&&&&&&&&&&&&&&&&&&&&&&&&&&&&&&&&&&&&&&&&&&",
"&&&&&&&&&&&&&&&&&&&&&&&&&&&&&&&&&&&&&&&&&&&&&&&&&&&&&&&&&&&&&&&&",
"&&&&&&&&&&&&&&&&&&&&&&&&&&&&&&&&&&&&&&&&&&&&&&&&&&&&&&&&&&&&&&&&",
"&&&&&&&&&&&&&&&&&&&&&&&&&&&&&&&&&&&&&&&&&&&&&&&&&&&&&&&&&&&&&&&&",
"&&&&&&&&&&&&&&&&&&&&&&&&&&&&&&&&&&&&&&&&&&&&&&&&&&&&&&&&&&&&&&&&",
"&&&&&&&&&&&&&&&&&&&&&&&&&&&&&&&&&&&&&&&&&&&&&&&&&&&&&&&&&&&&&&&&",
"&&&&&&&&&&&&&&&&&&&&&&&&&&&&&&&&&&&&&&&&&&&&&&&&&&&&&&&&&&&&&&&&",
"&&&&&&&&&&&&&&&&&&&&&&&&&&&&&&&&&&&&&&&&&&&&&&&&&&&&&&&&&&&&&&&&",
"&&&&&&&&&&&&&&&&&&&&&&&&&&&&&&&&&&&&&&&&&&&&&&&&&&&&&&&&&&&&&&&&",
"&&&&&&&&&&&&&&&&&&&&&&&&&&&&&&&&&&&&&&&&&&&&&&&&&&&&&&&&&&&&&&&&",
"&&&&&&&&&&&&&&&&&&&&&&&&&&&&&&&&&&&&&&&&&&&&&&&&&&&&&&&&&&&&&&&&",
"&&&&&&&&&&&&&&&&&&&&&&&&&&&&&&&&&&&&&&&&XXXXXX&&&&&&&&&&&&&&&&&&",
"&&&&&&&&&&&&&&&&&&&&&&&&&&&&&&&&&&&&&&&&XXXXXX&&&&&&&&&&&&&&&&&&",
"&&&&&&&&&&&&&&&&&&&&&&&&&&&&&&&&&&  XXXX$$$$==XXXX&&&&&&&&&&&&&&",
"&&&&&&&&&&&&&&&&&&&&&&&&&&&&&&&&&&  XXXX$$$$==XXXX&&&&&&&&&&&&&&",
"&&&&&&&&&&&&&&&&&&&&&&&&oooo&&&&  ====$$XX========XXXX&&&&&&&&&&",
"&&&&&&&&&&&&&&&&&&&&&&&&oooo&&&&  ====$$XX========XXXX&&&&&&&&&&",
"&&&&&&&&&&&&&&&&&&&&&&oo%%**oo&&  XX$$==============$$XX&&&&&&&&",
"&&&&&&&&&&&&&&&&&&&&&&oo%%**oo&&  XX$$==============$$XX&&&&&&&&",
"&&&&&&&&&&&&&&&&&&&&&&oo      &&  XX$$$$==============XX&&&&&&&&",
"&&&&&&&&&&&&&&&&&&&&&&oo      &&  XX$$$$==============XX&&&&&&&&",
"&&&&&&&&&&&&&&&&&&&&&&  OOOO++  $$$$$$$$$$====$$====$$XX&&&&&&&&",
"&&&&&&&&&&&&&&&&&&&&&&  OOOO++  $$$$$$$$$$====$$====$$XX&&&&&&&&",
"&&&&&&&&&&&&&&&&&&&&  oo----oo++oo@@##$$$$======XX==$$XX&&&&&&&&",
"&&&&&&&&&&&&&&&&&&&&  oo----oo++oo@@##$$$$======XX==$$XX&&&&&&&&",
"&&&&&&&&&&&&&&&&&&&&  --oo  **++oo######$$**==$$XX======XX&&&&&&",
"&&&&&&&&&&&&&&&&&&&&  --oo  **++oo######$$**==$$XX======XX&&&&&&",
"&&&&&&&&&&&&&&&&&&..OO%%    %%OO$$oo####$$--OO  ==$$====XX&&&&&&",
"&&&&&&&&&&&&&&&&&&..OO%%    %%OO$$oo####$$--OO  ==$$====XX&&&&&&",
"&&&&&&&&&&&&&&&&..OO++  %%%%  OO$$  @@##$$$$$$$$$$$$$$$$XX&&&&&&",
"&&&&&&&&&&&&&&&&..OO++  %%%%  OO$$  @@##$$$$$$$$$$$$$$$$XX&&&&&&",
"&&&&&&&&&&&&&&&&..OO++oo    oo--$$XX  @@######$$$$$$XX$$XX&&&&&&",
"&&&&&&&&&&&&&&&&..OO++oo    oo--$$XX  @@######$$$$$$XX$$XX&&&&&&",
"&&&&&&&&&&&&&&&&..OOOO++oooo**====$$XX    ########ooXXXX&&&&&&&&",
"&&&&&&&&&&&&&&&&..OOOO++oooo**====$$XX    ########ooXXXX&&&&&&&&",
"&&&&&&&&&&&&&&  OO..OOOOOO**$$====$$  @@@@      oooo&&&&&&&&&&&&",
"&&&&&&&&&&&&&&  OO..OOOOOO**$$====$$  @@@@      oooo&&&&&&&&&&&&",
"&&&&&&&&&&&&&&  OOOO..OOOO**$$======$$  ##@@@@oo&&&&&&&&&&&&&&&&",
"&&&&&&&&&&&&&&  OOOO..OOOO**$$======$$  ##@@@@oo&&&&&&&&&&&&&&&&",
"&&&&&&&&&&&&&&  OOOO....**XX$$$$====--oo######oo&&&&&&&&&&&&&&&&",
"&&&&&&&&&&&&&&  OOOO....**XX$$$$====--oo######oo&&&&&&&&&&&&&&&&",
"&&&&&&&&&&        OO..**$$$$  $$$$==oooo######oo&&&&&&&&&&&&&&&&",
"&&&&&&&&&&        OO..**$$$$  $$$$==oooo######oo&&&&&&&&&&&&&&&&",
"&&&&&&&&  ====$$  ....**$$====    **  @@@@@@  &&&&&&&&&&&&&&&&&&",
"&&&&&&&&  ====$$  ....**$$====    **  @@@@@@  &&&&&&&&&&&&&&&&&&",
"&&&&&&&&&&  ====$$  ..**$$======    oo######  &&&&&&&&&&&&&&&&&&",
"&&&&&&&&&&  ====$$  ..**$$======    oo######  &&&&&&&&&&&&&&&&&&",
"&&&&&&&&&&&&    $$$$XX  oo$$$$====$$oo####  &&&&&&&&&&&&&&&&&&&&",
"&&&&&&&&&&&&    $$$$XX  oo$$$$====$$oo####  &&&&&&&&&&&&&&&&&&&&",
"&&&&&&&&&&&&&&&&        oo$$$$$$$$  @@    &&&&&&&&&&&&&&&&&&&&&&",
"&&&&&&&&&&&&&&&&        oo$$$$$$$$  @@    &&&&&&&&&&&&&&&&&&&&&&",
"&&&&&&&&&&&&&&&&&&&&&&  $$**$$**--$$  &&&&&&&&&&&&&&&&&&&&&&&&&&",
"&&&&&&&&&&&&&&&&&&&&&&  $$**$$**--$$  &&&&&&&&&&&&&&&&&&&&&&&&&&",
"&&&&&&&&&&&&&&&&&&&&&&&&            &&&&&&&&&&&&&&&&&&&&&&&&&&&&",
"&&&&&&&&&&&&&&&&&&&&&&&&            &&&&&&&&&&&&&&&&&&&&&&&&&&&&",
"&&&&&&&&&&&&&&&&&&&&&&&&&&&&&&&&&&&&&&&&&&&&&&&&&&&&&&&&&&&&&&&&",
"&&&&&&&&&&&&&&&&&&&&&&&&&&&&&&&&&&&&&&&&&&&&&&&&&&&&&&&&&&&&&&&&",
"&&&&&&&&&&&&&&&&&&&&&&&&&&&&&&&&&&&&&&&&&&&&&&&&&&&&&&&&&&&&&&&&",
"&&&&&&&&&&&&&&&&&&&&&&&&&&&&&&&&&&&&&&&&&&&&&&&&&&&&&&&&&&&&&&&&",
"&&&&&&&&&&&&&&&&&&&&&&&&&&&&&&&&&&&&&&&&&&&&&&&&&&&&&&&&&&&&&&&&",
"&&&&&&&&&&&&&&&&&&&&&&&&&&&&&&&&&&&&&&&&&&&&&&&&&&&&&&&&&&&&&&&&",
"&&&&&&&&&&&&&&&&&&&&&&&&&&&&&&&&&&&&&&&&&&&&&&&&&&&&&&&&&&&&&&&&",
"&&&&&&&&&&&&&&&&&&&&&&&&&&&&&&&&&&&&&&&&&&&&&&&&&&&&&&&&&&&&&&&&"
};
