/* XPM */
static char *dG9ydGFua191cA__[] = {
/* columns rows colors chars-per-pixel */
"64 64 11 1 ",
"  c black",
". c #303858",
"X c #505050",
"o c #805008",
"O c #B07018",
"+ c #6060A8",
"@ c #888888",
"# c #B3D6A1",
"$ c gray72",
"% c #9088E8",
"& c #E8E8F8",
/* pixels */
"################################################################",
"################################################################",
"################################################################",
"################################################################",
"################################################################",
"################################################################",
"################################################################",
"################################################################",
"############################........############################",
"############################........############################",
"########################....++++++++....########################",
"########################....++++++++....########################",
"####################    ..++%%%%%%%%++..    ####################",
"####################    ..++%%%%%%%%++..    ####################",
"##################  %%%%%%%%%%%%%%%%%%%%%%%%  ##################",
"##################  %%%%%%%%%%%%%%%%%%%%%%%%  ##################",
"##################  ++%%%%%%%%%%%%%%%%%%%%++  ##################",
"##################  ++%%%%%%%%%%%%%%%%%%%%++  ##################",
"##########XX  ####  ..%%%%%%%%%%%%%%%%%%%%..  ####  XX##########",
"##########XX  ####  ..%%%%%%%%%%%%%%%%%%%%..  ####  XX##########",
"########XX&&$$  ##    %%%%%%%%%%%%%%%%%%%%    ##  $$&&XX########",
"########XX&&$$  ##    %%%%%%%%%%%%%%%%%%%%    ##  $$&&XX########",
"######  @@&&$$$$XX  ++++%%%%%%%%%%%%%%%%++++  XX$$$$&&@@  ######",
"######  @@&&$$$$XX  ++++%%%%%%%%%%%%%%%%++++  XX$$$$&&@@  ######",
"######  &&$$$$$$XX  ++++%%%%%%%%%%%%%%%%++++  XX$$$$$$&&  ######",
"######  &&$$$$$$XX  ++++%%%%%%%%%%%%%%%%++++  XX$$$$$$&&  ######",
"########  $$$$XX@@XX  ++++++%%%%%%%%++++++  XX@@XX$$$$  ########",
"########  $$$$XX@@XX  ++++++%%%%%%%%++++++  XX@@XX$$$$  ########",
"##########    XX@@    $$$$&&&&&&&&&&&&$$$$    @@XX    ##########",
"##########    XX@@    $$$$&&&&&&&&&&&&$$$$    @@XX    ##########",
"############..    OOOOoooo$$$$$$$$$$$$ooooOOOO    ##############",
"############..    OOOOoooo$$$$$$$$$$$$ooooOOOO    ##############",
"############..  OOOOOOOOOOooooooooooooOOOOOOOOOO  ..############",
"############..  OOOOOOOOOOooooooooooooOOOOOOOOOO  ..############",
"##########..++  OOOOOOOOOOooOOOOOOOOooOOOOOOOOOO  ..############",
"##########..++  OOOOOOOOOOooOOOOOOOOooOOOOOOOOOO  ..############",
"##########..@@++  ooOOOOooOOOOOOOOOOOOooOOOOoo  ++++..##########",
"##########..@@++  ooOOOOooOOOOOOOOOOOOooOOOOoo  ++++..##########",
"##########....@@  &&ooOOooOOOOOOOOOOOOooOOoo&&  ++@@..##########",
"##########....@@  &&ooOOooOOOOOOOOOOOOooOOoo&&  ++@@..##########",
"############....  &&ooooooOOOO    OOOOoooooo&&  @@....##########",
"############....  &&ooooooOOOO    OOOOoooooo&&  @@....##########",
"################  &&oooooooo  %%%%  oooooooo&&    ..############",
"################  &&oooooooo  %%%%  oooooooo&&    ..############",
"##############  ..$$oooooooo  %%%%  oooooooo$$..  ##############",
"##############  ..$$oooooooo  %%%%  oooooooo$$..  ##############",
"##############  ....$$oooo  ++%%%%++  oooo$$....  ##############",
"##############  ....$$oooo  ++%%%%++  oooo$$....  ##############",
"##############  ......$$  ..++++++++..  $$....  ################",
"##############  ......$$  ..++++++++..  $$....  ################",
"################  ..........++++++++..........  ################",
"################  ..........++++++++..........  ################",
"################  ......  ##        ####      ##################",
"################  ......  ##        ####      ##################",
"##################      ########################################",
"##################      ########################################",
"################################################################",
"################################################################",
"################################################################",
"################################################################",
"################################################################",
"################################################################",
"################################################################",
"################################################################"
};
