/* XPM */
static char *_2c7f18a601b4c1fbdc7effcf2e53099SlSophK7KSbv0ORc[] = {
/* columns rows colors chars-per-pixel */
"64 64 40 1 ",
"  c #4B4942",
". c #4C5548",
"X c #5A5850",
"o c #52614E",
"O c #5D6A56",
"+ c #5B6D54",
"@ c #5F7558",
"# c #657B5C",
"$ c #6A7F5D",
"% c #687F5E",
"& c #706C61",
"* c #877A6A",
"= c #618060",
"- c #6E8863",
"; c #609360",
": c #7A9064",
"> c #77A46F",
", c #7FAB74",
"< c #78A778",
"1 c #8EA76A",
"2 c #83AE77",
"3 c #81AE7B",
"4 c #83B07C",
"5 c #89B47B",
"6 c #8AB57F",
"7 c #AEC26A",
"8 c #8EB880",
"9 c #90B981",
"0 c #92BB82",
"q c #93BC82",
"w c #93BC83",
"e c #94BD83",
"r c #95BE84",
"t c #96BF85",
"y c #99C188",
"u c #9BC38A",
"i c #9CC48B",
"p c #A1C790",
"a c #A3C691",
"s c #CFE187",
/* pixels */
"3eeeeeeeeeeeeeeeeeeeeeeeee<<<<<OO<<<<<eeeeeeeeeeeeeeeeeeeeeeeeee",
"eeeeeeeeeeeeeeeeeeeeeeeeee<..<OssO<..<eeeeeeeeeeeeeeeeeeeeeeeeee",
"eeeeeeeeeeeeeeeeeeeeeeeeee.:1O7ss7O1:.eeeeeeeeeeeeeeeeeeeeeeeeee",
"eeeeeeeeeeeeeeeeeeeeeeeeq5.11OssssO11.288eeeeeeeeeeeeeeeeeeeeeee",
"eeeeeeeeeeeeeeeeeeeeeeq5-.::O7ssss7O::..;8teeeeeeeeeeeeeeeeeeeee",
"eeeeeeeeeeeeeeeeeeeeeq>.:11:$77ss77$:11:.,qeeeeeeeeeeeeeeeeeeeee",
"eeeeeeeeeeeeeeeeeeee3+.O:11$77ssss77$11:O.$eeeeeeeeeeeeeeeeeeeee",
"eeeeeeeeeeeeeeeeeee0.:$O$$:1777ss7771:$$O$:.eeeeeeeeeeeeeeeeeeee",
"eeeeeeeeeeeeeeeeeee6.$$O$:117177771711:$O$$.eeeeeeeeeeeeeeeeeeee",
"eeeeeeeeeeeeeeeeee4.OOO$:11117777771111:$OOO.eeeeeeeeeeeeeeeeeee",
"eeeeeeeeeeeeeeeeee.O$$O::11:17177171:11::O$$O.eeeeeeeeeeeeeeeeee",
"eeeeeeeeeeeeeeeeee.$$$:O::$1117777111$::O:$$$.eeeeeeeeeeeeeeeeee",
"eeeeeeeeeeeeeeeeee.$$::$O$111177771111$O$::$$.eeeeeeeeeeeeeeeeee",
"eeeeeeeeeeeeeeeeee.O$:::O:111117711111:O:::$O.eeeeeeeeeeeeeeeeee",
"eeeeeeeeeeeeeeeeee.$O$::O::1$111111$1::O::$O$.eeeeeeeeeeeeeeeeee",
"eeeeeeeeeeeeeeeetp.$$::::O$$:111111:$$O::::$$.eeeeeeeeeeeeeeeeee",
"eeeeeeeeeeeeeeeeu.$$:::11::$::1$$1::$::11:::$$#eeeeeeeeeeeeeeeee",
"eeeeeeeeeeeeeeeeu.$$:$:11:::$:$::$:$:::11:$:$$.ieeeeeeeeeeeeeeee",
"eeeeeeeeeeeeeeee@$O$O::::::::$::::$::::::::O$O$.eeeeeeeeeeeeeeee",
"eeeeeeeeeeeeeeeeo$$O$:OO::11::::::::11::OO:$O$$.eeeeeeeeeeeeeeee",
"eeeeeeeeeeeeeeeeoO$O$$OO::11:::11:::11::OO$$O$O.eeeeeeeeeeeeeeee",
"eeeeeeeeeeeeeeeeo$$O$$$:$::::::11::::::$:$$$O$$.eeeeeeeeeeeeeeee",
"eeeeeeeeeeeeeeeeo$O$O$$O::::::::::::::::O$$O$O$.eeeeeeeeeeeeeeee",
"eeeeeeeeeeeeeeee0.$$$OO$::$:OO::::OO:$::$OO$$$.eeeeeeeeeeeeeeeee",
"eeeeeeeeeeeeeeeeo$$$$$O$$$O$OO:$$:OO$O$$$O$$$$$.eeeeeeeeeeeeeeee",
"eeeeeeeeeeeeeeeeoO$O$$O$$OO$$$$OO$$$$OO$$O$$O$O.eeeeeeeeeeeeeeee",
"eeeeeeeeeeeeeeeeoOO$$$$OO$$O$$O$$O$$O$$OO$$$$OO.eeeeeeeeeeeeeeee",
"eeeeeeeeeeeeeeee0.$$$$$$$$$$OO$$$$OO$$$$$$$$$$.eeeeeeeeeeeeeeeee",
"eeeeeeeeeeeeeeee0.$$$$$$$::$$$$$$$$$$::$$$$$$$.qeeeeeeeeeeeeeeee",
"eeeeeeeeeeeeeeeee.O$$O$$$::$$$$::$$$$::$$$O$$O.yeeeeeeeeeeeeeeee",
"eeeeeeeeeeeeeeeee.OOO$$$O$$$$$$::$$$$$$O$$$OOO.teeeeeeeeeeeeeeee",
"eeeeeeeeeeeeeeeeee.O.OOO$$$O$$$$$$$$O$$$OOO.O.eeeeeeeeeeeeeeeeee",
"eeeeeeeeeeeeeeeetwt.OOOOO$O$$$$$$$$$$O$OOOOO.eeeeeeeeeeeeeeeeeee",
"eeeeeeeeeeeeeeeeqwt.OOOOO.OO$$O=$O$$OO.OOOOO.eeeeeeeeeeeeeeeeeee",
"eeeeeeeeeeeeeeeeqt<<.OOO OOOOOOOOOOOOOO OOO.<<eeeeeeeeeeeeeeeeee",
"eeeeeeeeeeeeeeeeqq<<;    OOOO OOOO OOOO    ;<<eeeeeeeeeeeeeeeeee",
"eeeeeeeeeeeeeeeett<<<XX * OO  OOOO  OO * XX<<<eeeeeeeeeeeeeeeeee",
"eeeeeeeeeeeeeeeeqq<<<X &*&  &* OO *&  &*& X<<<eeeeeeeeeeeeeeeeee",
"eeeeeeeeeeeeeeeetq<<<X &&*&***&  &***&*&& X<<<eeeeeeeeeeeeeeeeee",
"eeeeeeeeeeeeeeeeqq<<<<XX&X&*&&&&&&&&*&X&XX<<<<eeeeeeeeeeeeeeeeee",
"eeeeeeeeeeeeeeeeqt<<<;;X  &&&&*XX*&&&&  X;;<<<eeeeeeeeeeeeeeeeee",
"eeeeeeeeeeeeeeeeqq<<<;;;==X&&X    X&&X==;;;<<<eeeeeeeeeeeeeeeeee",
"eeeeeeeeeeeeeeeettq<<<;;===X  ====  X===;;<<<eeeeeeeeeeeeeeeeeee",
"eeeeeeeeeeeeeeeeqqq<<<;;===========#====;;<<<eeeeeeeeeeeeeeeeeee",
"eeeeeeeeeeeeeeeeeee<<;;;================;;;<<eeeeeeeeeeeeeeeeeee",
"eeeeeeeeeeeeeeeeee<<<;;#=================;;<<<eeeeeeeeeeeeeeeeee",
"eeeeeeeeeeeeeeeeee<<<;;==================;;<<<eeeeeeeeeeeeeeeeee",
"eeeeeeeeeeeeeeeeee<<<;;==================;;<<<eeeeeeeeeeeeeeeeee",
"eeeeeeeeeeeeeeeeee<<<;;==================;;<<<eeeeeeeeeeeeeeeeee",
"eeeeeeeeeeeeeeeeee<<<;;==================;;<<<eeeeeeeeeeeeeeeeee",
"eeeeeeeeeeeeeeeeee<<<;;==================;;<<<eeeeeeeeeeeeeeeeee",
"eeeeeeeeeeeeeeeeee<<<;;;================;;;<<<eeeeeeeeeeeeeeeeee",
"eeeeeeeeeeeeeeeeee<<<;;;================;;;<<<eeeeeeeeeeeeeeeeee",
"eeeeeeeeeeeeeeeeee<<<<;;;==============;;;<<<<eeeeeeeeeeeeeeeeee",
"eeeeeeeeeeeeeeeeee<<<<;;;;============;;;;<<<<eeeeeeeeeeeeeeeeee",
"eeeeeeeeeeeeeeeee88<<<<;;;;;========;;;;;<<<<<eeeeeeeeeeeeeeeeee",
"eeeeeeeeeeeeeeeeeee<<<<<<;;;;;;;;;;;;;;<<<<<<eeeeeeeeeeeeeeeeeee",
"eeeeeeeeeeeeeeeeeeee<<<<<<<;;;;;;;;;;<<<<<<<eeeeeeeeeeeeeeeeeeee",
"eeeeeeeeeeeeeeeeeeee8<<<<<<<<<<<<<<<<<<<<<<<eeeeeeeeeeeeeeeeeeee",
"eeeeeeeeeeeeeeeeeeee8<<<<<<<<<<<<<<<<<<<<<<eeeeeeeeeeeeeeeeeeeee",
"eeeeeeeeeeeeeeeeeeeeeeee<<<<<<<<<<<<<<<<eeeeeeeeeeeeeeeeeeeeeeee",
"eeeeeeeeeeeeeeeeeeeeeeeeeee<<<<<<<<<<eeeeeeeeeaeeeeeeeeeeeeeeeee",
"eeeeeeeeeeeeeeeeeeeeeeeeeeeeeeeeeeeeeeeeeeeeeepeeeeeeeeeeeeeeeee",
"eeeeeeeeeeeeeeeeeeeeeeeeeeeeeeeeeeeeeeeeeeeeeapeeeeeeeeeeeeeeeee"
};
