/* XPM */
static char *_c3a01bd0e6c45e5bb5bd808a47d1df5dlM1hIiBN6uHVlZz[] = {
/* columns rows colors chars-per-pixel */
"64 64 10 1 ",
"  c #416650",
". c #4D7C60",
"X c #639D7A",
"o c #7BB57B",
"O c #94BD83",
"+ c #A3C691",
"@ c #ADCC9D",
"# c #A1D59B",
"$ c #B3D6A1",
"% c #C4DFB5",
/* pixels */
"$$$$$$$$$$$$$$$$$$$$$$$$$$$$$$$$XXXX$$$$$$$$$$$$$$$$$$$$$$$$$$$$",
"$$$$$$$$$$$$$$$$$$$$$$$$$$$$$$$$XXXX$$$$$$$$$$$$$$$$$$$$$$$$$$$$",
"$$$$$$$$$$$$$$$$$$$$$$$$$$$$$$$$XXXX$$$$$$$$$$$$$$$$$$$$$$$$$$$$",
"$$$$$$$$$$$$$$$$$$$$$$$$$$$$$$$$XXXX$$$$$$$$$$$$$$$$$$$$$$$$$$$$",
"$$$$$$$$$$$$$$$$$$$$$$$$OOOOXXXX####XXXXOOOO$$$$$$$$$$$$%%%%%%%%",
"$$$$$$$$$$$$$$$$$$$$$$$$OOOOXXXX####XXXXOOOO$$$$$$$$$$$$%%%%%%%%",
"$$$$$$$$$$$$$$$$$$$$$$$$OOOOXXXX####XXXXOOOO$$$$$$$$$$$$%%%%%%%%",
"$$$$$$$$$$$$$$$$$$$$$$$$OOOOXXXX####XXXXOOOO$$$$$$$$$$$$%%%%%%%%",
"$$$$$$$$XXXXXXXXXXXXOOOOXXXX########XXXXOOOO....XXXXXXXX%%%%%%%%",
"$$$$$$$$XXXXXXXXXXXXOOOOXXXX########XXXXOOOO....XXXXXXXX%%%%%%%%",
"$$$$$$$$XXXXXXXXXXXXOOOOXXXX########XXXXOOOO....XXXXXXXX%%%%%%%%",
"$$$$$$$$XXXXXXXXXXXXOOOOXXXX########XXXXOOOO....XXXXXXXX%%%%%%%%",
"$$$$XXXX########ooooXXXX....oooo####XXXX....oooo########XXXX$$$$",
"$$$$XXXX########ooooXXXX....oooo####XXXX....oooo########XXXX$$$$",
"$$$$XXXX########ooooXXXX....oooo####XXXX....oooo########XXXX$$$$",
"$$$$XXXX########ooooXXXX....oooo####XXXX....oooo########XXXX$$$$",
"$$$$$$$$XXXX########oooo....oooooooo....oooo########XXXX$$$$$$$$",
"$$$$$$$$XXXX########oooo....oooooooo....oooo########XXXX$$$$$$$$",
"$$$$$$$$XXXX########oooo....oooooooo....oooo########XXXX$$$$$$$$",
"$$$$$$$$XXXX########oooo....oooooooo....oooo########XXXX$$$$$$$$",
"$$$$$$$$OOOO....oooooooooooo....oooo....oooooooo....OOOO++++$$$$",
"$$$$$$$$OOOO....oooooooooooo....oooo....oooooooo....OOOO++++$$$$",
"$$$$$$$$OOOO....oooooooooooo....oooo....oooooooo....OOOO++++$$$$",
"$$$$$$$$OOOO....oooooooooooo....oooo....oooooooo....OOOO++++$$$$",
"@@@@XXXXXXXXXXXX....XXXXooooXXXX....oooooooo........XXXXXXXX$$$$",
"@@@@XXXXXXXXXXXX....XXXXooooXXXX....oooooooo........XXXXXXXX$$$$",
"@@@@XXXXXXXXXXXX....XXXXooooXXXX....oooooooo........XXXXXXXX$$$$",
"@@@@XXXXXXXXXXXX....XXXXooooXXXX....oooooooo........XXXXXXXX$$$$",
"XXXX############oooo....XXXXoooo....oooo....oooo############XXXX",
"XXXX############oooo....XXXXoooo....oooo....oooo############XXXX",
"XXXX############oooo....XXXXoooo....oooo....oooo############XXXX",
"XXXX############oooo....XXXXoooo....oooo....oooo############XXXX",
"$$$$XXXX############oooo    XXXX    ....ooooooooooooooooXXXX$$$$",
"$$$$XXXX############oooo    XXXX    ....ooooooooooooooooXXXX$$$$",
"$$$$XXXX############oooo    XXXX    ....ooooooooooooooooXXXX$$$$",
"$$$$XXXX############oooo    XXXX    ....ooooooooooooooooXXXX$$$$",
"$$$$OOOO....oooooooooooooooo    ....XXXXXXXXXXXX    ....OOOO$$$$",
"$$$$OOOO....oooooooooooooooo    ....XXXXXXXXXXXX    ....OOOO$$$$",
"$$$$OOOO....oooooooooooooooo    ....XXXXXXXXXXXX    ....OOOO$$$$",
"$$$$OOOO....oooooooooooooooo    ....XXXXXXXXXXXX    ....OOOO$$$$",
"$$$$$$$$OOOO........        ....                ....OOOO$$$$$$$$",
"$$$$$$$$OOOO........        ....                ....OOOO$$$$$$$$",
"$$$$$$$$OOOO........        ....                ....OOOO$$$$$$$$",
"$$$$$$$$OOOO........        ....                ....OOOO$$$$$$$$",
"$$$$OOOOXXXX####oooooooo    XXXX    XXXXoooooooo####XXXXOOOO$$$$",
"$$$$OOOOXXXX####oooooooo    XXXX    XXXXoooooooo####XXXXOOOO$$$$",
"$$$$OOOOXXXX####oooooooo    XXXX    XXXXoooooooo####XXXXOOOO$$$$",
"$$$$OOOOXXXX####oooooooo    XXXX    XXXXoooooooo####XXXXOOOO$$$$",
"$$$$XXXX####oooooooo    XXXXooooXXXX    XXXXXXXXoooo####XXXX$$$$",
"$$$$XXXX####oooooooo    XXXXooooXXXX    XXXXXXXXoooo####XXXX$$$$",
"$$$$XXXX####oooooooo    XXXXooooXXXX    XXXXXXXXoooo####XXXX$$$$",
"$$$$XXXX####oooooooo    XXXXooooXXXX    XXXXXXXXoooo####XXXX$$$$",
"$$$$OOOOXXXX........    ooooooooooooXXXX        ....XXXXOOOO$$$$",
"$$$$OOOOXXXX........    ooooooooooooXXXX        ....XXXXOOOO$$$$",
"$$$$OOOOXXXX........    ooooooooooooXXXX        ....XXXXOOOO$$$$",
"$$$$OOOOXXXX........    ooooooooooooXXXX        ....XXXXOOOO$$$$",
"$$$$$$$$OOOOOOOOXXXXXXXX....ooooXXXX....XXXXXXXXOOOO$$$$$$$$$$$$",
"$$$$$$$$OOOOOOOOXXXXXXXX....ooooXXXX....XXXXXXXXOOOO$$$$$$$$$$$$",
"$$$$$$$$OOOOOOOOXXXXXXXX....ooooXXXX....XXXXXXXXOOOO$$$$$$$$$$$$",
"$$$$$$$$OOOOOOOOXXXXXXXX....ooooXXXX....XXXXXXXXOOOO$$$$$$$$$$$$",
"$$$$$$$$$$$$$$$$OOOOOOOOOOOO........OOOOOOOOOOOO$$$$$$$$$$$$$$$$",
"$$$$$$$$$$$$$$$$OOOOOOOOOOOO........OOOOOOOOOOOO$$$$$$$$$$$$$$$$",
"$$$$$$$$$$$$$$$$OOOOOOOOOOOO........OOOOOOOOOOOO$$$$$$$$$$$$$$$$",
"$$$$$$$$$$$$$$$$OOOOOOOOOOOO........OOOOOOOOOOOO$$$$$$$$$$$$$$$$"
};
