/* XPM */
static char *_1c48ec4e5b0423b8dff006e6e92e95dlp57o75nsFQ5nQfz[] = {
/* columns rows colors chars-per-pixel */
"64 64 14 1 ",
"  c black",
". c #384050",
"X c #784040",
"o c #C03838",
"O c #F06848",
"+ c #D8A078",
"@ c #386088",
"# c #C06898",
"$ c #B3D6A1",
"% c #F8D0B8",
"& c #A8A0C8",
"* c #E890C0",
"= c #C8C8D8",
"- c #E8E8F8",
/* pixels */
"$$$$$$$$$$$$$$$$$$$$$$$$$$$$$$$$$$$$$$$$$$$$$$$$$$$$$$$$$$$$$$$$",
"$$$$$$$$$$$$$$$$$$$$$$$$$$$$$$$$$$$$$$$$$$$$$$$$$$$$$$$$$$$$$$$$",
"$$$$$$$$$$$$$$$$$$$$$$$$$$$$$$$$$$$$$$$$$$$$$$$$$$$$$$$$$$$$$$$$",
"$$$$$$$$$$$$$$$$$$$$$$$$$$$$$$$$$$$$$$$$$$$$$$$$$$$$$$$$$$$$$$$$",
"$$$$$$$$$$$$$$$$$$$$$$$$$$$$$$$$$$$$$$$$$$$$$$$$$$$$$$$$$$$$$$$$",
"$$$$$$$$$$$$$$$$$$$$$$$$$$$$$$$$$$$$$$$$$$$$$$$$$$$$$$$$$$$$$$$$",
"$$$$$$$$$$$$$$$$$$$$$$$$$$$$$$$$$$$$$$$$$$$$$$$$$$$$$$$$$$$$$$$$",
"$$$$$$$$$$$$$$$$$$$$$$$$$$$$$$$$$$$$$$$$$$$$$$$$$$$$$$$$$$$$$$$$",
"$$$$$$$$$$$$$$$$$$$$$$$$$$$$$$$$$$$$$$$$$$$$$$$$$$$$$$$$$$$$$$$$",
"$$$$$$$$$$$$$$$$$$$$$$$$$$$$$$$$$$$$$$$$$$$$$$$$$$$$$$$$$$$$$$$$",
"$$$$$$$$$$$$$$$$$$$$$$$$$$$$$$$$$$$$$$$$$$$$$$$$$$$$$$$$$$$$$$$$",
"$$$$$$$$$$$$$$$$$$$$$$$$$$$$$$$$$$$$$$$$$$$$$$$$$$$$$$$$$$$$$$$$",
"$$$$$$$$$$$$$$$$$$$$$$$$$$$$$$&&&&&&$$$$$$$$$$$$$$$$$$$$$$$$$$$$",
"$$$$$$$$$$$$$$$$$$$$$$$$$$$$$$&&&&&&$$$$$$$$$$$$$$$$$$$$$$$$$$$$",
"$$$$$$$$$$$$$$$$$$$$$$$$$$$$@@------@@$$$$$$$$$$$$$$$$$$$$$$$$$$",
"$$$$$$$$$$$$$$$$$$$$$$$$$$$$@@------@@$$$$$$$$$$$$$$$$$$$$$$$$$$",
"$$$$$$$$$$$$$$$$$$$$$$@@@@&&----------&&@@@@$$$$$$$$$$$$$$$$$$$$",
"$$$$$$$$$$$$$$$$$$$$$$@@@@&&----------&&@@@@$$$$$$$$$$$$$$$$$$$$",
"$$$$$$$$$$$$$$$$$$$$@@&&------------------&&@@$$$$$$$$$$$$$$$$$$",
"$$$$$$$$$$$$$$$$$$$$@@&&------------------&&@@$$$$$$$$$$$$$$$$$$",
"$$$$$$$$$$$$$$$$$$$$  ----------------------  $$$$$$$$$$$$$$$$$$",
"$$$$$$$$$$$$$$$$$$$$  ----------------------  $$$$$$$$$$$$$$$$$$",
"$$$$$$$$$$$$$$$$$$  ==----------------------==  $$$$$$$$$$$$$$$$",
"$$$$$$$$$$$$$$$$$$  ==----------------------==  $$$$$$$$$$$$$$$$",
"$$$$$$$$$$$$$$$$$$..==----------------------==..$$$$$$$$$$$$$$$$",
"$$$$$$$$$$$$$$$$$$..==----------------------==..$$$$$$$$$$$$$$$$",
"$$$$$$$$$$$$$$$$  ..====------------------====..  $$$$$$$$$$$$$$",
"$$$$$$$$$$$$$$$$  ..====------------------====..  $$$$$$$$$$$$$$",
"$$$$$$$$$$$$$$$$  ..&&======--******--======&&..  $$$$$$$$$$$$$$",
"$$$$$$$$$$$$$$$$  ..&&======--******--======&&..  $$$$$$$$$$$$$$",
"$$$$$$$$$$$$$$$$  ..&&======##======##======&&..  $$$$$$$$$$$$$$",
"$$$$$$$$$$$$$$$$  ..&&======##======##======&&..  $$$$$$$$$$$$$$",
"$$$$$$$$$$$$$$$$  ++..==--==&&&&&&&&&&==--==  ++  $$$$$$$$$$$$$$",
"$$$$$$$$$$$$$$$$  ++..==--==&&&&&&&&&&==--==  ++  $$$$$$$$$$$$$$",
"$$$$$$$$$$$$$$$$  ++..&&&&====--==--====&&&&..++  $$$$$$$$$$$$$$",
"$$$$$$$$$$$$$$$$  ++..&&&&====--==--====&&&&..++  $$$$$$$$$$$$$$",
"$$$$$$$$$$$$$$$$  ....**..&&@@++++++@@&&..**....  $$$$$$$$$$$$$$",
"$$$$$$$$$$$$$$$$  ....**..&&@@++++++@@&&..**....  $$$$$$$$$$$$$$",
"$$$$$$$$$$$$$$$$  ..@@  ++--  %%%%%%  --++  @@..  $$$$$$$$$$$$$$",
"$$$$$$$$$$$$$$$$  ..@@  ++--  %%%%%%  --++  @@..  $$$$$$$$$$$$$$",
"$$$$$$$$$$$$$$$$    @@  ++%%%%%%%%%%%%%%++  @@    $$$$$$$$$$$$$$",
"$$$$$$$$$$$$$$$$    @@  ++%%%%%%%%%%%%%%++  @@    $$$$$$$$$$$$$$",
"$$$$$$$$$$$$$$$$$$  @@  &&++%%%%++%%%%++XX  @@  $$$$$$$$$$$$$$$$",
"$$$$$$$$$$$$$$$$$$  @@  &&++%%%%++%%%%++XX  @@  $$$$$$$$$$$$$$$$",
"$$$$$$$$$$$$$$$$$$    oo==  XX++++++XX  oo    $$$$$$$$$$$$$$$$$$",
"$$$$$$$$$$$$$$$$$$    oo==  XX++++++XX  oo    $$$$$$$$$$$$$$$$$$",
"$$$$$$$$$$$$$$$$  %%%%  @@&&--======--  oooo    $$$$$$$$$$$$$$$$",
"$$$$$$$$$$$$$$$$  %%%%  @@&&--======--  oooo    $$$$$$$$$$$$$$$$",
"$$$$$$$$$$$$$$$$  ++++@@==@@--&&oo&&--&&  oo==%%XX$$$$$$$$$$$$$$",
"$$$$$$$$$$$$$$$$  ++++@@==@@--&&oo&&--&&  oo==%%XX$$$$$$$$$$$$$$",
"$$$$$$$$$$$$$$$$$$    ----@@&&oooooo&&  oo  %%%%  $$$$$$$$$$$$$$",
"$$$$$$$$$$$$$$$$$$    ----@@&&oooooo&&  oo  %%%%  $$$$$$$$$$$$$$",
"$$$$$$$$$$$$$$$$$$$$  &&&&@@**oooooo**OOXX      $$$$$$$$$$$$$$$$",
"$$$$$$$$$$$$$$$$$$$$  &&&&@@**oooooo**OOXX      $$$$$$$$$$$$$$$$",
"$$$$$$$$$$$$$$$$$$$$$$      OOOOOOOOOO      $$$$$$$$$$$$$$$$$$$$",
"$$$$$$$$$$$$$$$$$$$$$$      OOOOOOOOOO      $$$$$$$$$$$$$$$$$$$$",
"$$$$$$$$$$$$$$$$$$$$$$  ####          ####  $$$$$$$$$$$$$$$$$$$$",
"$$$$$$$$$$$$$$$$$$$$$$  ####          ####  $$$$$$$$$$$$$$$$$$$$",
"$$$$$$$$$$$$$$$$$$$$$$$$    $$$$$$$$$$    $$$$$$$$$$$$$$$$$$$$$$",
"$$$$$$$$$$$$$$$$$$$$$$$$    $$$$$$$$$$    $$$$$$$$$$$$$$$$$$$$$$",
"$$$$$$$$$$$$$$$$$$$$$$$$$$$$$$$$$$$$$$$$$$$$$$$$$$$$$$$$$$$$$$$$",
"$$$$$$$$$$$$$$$$$$$$$$$$$$$$$$$$$$$$$$$$$$$$$$$$$$$$$$$$$$$$$$$$",
"$$$$$$$$$$$$$$$$$$$$$$$$$$$$$$$$$$$$$$$$$$$$$$$$$$$$$$$$$$$$$$$$",
"$$$$$$$$$$$$$$$$$$$$$$$$$$$$$$$$$$$$$$$$$$$$$$$$$$$$$$$$$$$$$$$$"
};
