/* XPM */
static char *_03641d425f84f60bc4f17a772accbb3QPxpFTJctobp8exi[] = {
/* columns rows colors chars-per-pixel */
"64 64 15 1 ",
"  c #4B4942",
". c #4C5548",
"X c #5A5850",
"o c #5D6A56",
"O c #6A7F5D",
"+ c #706C61",
"@ c #877A6A",
"# c #609360",
"$ c #7A9064",
"% c #78A778",
"& c #8EA76A",
"* c #AEC26A",
"= c #94BD83",
"- c #B3D6A1",
"; c #CFE187",
/* pixels */
"&$$$$&&oOO$$$OO.$$$&&&$$o**&$&&&&$$$$&&oOO$$$OOO.$$&&&$$o**&$&&&",
"&$$$$ooOOOO$$O..$$$&&$$$$oo$&&&&&$$$$ooOOOO$$OOO..$&&$$$$oo$&&&&",
"o$$$oOOOOOOOOO.oo.$$$$$$$$$o&&&oo$$$oOOOOOOOOO.oo.$$$$$$$$$o&&&o",
"Oo$$oOOOOOOOOOO..$$$$$$$$$$o&&oOOo$$oOOOOOOOOOO..$$$$$$$$$$o&&oO",
"Oo$$oOO$$OOOOO..$$$o$$O$$$Oo&&oOOo$$oOO$$OOOOOOO..$o$$O$$$Oo&&oO",
"OOooOOO$$$OOO.O.$$OOOO$$$OOOoo$OOOooOOO$$$OOOOOO.O.OOO$$$OOOoo$O",
"OOOOOOOo$$o$.oOO..O$$o$$oOOO$$$OOOOOOOOo$$o$$O..OOo.$o$$oOOO$$$O",
"OOOOOOOOooO$$.ooo.$$$OooOOOO$$OOOOOOOOOOooO$$$.ooo.$$OooOOOO$$OO",
"OOOOOOOOOOOO$$.OO.$$OOOOOOOOOOOOOOOOOOOOOOOO$$.OO.$$OOOOOOOOOOOO",
"OOOOOOOOOOo...$$Oo...oOOOOOOOOOOOOOOOOOOOOo...oO$$...oOOOOOOOOOO",
"OOO$$OOOOO.o.oooooooo.OOOOO$$OOOOOO$$OOOOO.oooooooo.o.OOOOO$$OOO",
"OOO$$$ooOO.o.oooooooo.OOoo$$$OOOOOO$$$ooOO.oooooooo.o.OOoo$$$OOO",
"OOO$$$ooOO.oO..oooOOo.OOoo$$$OOOOOO$$$ooOO.oOOooo..Oo.OOoo$$$OOO",
"$$o$$$.o..OoO$$.o$$OoO..o.$$$o$$$$o$$$.o..OoO$$o.$$OoO..o.$$$o$$",
"$$o.$$.ooOOOo$$.o$$oOOOoo.$$.o$$$$o.$$.ooOOOo$$o.$$oOOOoo.$$.o$$",
"$$.o..ooooOOoo.oooooOOoooo..o.$$$$.o..ooooOOooooo.ooOOoooo..o.$$",
"..oooooooooooo.ooooooooooooooo....ooooooooooooooo.oooooooooooo..",
"*.oooOOooooooo....OooooooOOooo.**.oooOOooooooo....OooooooOOooo.*",
";.oooO$$ooooo.====.ooooo$$Oooo.;;.oooO$$ooooo.====.ooooo$$Oooo.;",
";*..oo$$ooooo.%==%.ooooo$$oo..*;;*..oo$$ooooo.%==%.ooooo$$oo..*;",
";;.$.oo.. .oo.%==%.oo. ..oo.&.;;;;.$.oo.. .oo.%==%.oo. ..oo.&.;;",
";;*.$..o.. ..%%==%%.. ..o..&.*;;;;*.$..o.. ..%%==%%.. ..o..&.*;;",
";;*.$$$$oO.#%%%==%%%#.$o&&&&.*;;;;*.$$$$oO.#%%%==%%%#.$o&&&&.*;;",
";;**$$$$oO...%%==%%...$o$&&$**;;;;**$$$$oO...%%==%%...$o$&&$**;;",
";***&$$oOOOOO.====.$$$$$o&$&***;;***&$$oOOOOO.====.$$$$$o&$&***;",
";***&$$oOOOOO.=--=.$$$$$o&$&***;;***&$$oOOOOO.=--=.$$$$$o&$&***;",
"****&$$oOOOOO..--..$$$$$o&&&********&$$oOOOOO..--..$$$$$o&&&****",
"&**&&$&&oOO$$oo..oo&&$$o**&&&**&&**&&$&&oOO$$oo..oo&&$$o**&&&**&",
"*&&&&$&&&oOO$$o..o&&$$o***&&&&&**&&&&$&&&oOO$$o..o&&$$o***&&&&&*",
"**&&$$$&&oOOOO.--.$$$$o**&$&&&****&&$$$&&oOOOO.--.$$$$o**&$&&&**",
"**&$&&$$oO$$OOO..$$$&&$o$$**&&****&$&&$$oO$$OOO..$$$&&$o$$**&&**",
"*&$$&&&oOO$$OOO..$$$&&$$o***&&&**&$$&&&oOO$$OOO..$$$&&$$o***&&&*",
"&$$$$&&oOO$$$OO.$$$&&&$$o**&$&&&&$$$$&&oOO$$$OOO.$$&&&$$o**&$&&&",
"&$$$$ooOOOO$$O..$$$&&$$$$oo$&&&&&$$$$ooOOOO$$OOO..$&&$$$$oo$&&&&",
"o$$$oOOOOOOOOO.oo.$$$$$$$$$o&&&oo$$$oOOOOOOOOO.oo.$$$$$$$$$o&&&o",
"Oo$$oOOOOOOOOOO..$$$$$$$$$$o&&oOOo$$oOOOOOOOOOO..$$$$$$$$$$o&&oO",
"Oo$$oOO$$OOOOO..$$$o$$O$$$Oo&&oOOo$$oOO$$OOOOOOO..$o$$O$$$Oo&&oO",
"OOooOOO$$$OOO.O.$$OOOO$$$OOOoo$OOOooOOO$$$OOOOOO.O.OOO$$$OOOoo$O",
"OOOOOOOo$$o$.oOO..O$$o$$oOOO$$$OOOOOOOOo$$o$$O..OOo.$o$$oOOO$$$O",
"OOOOOOOOooO$$.ooo.$$$OooOOOO$$OOOOOOOOOOooO$$$.ooo.$$OooOOOO$$OO",
"OOOOOOOOOOOO$$.OO.$$OOOOOOOOOOOOOOOOOOOOOOOO$$.OO.$$OOOOOOOOOOOO",
"OOOOOOOOOOo...$$Oo...oOOOOOOOOOOOOOOOOOOOOo...oO$$...oOOOOOOOOOO",
"OOO$$OOOOO.o.oooooooo.OOOOO$$OOOOOO$$OOOOO.oooooooo.o.OOOOO$$OOO",
"OOO$$$ooOO.o.oooooooo.OOoo$$$OOOOOO$$$ooOO.oooooooo.o.OOoo$$$OOO",
"OOO$$$ooOO.oO..oooOOo.OOoo$$$OOOOOO$$$ooOO.oOOooo..Oo.OOoo$$$OOO",
"$$o$$$.o..OoO$$.o$$OoO..o.$$$o$$$$o$$$.o..OoO$$o.$$OoO..o.$$$o$$",
"$$o.$$.ooOOOo$$.o$$oOOOoo.$$.o$$$$o.$$.ooOOOo$$o.$$oOOOoo.$$.o$$",
"$$.o..ooooOOoo.oooooOOoooo..o.$$$$.o..ooooOOooooo.ooOOoooo..o.$$",
"..oooooooooooo.ooooooooooooooo....ooooooooooooooo.oooooooooooo..",
"oooooOOooooooo....OooooooOOooooooooooOOooooooo....OooooooOOooooo",
"oooooO$$ooooo.====.ooooo$$OooooooooooO$$ooooo.====.ooooo$$Oooooo",
"oooooo$$ooooo.%==%.ooooo$$oooooooooooo$$ooooo.%==%.ooooo$$oooooo",
"oo.ooooo. .oo.%==%.oo. oooooo.oooo.ooooo. .oo.%==%.oo. oooooo.oo",
"oo  ..oo X ..%%==%%.. X oo..  oooo  ..oo X ..%%==%%.. X oo..  oo",
"o. @  oo X #%%%==%%%# X oo  @ .oo. @  oo X #%%%==%%%# X oo  @ .o",
"o @@++  XX #%%%==%%%# XX  ++@@ oo @@++  XX #%%%==%%%# XX  ++@@ o",
" +@@@@X+  #%%%====%%%#  +X@@@@+  +@@@@X+  #%%%====%%%#  +X@@@@+ ",
"XX++++X ###%%%=--=%%%### X++++XXXX++++X ###%%%=--=%%%### X++++XX",
"  X++++ ##%%%==--==%%%## ++++X    X++++ ##%%%==--==%%%## ++++X  ",
"##  X++ #%%%%==--==%%%%# ++X  ####  X++ #%%%%==--==%%%%# ++X  ##",
"####   %%%%%==----==%%%%%   ########   %%%%%==----==%%%%%   ####",
"######%%%%====----====%%%%############%%%%====----====%%%%######",
"%%%%%%%%====--------====%%%%%%%%%%%%%%%%====--------====%%%%%%%%",
"%%%%%%====-------------===%%%%%%%%%%%%====-------------===%%%%%%"
};
